<svg id="Surfer" xmlns="http://www.w3.org/2000/svg" width="90" height="120" viewBox="0 0 90 120"><defs><style>.cls-1{fill:#ed1c24;}</style></defs><title>1</title><path class="cls-1" d="M26.34,66.72H19.06l-7.25,0a12.78,12.78,0,0,1-3.59-.34,2.65,2.65,0,0,1-1.87-2.78c0-2.46,1.92-3.7,5.75-3.7l1.76,0,1.5.07c0-1.17-.11-2.9-.31-5.2s-.31-4-.31-5.16q0-4.65.84-14.14.8-9.33.77-14.17-4.91,3.81-6.26,3.81A3.47,3.47,0,0,1,7.54,24a3.49,3.49,0,0,1-1.08-2.53q0-1.71,3.15-4.17,2-1.39,5.6-4.47,3.22-3.26,6.15-3.26,2.46,0,2.46,2.82a22.52,22.52,0,0,1-.22,2.51,20.31,20.31,0,0,0-.22,2.51c0,.81,0,2,.13,3.66s.12,2.86.12,3.66q0,4.18-.87,12.45t-.88,12.42c0,1.42.09,3.14.29,5.16s.31,3.69.33,5l3.84-.07a3.46,3.46,0,0,1,2.55,1,3.64,3.64,0,0,1,0,5A3.48,3.48,0,0,1,26.34,66.72Z"/></svg>
