<svg id="Surfer" xmlns="http://www.w3.org/2000/svg" width="80" height="90" viewBox="0 0 80 90"><title>10</title><path d="M26,66H18.72l-7.25,0a13.33,13.33,0,0,1-3.59-.33A2.66,2.66,0,0,1,6,62.81c0-2.46,1.91-3.7,5.75-3.7l1.75,0,1.5.07c0-1.17-.1-2.9-.31-5.2s-.31-4-.31-5.16q0-4.65.84-14.14Q16,25.39,16,20.55q-4.91,3.81-6.26,3.81a3.45,3.45,0,0,1-2.54-1.1,3.49,3.49,0,0,1-1.08-2.53c0-1.14,1-2.54,3.14-4.17q2-1.39,5.61-4.47Q18.11,8.84,21,8.83c1.64,0,2.45.94,2.45,2.82a20.31,20.31,0,0,1-.22,2.51A22.52,22.52,0,0,0,23,16.67c0,.81.05,2,.13,3.66s.13,2.86.13,3.66q0,4.19-.88,12.45t-.88,12.42c0,1.41.1,3.14.3,5.16s.3,3.69.33,5L26,58.93a3.47,3.47,0,0,1,2.55,1,3.66,3.66,0,0,1,0,5A3.5,3.5,0,0,1,26,66Z"/><path d="M56.37,67.35q-11.13,0-16.26-10.18-3.88-7.83-3.88-20.4a33.67,33.67,0,0,1,5.05-18.53Q47.25,9,57.5,9a17,17,0,0,1,15,8.2q4.65,7.11,4.65,17.32,0,16.41-5.2,24.63T56.37,67.35Zm1.1-51.3q-6.81,0-10.8,6.92a25.92,25.92,0,0,0-3.34,13.22q0,12,3.26,18.09t9.78,6q7.77,0,11.13-8.86,2.34-6.15,2.35-15.6,0-9.93-3.1-14.87A10.22,10.22,0,0,0,57.47,16.05Z"/></svg>
