<svg id="Surfer" xmlns="http://www.w3.org/2000/svg" width="70" height="90" viewBox="0 0 70 90"><title>11</title><path d="M27,66H19.73l-7.25,0a13.28,13.28,0,0,1-3.59-.33A2.66,2.66,0,0,1,7,62.81c0-2.46,1.92-3.7,5.75-3.7l1.76,0,1.5.07c0-1.17-.1-2.9-.31-5.2s-.31-4-.31-5.16q0-4.65.84-14.14.81-9.33.77-14.17-4.9,3.81-6.26,3.81a3.47,3.47,0,0,1-2.55-1.1,3.49,3.49,0,0,1-1.08-2.53c0-1.14,1-2.54,3.15-4.17q2-1.39,5.6-4.47Q19.11,8.84,22,8.83c1.63,0,2.45.94,2.45,2.82a20.31,20.31,0,0,1-.22,2.51,20.31,20.31,0,0,0-.22,2.51c0,.81,0,2,.13,3.66s.13,2.86.13,3.66q0,4.19-.88,12.45t-.88,12.42c0,1.41.1,3.14.29,5.16s.31,3.69.33,5L27,58.93a3.45,3.45,0,0,1,2.54,1,3.64,3.64,0,0,1,0,5A3.48,3.48,0,0,1,27,66Z"/><path d="M60.78,66H53.49l-7.25,0a13.33,13.33,0,0,1-3.59-.33,2.66,2.66,0,0,1-1.86-2.78c0-2.46,1.91-3.7,5.75-3.7l1.75,0,1.5.07c0-1.17-.1-2.9-.31-5.2s-.31-4-.31-5.16q0-4.65.84-14.14.81-9.33.77-14.17-4.91,3.81-6.26,3.81A3.45,3.45,0,0,1,42,23.26a3.49,3.49,0,0,1-1.08-2.53c0-1.14,1.05-2.54,3.15-4.17q2-1.39,5.6-4.47,3.23-3.25,6.15-3.26c1.64,0,2.45.94,2.45,2.82A20.31,20.31,0,0,1,58,14.16a22.52,22.52,0,0,0-.22,2.51c0,.81,0,2,.13,3.66s.13,2.86.13,3.66q0,4.19-.88,12.45t-.88,12.42c0,1.41.1,3.14.3,5.16s.3,3.69.33,5l3.84-.07a3.47,3.47,0,0,1,2.55,1,3.66,3.66,0,0,1,0,5A3.5,3.5,0,0,1,60.78,66Z"/></svg>
