<svg id="Surfer" xmlns="http://www.w3.org/2000/svg" width="80" height="90" viewBox="0 0 80 90"><title>12</title><path d="M26,66H18.72l-7.25,0a12.93,12.93,0,0,1-3.59-.33A2.65,2.65,0,0,1,6,62.81c0-2.46,1.91-3.7,5.75-3.7l1.75,0,1.5.07c0-1.17-.1-2.9-.31-5.2s-.31-4-.31-5.16q0-4.65.84-14.14Q16,25.39,16,20.55q-4.91,3.81-6.26,3.81a3.45,3.45,0,0,1-2.54-1.1,3.49,3.49,0,0,1-1.08-2.53c0-1.14,1-2.53,3.14-4.17q2-1.39,5.61-4.47Q18.11,8.84,21,8.83c1.64,0,2.45.94,2.45,2.82a20.31,20.31,0,0,1-.22,2.51A22.52,22.52,0,0,0,23,16.67c0,.81.05,2,.13,3.66s.13,2.86.13,3.66q0,4.19-.88,12.45t-.88,12.42q0,2.13.3,5.16t.33,5L26,58.93a3.47,3.47,0,0,1,2.55,1,3.66,3.66,0,0,1,0,5A3.5,3.5,0,0,1,26,66Z"/><path d="M70.91,66a8.66,8.66,0,0,1-2.58-.57,8.64,8.64,0,0,0-2.55-.57c-1.24,0-3.11.08-5.6.22s-4.37.22-5.64.22a34.64,34.64,0,0,0-4.23.37,36.3,36.3,0,0,1-4.23.36,6.39,6.39,0,0,1-1.17-.14,6.82,6.82,0,0,0-1.17-.15,3.18,3.18,0,0,1-3.3-2.45,15.34,15.34,0,0,1-.44-4.4q0-8.52,4.65-13.73,2.13-2.38,11.46-8.79a40.87,40.87,0,0,0,7-5.6,12,12,0,0,0,3.15-8.24c0-1.56-1-3-3-4.18A9.93,9.93,0,0,0,58,16.71a11.67,11.67,0,0,0-6.41,1.94l-5.23,4.1A4.65,4.65,0,0,1,43.81,24C41.29,24,40,23,40,21a3.85,3.85,0,0,1,1.39-3,41.79,41.79,0,0,1,7.43-5.82,18.35,18.35,0,0,1,19.7.7c3.47,2.41,5.2,5.52,5.2,9.3a21.35,21.35,0,0,1-1.06,6.88,17.86,17.86,0,0,1-3.22,5.75q-2.74,3.3-9.3,7.36-6.88,4.34-9,6.56a13.9,13.9,0,0,0-4,10.22l7.55-.7q7.76-.44,11.09-.44a14.7,14.7,0,0,1,5.27,1c2.2.86,3.3,2,3.3,3.56a3.71,3.71,0,0,1-1,2.54A3.13,3.13,0,0,1,70.91,66Z"/></svg>
