<svg id="Surfer" xmlns="http://www.w3.org/2000/svg" width="80" height="90" viewBox="0 0 80 90"><title>13</title><path d="M26,66H18.72l-7.25,0a12.93,12.93,0,0,1-3.59-.33A2.65,2.65,0,0,1,6,62.81c0-2.46,1.91-3.7,5.75-3.7l1.75,0,1.5.07c0-1.17-.1-2.9-.31-5.2s-.31-4-.31-5.16q0-4.65.84-14.14Q16,25.39,16,20.55q-4.91,3.81-6.26,3.81a3.45,3.45,0,0,1-2.54-1.1,3.49,3.49,0,0,1-1.08-2.53c0-1.14,1-2.53,3.14-4.17q2-1.39,5.61-4.47Q18.11,8.84,21,8.83c1.64,0,2.45.94,2.45,2.82a20.31,20.31,0,0,1-.22,2.51A22.52,22.52,0,0,0,23,16.67c0,.81.05,2,.13,3.66s.13,2.86.13,3.66q0,4.19-.88,12.45t-.88,12.42q0,2.13.3,5.16t.33,5L26,58.93a3.47,3.47,0,0,1,2.55,1,3.66,3.66,0,0,1,0,5A3.5,3.5,0,0,1,26,66Z"/><path d="M56.15,67.61a21,21,0,0,1-9.92-2.31,13.56,13.56,0,0,1-6.67-7.51,3.87,3.87,0,0,1-.22-1.28,3.07,3.07,0,0,1,1.12-2.43,3.78,3.78,0,0,1,2.58-1,3.14,3.14,0,0,1,2.53,1.35L47.25,57a8,8,0,0,0,3.55,2.69,14.29,14.29,0,0,0,5.35.9,10.62,10.62,0,0,0,7-2.49,8.07,8.07,0,0,0,3.19-6.45,10.76,10.76,0,0,0-4.06-8.82,17.93,17.93,0,0,0-9.53-3.48q-4.07-.41-4.06-3.3,0-2.16,3.19-3.29l8.75-2.17a8.54,8.54,0,0,0,3.81-2.47,5.9,5.9,0,0,0,1.31-3.79,6.06,6.06,0,0,0-2.49-5.2c-1.78-1.36-4.28-2.05-7.5-2.05a10.54,10.54,0,0,0-4.84,1.21l-4.14,2.6a4,4,0,0,1-1.94.77,3.28,3.28,0,0,1-2.5-1.12,3.6,3.6,0,0,1-1-2.54q0-2.89,5.6-5.57Q51.76,10,54.9,10q7.88,0,12.49,3.48,5,3.74,5,10.66,0,8.59-7,11.35c-.42.17-.89.34-1.43.51a14.54,14.54,0,0,1,7.29,5.37,15.55,15.55,0,0,1,2.41,8.91,16.55,16.55,0,0,1-5.09,12.25A17,17,0,0,1,56.15,67.61Z"/></svg>
