<svg id="Surfer" xmlns="http://www.w3.org/2000/svg" width="80" height="90" viewBox="0 0 80 90"><title>15</title><path d="M26,66H18.72l-7.25,0a13.33,13.33,0,0,1-3.59-.33A2.66,2.66,0,0,1,6,62.81c0-2.46,1.91-3.7,5.75-3.7l1.75,0,1.5.07c0-1.17-.1-2.9-.31-5.2s-.31-4-.31-5.16q0-4.65.84-14.14Q16,25.39,16,20.55q-4.91,3.81-6.26,3.81a3.45,3.45,0,0,1-2.54-1.1,3.49,3.49,0,0,1-1.08-2.53c0-1.14,1-2.54,3.14-4.17q2-1.39,5.61-4.47Q18.11,8.84,21,8.83c1.64,0,2.45.94,2.45,2.82a20.31,20.31,0,0,1-.22,2.51A22.52,22.52,0,0,0,23,16.67c0,.81.05,2,.13,3.66s.13,2.86.13,3.66q0,4.19-.88,12.45t-.88,12.42c0,1.41.1,3.14.3,5.16s.3,3.69.33,5L26,58.93a3.47,3.47,0,0,1,2.55,1,3.66,3.66,0,0,1,0,5A3.5,3.5,0,0,1,26,66Z"/><path d="M54.58,68.23q-10.41,0-15.31-7.69a3.89,3.89,0,0,1-.66-2A3.26,3.26,0,0,1,39.74,56a3.67,3.67,0,0,1,2.57-1,3.76,3.76,0,0,1,2.85,1.61,17.22,17.22,0,0,0,2.93,3,11.48,11.48,0,0,0,6.49,1.61,13.32,13.32,0,0,0,10.51-4.83,16.41,16.41,0,0,0,4-11.1,18.62,18.62,0,0,0-1.76-8.68,7.45,7.45,0,0,0-7-4.21,16.41,16.41,0,0,0-6.4,1.06,12.91,12.91,0,0,0-4,2.89l-4,4.36a4.64,4.64,0,0,1-3.29,1.65,3.37,3.37,0,0,1-2.49-1,3.43,3.43,0,0,1-1-2.51q0-.74.59-6.52Q41,20.73,41,17.11a7.17,7.17,0,0,0-.64-2.8,6.63,6.63,0,0,1-.64-2.25q0-2.24,3.85-2.24c.48,0,1.22,0,2.21.13s1.73.13,2.22.13c1.41,0,3.54-.05,6.37-.15s5-.15,6.37-.15c.66,0,1.66,0,3,.08s2.35.07,3,.07a10.92,10.92,0,0,0,2-.27,10.24,10.24,0,0,1,2-.28,3.59,3.59,0,0,1,2.53,1.06,3.33,3.33,0,0,1,1.09,2.46q0,4.1-8.68,4.1c-.75,0-1.7,0-2.85-.07l-2.09-.08L54.5,17l-6.19.19q0,1.63-1.35,12.19,5-4,13.36-4,8.07,0,12.31,6.3Q76.22,37,76.22,45.27q0,9.88-5.79,16.3Q64.43,68.23,54.58,68.23Z"/></svg>
