<svg id="Surfer" xmlns="http://www.w3.org/2000/svg" width="80" height="90" viewBox="0 0 80 90"><title>16</title><path d="M26,66H18.72l-7.25,0a13.33,13.33,0,0,1-3.59-.33A2.66,2.66,0,0,1,6,62.81c0-2.46,1.91-3.7,5.75-3.7l1.75,0,1.5.07c0-1.17-.1-2.9-.31-5.2s-.31-4-.31-5.16q0-4.65.84-14.14Q16,25.39,16,20.55q-4.91,3.81-6.26,3.81a3.45,3.45,0,0,1-2.54-1.1,3.49,3.49,0,0,1-1.08-2.53c0-1.14,1-2.54,3.14-4.17q2-1.39,5.61-4.47Q18.11,8.84,21,8.83c1.64,0,2.45.94,2.45,2.82a20.31,20.31,0,0,1-.22,2.51A22.52,22.52,0,0,0,23,16.67c0,.81.05,2,.13,3.66s.13,2.86.13,3.66q0,4.19-.88,12.45t-.88,12.42c0,1.41.1,3.14.3,5.16s.3,3.69.33,5L26,58.93a3.47,3.47,0,0,1,2.55,1,3.66,3.66,0,0,1,0,5A3.5,3.5,0,0,1,26,66Z"/><path d="M55.86,68.56q-9.57,0-14.07-7-3.74-5.76-3.73-15.35,0-18.09,14.68-31.38l3.45-3.48Q58.71,8.95,60,8.94A3.59,3.59,0,0,1,62.56,10a3.4,3.4,0,0,1,1.13,2.47c.05.88-1.19,2.57-3.73,5.09l-7.47,7.29a24,24,0,0,0-5.09,9.08A42.54,42.54,0,0,1,53,31.74,14.2,14.2,0,0,1,56.88,31Q65.46,31,70,35.6t4.58,12.93q0,8.74-5,14.28Q64.5,68.56,55.86,68.56Zm0-30.07a13.88,13.88,0,0,0-5.64,1.1q-1,.45-4.8,2.82a33.21,33.21,0,0,0-.22,3.81,22.71,22.71,0,0,0,2.2,10.7,9.19,9.19,0,0,0,8.68,5.27,10.19,10.19,0,0,0,8.57-4q2.82-3.66,2.82-9.7,0-5-2.9-7.53T55.86,38.49Z"/></svg>
