<svg id="Surfer" xmlns="http://www.w3.org/2000/svg" width="45.78" height="88.65" viewBox="0 0 45.78 88.65"><defs><style>.cls-1{fill:#ed1c24;}</style></defs><title>2</title><path class="cls-1" d="M36.91,65.32a8.91,8.91,0,0,1-2.58-.56,8.65,8.65,0,0,0-2.54-.57c-1.25,0-3.12.07-5.61.22s-4.37.22-5.64.22a36.3,36.3,0,0,0-4.23.36,34.33,34.33,0,0,1-4.23.37,6.82,6.82,0,0,1-1.17-.15,7.43,7.43,0,0,0-1.17-.14,3.17,3.17,0,0,1-3.29-2.46A14.9,14.9,0,0,1,6,58.22q0-8.53,4.65-13.73,2.12-2.39,11.46-8.79a40.61,40.61,0,0,0,7-5.61,12,12,0,0,0,3.15-8.24q0-2.34-3-4.17A9.92,9.92,0,0,0,24,16,11.73,11.73,0,0,0,17.58,18l-5.24,4.1a4.65,4.65,0,0,1-2.53,1.25q-3.77,0-3.77-3a3.88,3.88,0,0,1,1.39-3,41.23,41.23,0,0,1,7.44-5.82,18.38,18.38,0,0,1,19.7.69q5.2,3.63,5.2,9.3a21.41,21.41,0,0,1-1.06,6.89,17.86,17.86,0,0,1-3.22,5.75q-2.76,3.3-9.31,7.36-6.88,4.32-9,6.55a13.92,13.92,0,0,0-4,10.22l7.54-.69c5.18-.3,8.88-.44,11.1-.44a14.53,14.53,0,0,1,5.27,1c2.2.85,3.3,2,3.3,3.55a3.76,3.76,0,0,1-1,2.55A3.16,3.16,0,0,1,36.91,65.32Z"/></svg>
