<svg id="Surfer" xmlns="http://www.w3.org/2000/svg" width="100" height="90" viewBox="0 0 100 90"><title>24</title><path d="M41.14,66a8.66,8.66,0,0,1-2.58-.57A8.7,8.7,0,0,0,36,64.86c-1.24,0-3.11.08-5.6.22s-4.37.22-5.64.22a34.64,34.64,0,0,0-4.23.37,36.3,36.3,0,0,1-4.23.36,7.43,7.43,0,0,1-1.17-.14A6.79,6.79,0,0,0,14,65.74a3.17,3.17,0,0,1-3.29-2.45,15.34,15.34,0,0,1-.44-4.4q0-8.53,4.65-13.73Q17,42.78,26.34,36.37a40.87,40.87,0,0,0,7-5.6,12,12,0,0,0,3.15-8.24c0-1.56-1-3-3-4.18a9.93,9.93,0,0,0-5.24-1.64,11.67,11.67,0,0,0-6.41,1.94l-5.24,4.1A4.6,4.6,0,0,1,14,24c-2.52,0-3.77-1-3.77-3a3.85,3.85,0,0,1,1.39-3,41.79,41.79,0,0,1,7.43-5.82,18.35,18.35,0,0,1,19.7.7Q44,16.52,44,22.2a21.35,21.35,0,0,1-1.06,6.88,17.86,17.86,0,0,1-3.22,5.75q-2.74,3.3-9.3,7.36-6.89,4.32-9,6.56a13.9,13.9,0,0,0-4,10.22l7.54-.7q7.77-.44,11.1-.44a14.7,14.7,0,0,1,5.27,1c2.2.86,3.3,2,3.3,3.56a3.71,3.71,0,0,1-1,2.54A3.13,3.13,0,0,1,41.14,66Z"/><path d="M85.3,49.92V63.47q0,3.41-3.33,3.41-3.89,0-3.88-5.31c0-.44,0-1.07.07-1.87s.07-1.36.07-1.65l0-8.31-16.15-.41a49,49,0,0,1-7-.32q-3.33-.55-3.33-2.61c0-1.09.67-2.49,2-4.17l3.15-3.74,18-26.29a7.38,7.38,0,0,1,6.22-3.4q4.14,0,4.14,3.58V42.82c.42,0,.92,0,1.5,0,4.5,0,6.74,1.21,6.74,3.62a3.22,3.22,0,0,1-2.78,3.34A24,24,0,0,1,85.3,49.92Zm-7.1-31Q68.42,34.54,62.93,42.3l15.27.37Z"/></svg>
