<svg id="Surfer" xmlns="http://www.w3.org/2000/svg" width="45.78" height="88.65" viewBox="0 0 45.78 88.65"><defs><style>.cls-1{fill:#ed1c24;}</style></defs><title>3</title><path class="cls-1" d="M22.16,66.93a21,21,0,0,1-9.93-2.3,13.57,13.57,0,0,1-6.66-7.51,4,4,0,0,1-.22-1.28A3.11,3.11,0,0,1,6.46,53.4a3.88,3.88,0,0,1,2.59-1,3.12,3.12,0,0,1,2.52,1.36l1.69,2.52A8,8,0,0,0,16.81,59a14.51,14.51,0,0,0,5.35.89,10.62,10.62,0,0,0,7-2.49A8.07,8.07,0,0,0,32.34,51a10.79,10.79,0,0,0-4.07-8.83,18,18,0,0,0-9.52-3.48c-2.71-.27-4.06-1.36-4.06-3.29q0-2.16,3.18-3.3l8.75-2.16a8.51,8.51,0,0,0,3.81-2.47,5.88,5.88,0,0,0,1.32-3.79,6.06,6.06,0,0,0-2.49-5.2q-2.67-2.06-7.51-2.05a10.35,10.35,0,0,0-4.83,1.21l-4.14,2.6a4,4,0,0,1-1.94.76,3.33,3.33,0,0,1-2.51-1.11,3.65,3.65,0,0,1-1-2.55q0-2.89,5.6-5.56,4.88-2.38,8-2.38,7.88,0,12.49,3.48,4.93,3.74,4.94,10.65,0,8.61-7,11.35a15,15,0,0,1-1.42.52,14.48,14.48,0,0,1,7.28,5.36,15.56,15.56,0,0,1,2.42,8.92A16.6,16.6,0,0,1,34.57,61.9,17,17,0,0,1,22.16,66.93Z"/></svg>
