<svg id="Surfer" xmlns="http://www.w3.org/2000/svg" width="50" height="90" viewBox="0 0 50 90"><title>4</title><path d="M37.41,49.92V63.47q0,3.41-3.33,3.41-3.88,0-3.88-5.31c0-.44,0-1.07.07-1.87s.08-1.36.08-1.65l0-8.31-16.15-.41a49.13,49.13,0,0,1-7-.32c-2.22-.37-3.33-1.24-3.33-2.6q0-1.65,2-4.18L9,38.5l18-26.3a7.4,7.4,0,0,1,6.23-3.4c2.76,0,4.13,1.19,4.13,3.58V42.82c.42,0,.92,0,1.51,0q6.73,0,6.73,3.63a3.21,3.21,0,0,1-2.78,3.33A24,24,0,0,1,37.41,49.92Zm-7.1-31Q20.53,34.54,15,42.3l15.27.37Z"/></svg>
