<svg id="Surfer" xmlns="http://www.w3.org/2000/svg" width="50" height="90" viewBox="0 0 50 90"><title>5</title><path d="M22.69,68.23q-10.4,0-15.3-7.69a3.89,3.89,0,0,1-.66-2A3.23,3.23,0,0,1,7.86,56a3.67,3.67,0,0,1,2.56-1,3.76,3.76,0,0,1,2.86,1.61,17.22,17.22,0,0,0,2.93,3,11.46,11.46,0,0,0,6.48,1.61A13.29,13.29,0,0,0,33.2,56.37a16.41,16.41,0,0,0,4-11.1,18.63,18.63,0,0,0-1.75-8.68,7.46,7.46,0,0,0-7-4.21A16.46,16.46,0,0,0,22,33.44a12.88,12.88,0,0,0-4,2.89l-4,4.36a4.65,4.65,0,0,1-3.3,1.65,3.4,3.4,0,0,1-2.49-1,3.47,3.47,0,0,1-1-2.51q0-.74.58-6.52Q9.07,20.73,9.07,17.11a7.17,7.17,0,0,0-.64-2.8,6.63,6.63,0,0,1-.64-2.25q0-2.24,3.84-2.24c.49,0,1.23,0,2.22.13s1.73.13,2.21.13c1.42,0,3.54-.05,6.38-.15s4.95-.15,6.37-.15c.66,0,1.66,0,3,.08s2.35.07,3,.07a10.9,10.9,0,0,0,2-.27,10.24,10.24,0,0,1,2-.28,3.55,3.55,0,0,1,2.52,1.06,3.3,3.3,0,0,1,1.1,2.46q0,4.1-8.68,4.1C33,17,32,17,30.9,16.93l-2.09-.08L22.62,17l-6.19.19q0,1.63-1.35,12.19,5-4,13.36-4,8.06,0,12.31,6.3Q44.34,37,44.34,45.27q0,9.88-5.79,16.3Q32.55,68.23,22.69,68.23Z"/></svg>
