<svg id="Surfer" xmlns="http://www.w3.org/2000/svg" width="50" height="90" viewBox="0 0 50 90"><title>7</title><path d="M44.37,18.1,41,22a67.21,67.21,0,0,0-8.75,13.48L25.62,50.07c-.46,1.07-1.49,3.89-3.07,8.46A43.92,43.92,0,0,1,19,66.62a3.22,3.22,0,0,1-2.93,1.72,3.73,3.73,0,0,1-2.58-1,3.25,3.25,0,0,1-1.11-2.46c0-.92.78-3.31,2.34-7.14L23,37.54q5.46-12,11.21-18.45l.69-.77L16.47,18l-8.24-.22q-3.55-.33-3.55-3.51a3.37,3.37,0,0,1,1-2.53,3.54,3.54,0,0,1,2.56-1q4.62,0,13.87.29t13.86.3h6.7q3.89,0,3.88,2.3Q46.57,15.32,44.37,18.1Z"/></svg>
