<svg id="Surfer" xmlns="http://www.w3.org/2000/svg" width="50" height="90" viewBox="0 0 50 90"><title>8</title><path d="M24.6,67.9q-7.73,0-12.49-3.37Q6.7,60.72,6.58,53.36q-.15-11.82,8.31-16.11Q8.38,33.29,8.37,26a14.92,14.92,0,0,1,5-11.5A16.92,16.92,0,0,1,25,10q15.38-.15,15.38,15.2A11.23,11.23,0,0,1,38.66,32c-.95,1.32-2.8,2.68-5.53,4.07q5.46,2.74,7.65,5.93,2.56,3.74,2.57,10.29A14,14,0,0,1,37.82,64Q32.69,67.91,24.6,67.9Zm-.33-28.12c-3.88,1.8-6.47,3.37-7.77,4.68-2,2-3,4.89-2.85,8.57a7.65,7.65,0,0,0,4.21,6.85,13.82,13.82,0,0,0,6.74,1.61q6.43,0,9-3c1.36-1.61,2-4.05,2-7.32a9.36,9.36,0,0,0-3.74-7.73A23.53,23.53,0,0,0,24.27,39.78Zm.66-23.18q-4.72,0-7.22,2.67A9.56,9.56,0,0,0,15.52,26q0,5.13,8.42,7.29a24,24,0,0,0,6.3-2.57,6.33,6.33,0,0,0,3-5.49q0-5-2.24-7Q29.14,16.6,24.93,16.6Z"/></svg>
