<svg id="Surfer" xmlns="http://www.w3.org/2000/svg" width="45.78" height="88.65" viewBox="0 0 45.78 88.65"><title>9</title><path d="M28.71,60.82a54.63,54.63,0,0,1-8.57,4.76Q13.59,68.73,11,68.73a3.16,3.16,0,0,1-2.47-1.1,3.74,3.74,0,0,1-1-2.56c0-1.44.83-2.53,2.49-3.26l6.12-2.09a30.2,30.2,0,0,0,9-5.31,28.08,28.08,0,0,0,6-8.53l1.58-3.15a26.7,26.7,0,0,1-5.27,2.16,18.81,18.81,0,0,1-5.24,1,19.18,19.18,0,0,1-12-3.85Q4.1,37.35,4.1,28.7q0-10.21,6.3-15.34Q15.79,9,24.54,9q6.74,0,12.08,5.49A19.66,19.66,0,0,1,42.3,28.56a48,48,0,0,1-3.45,18.05Q35.11,56.06,28.71,60.82Zm-5.2-45.56q-6.15,0-9.25,3.19T11.13,28a10,10,0,0,0,3.77,8.35A13.21,13.21,0,0,0,23.29,39a12.63,12.63,0,0,0,6.12-1.76,57.37,57.37,0,0,0,5.27-3.62,35.85,35.85,0,0,0,.48-5.05c0-3.06-1.32-6-3.87-8.94S26.15,15.26,23.51,15.26Z"/></svg>
