<svg id="Surfer" xmlns="http://www.w3.org/2000/svg" width="80" height="90" viewBox="0 0 80 90"><title>Artboard 68</title><path d="M37.14,66a8.66,8.66,0,0,1-2.58-.57A8.65,8.65,0,0,0,32,64.86c-1.25,0-3.12.08-5.61.22s-4.37.22-5.64.22a34.64,34.64,0,0,0-4.23.37,36,36,0,0,1-4.23.36,7.7,7.7,0,0,1-1.17-.14A6.6,6.6,0,0,0,10,65.74a3.19,3.19,0,0,1-3.3-2.45,15.43,15.43,0,0,1-.43-4.4q0-8.53,4.65-13.73Q13,42.78,22.35,36.37a40.69,40.69,0,0,0,7-5.6,12,12,0,0,0,3.15-8.24c0-1.56-1-3-3-4.18a9.93,9.93,0,0,0-5.23-1.64,11.65,11.65,0,0,0-6.41,1.94l-5.24,4.1A4.62,4.62,0,0,1,10,24q-3.76,0-3.77-3a3.88,3.88,0,0,1,1.39-3A42.17,42.17,0,0,1,15.1,12.2a18.35,18.35,0,0,1,19.7.7Q40,16.52,40,22.2a21.35,21.35,0,0,1-1.06,6.88,17.86,17.86,0,0,1-3.22,5.75q-2.76,3.3-9.31,7.36-6.89,4.32-9,6.56a13.9,13.9,0,0,0-4,10.22l7.54-.7c5.18-.29,8.87-.44,11.1-.44a14.74,14.74,0,0,1,5.27,1c2.2.86,3.3,2,3.3,3.56a3.71,3.71,0,0,1-1,2.54A3.14,3.14,0,0,1,37.14,66Z"/><path d="M71.79,66H64.5l-7.25,0a13.28,13.28,0,0,1-3.59-.33,2.66,2.66,0,0,1-1.87-2.78c0-2.46,1.92-3.7,5.75-3.7l1.76,0,1.5.07c0-1.17-.1-2.9-.31-5.2s-.31-4-.31-5.16q0-4.65.84-14.14.81-9.33.77-14.17-4.9,3.81-6.26,3.81a3.73,3.73,0,0,1-3.63-3.63c0-1.14,1.05-2.54,3.15-4.17q2-1.39,5.6-4.47,3.23-3.25,6.16-3.26c1.63,0,2.45.94,2.45,2.82A20.31,20.31,0,0,1,69,14.16a20.31,20.31,0,0,0-.22,2.51c0,.81,0,2,.13,3.66s.13,2.86.13,3.66q0,4.19-.88,12.45t-.88,12.42c0,1.41.1,3.14.29,5.16s.31,3.69.33,5l3.85-.07a3.45,3.45,0,0,1,2.54,1,3.64,3.64,0,0,1,0,5A3.48,3.48,0,0,1,71.79,66Z"/></svg>