<svg id="Surfer" xmlns="http://www.w3.org/2000/svg" width="100" height="90" viewBox="0 0 100 90"><title>Artboard 61</title><path d="M41.14,66a8.66,8.66,0,0,1-2.58-.57A8.7,8.7,0,0,0,36,64.86c-1.24,0-3.11.08-5.6.22s-4.37.22-5.64.22a34.64,34.64,0,0,0-4.23.37,36.3,36.3,0,0,1-4.23.36,7.43,7.43,0,0,1-1.17-.14A6.79,6.79,0,0,0,14,65.74a3.17,3.17,0,0,1-3.29-2.45,15.34,15.34,0,0,1-.44-4.4q0-8.53,4.65-13.73Q17,42.78,26.34,36.37a40.87,40.87,0,0,0,7-5.6,12,12,0,0,0,3.15-8.24c0-1.56-1-3-3-4.18a9.93,9.93,0,0,0-5.24-1.64,11.67,11.67,0,0,0-6.41,1.94l-5.24,4.1A4.6,4.6,0,0,1,14,24c-2.52,0-3.77-1-3.77-3a3.85,3.85,0,0,1,1.39-3,41.79,41.79,0,0,1,7.43-5.82,18.35,18.35,0,0,1,19.7.7Q44,16.52,44,22.2a21.35,21.35,0,0,1-1.06,6.88,17.86,17.86,0,0,1-3.22,5.75q-2.74,3.3-9.3,7.36-6.89,4.32-9,6.56a13.9,13.9,0,0,0-4,10.22l7.54-.7q7.77-.44,11.1-.44a14.7,14.7,0,0,1,5.27,1c2.2.86,3.3,2,3.3,3.56a3.71,3.71,0,0,1-1,2.54A3.13,3.13,0,0,1,41.14,66Z"/><path d="M70.58,68.23q-10.39,0-15.31-7.69a3.89,3.89,0,0,1-.66-2A3.24,3.24,0,0,1,55.75,56a3.67,3.67,0,0,1,2.56-1,3.78,3.78,0,0,1,2.86,1.61,16.86,16.86,0,0,0,2.93,3,11.46,11.46,0,0,0,6.48,1.61,13.31,13.31,0,0,0,10.51-4.83,16.41,16.41,0,0,0,4-11.1,18.63,18.63,0,0,0-1.75-8.68,7.46,7.46,0,0,0-7-4.21,16.46,16.46,0,0,0-6.41,1.06,12.77,12.77,0,0,0-4,2.89l-4,4.36a4.66,4.66,0,0,1-3.3,1.65,3.4,3.4,0,0,1-2.49-1,3.47,3.47,0,0,1-1-2.51q0-.74.58-6.52Q57,20.73,57,17.11a7.36,7.36,0,0,0-.64-2.8,6.63,6.63,0,0,1-.64-2.25q0-2.24,3.84-2.24c.49,0,1.23,0,2.22.13s1.72.13,2.21.13q2.13,0,6.37-.15c2.84-.1,5-.15,6.38-.15.66,0,1.66,0,3,.08s2.34.07,3,.07a10.9,10.9,0,0,0,2-.27,10.17,10.17,0,0,1,2-.28,3.55,3.55,0,0,1,2.53,1.06,3.34,3.34,0,0,1,1.1,2.46q0,4.1-8.68,4.1c-.76,0-1.71,0-2.86-.07l-2.08-.08L70.51,17l-6.19.19q0,1.63-1.36,12.19,5-4,13.37-4,8.06,0,12.31,6.3Q92.23,37,92.22,45.27q0,9.88-5.78,16.3Q80.43,68.23,70.58,68.23Z"/></svg>