<svg id="Surfer" xmlns="http://www.w3.org/2000/svg" width="80" height="90" viewBox="0 0 80 90"><title>Artboard 66</title><path d="M26,66H18.72l-7.25,0a13.33,13.33,0,0,1-3.59-.33A2.66,2.66,0,0,1,6,62.81c0-2.46,1.91-3.7,5.75-3.7l1.75,0,1.5.07c0-1.17-.1-2.9-.31-5.2s-.31-4-.31-5.16q0-4.65.84-14.14Q16,25.39,16,20.55q-4.91,3.81-6.26,3.81a3.45,3.45,0,0,1-2.54-1.1,3.49,3.49,0,0,1-1.08-2.53c0-1.14,1-2.54,3.14-4.17q2-1.39,5.61-4.47Q18.11,8.84,21,8.83c1.64,0,2.45.94,2.45,2.82a20.31,20.31,0,0,1-.22,2.51A22.52,22.52,0,0,0,23,16.67c0,.81.05,2,.13,3.66s.13,2.86.13,3.66q0,4.19-.88,12.45t-.88,12.42c0,1.41.1,3.14.3,5.16s.3,3.69.33,5L26,58.93a3.47,3.47,0,0,1,2.55,1,3.66,3.66,0,0,1,0,5A3.5,3.5,0,0,1,26,66Z"/><path d="M56.48,67.9q-7.73,0-12.49-3.37-5.41-3.81-5.53-11.17-.15-11.82,8.31-16.11-6.51-4-6.51-11.24a14.91,14.91,0,0,1,5-11.5A16.92,16.92,0,0,1,56.92,10Q72.3,9.89,72.3,25.24A11.23,11.23,0,0,1,70.54,32Q69.12,34,65,36.08q5.46,2.74,7.66,5.93,2.55,3.74,2.56,10.29A14,14,0,0,1,69.7,64Q64.57,67.91,56.48,67.9Zm-.33-28.12c-3.88,1.8-6.47,3.37-7.76,4.68q-3,3-2.86,8.57a7.67,7.67,0,0,0,4.21,6.85,13.82,13.82,0,0,0,6.74,1.61q6.45,0,9-3,2.06-2.41,2.05-7.32A9.36,9.36,0,0,0,63.8,43.4,23.53,23.53,0,0,0,56.15,39.78Zm.66-23.18q-4.73,0-7.22,2.67A9.61,9.61,0,0,0,47.4,26c0,3.42,2.83,5.84,8.42,7.29a24,24,0,0,0,6.3-2.57,6.32,6.32,0,0,0,3-5.49q0-5-2.24-7Q61,16.6,56.81,16.6Z"/></svg>