<svg id="Surfer" xmlns="http://www.w3.org/2000/svg" width="100" height="90" viewBox="0 0 100 90"><title>Artboard 60</title><path d="M41.14,66a8.66,8.66,0,0,1-2.58-.57A8.7,8.7,0,0,0,36,64.86c-1.24,0-3.11.08-5.6.22s-4.37.22-5.64.22a34.64,34.64,0,0,0-4.23.37,36.3,36.3,0,0,1-4.23.36,6.39,6.39,0,0,1-1.17-.14A6.79,6.79,0,0,0,14,65.74a3.17,3.17,0,0,1-3.29-2.45,15.34,15.34,0,0,1-.44-4.4q0-8.52,4.65-13.73Q17,42.78,26.34,36.37a40.87,40.87,0,0,0,7-5.6,12,12,0,0,0,3.15-8.24c0-1.56-1-3-3-4.18a9.93,9.93,0,0,0-5.24-1.64,11.67,11.67,0,0,0-6.41,1.94l-5.24,4.1A4.6,4.6,0,0,1,14,24c-2.52,0-3.77-1-3.77-3a3.85,3.85,0,0,1,1.39-3,41.79,41.79,0,0,1,7.43-5.82,18.35,18.35,0,0,1,19.7.7c3.47,2.41,5.2,5.52,5.2,9.3a21.35,21.35,0,0,1-1.06,6.88,17.86,17.86,0,0,1-3.22,5.75q-2.74,3.3-9.3,7.36-6.89,4.34-9,6.56a13.9,13.9,0,0,0-4,10.22l7.54-.7q7.77-.44,11.1-.44a14.7,14.7,0,0,1,5.27,1c2.2.86,3.3,2,3.3,3.56a3.71,3.71,0,0,1-1,2.54A3.13,3.13,0,0,1,41.14,66Z"/><path d="M72.49,67.9q-7.74,0-12.49-3.37-5.43-3.81-5.53-11.17-.15-11.82,8.31-16.11-6.51-4-6.52-11.24a14.88,14.88,0,0,1,5-11.5A16.91,16.91,0,0,1,72.92,10q15.39-.15,15.39,15.2A11.23,11.23,0,0,1,86.55,32c-1,1.32-2.8,2.68-5.53,4.07q5.46,2.74,7.65,5.93,2.56,3.74,2.57,10.29A14,14,0,0,1,85.71,64Q80.58,67.91,72.49,67.9Zm-.33-28.12c-3.89,1.8-6.47,3.37-7.77,4.68-2,2-3,4.89-2.85,8.57a7.65,7.65,0,0,0,4.21,6.85,13.79,13.79,0,0,0,6.74,1.61c4.29,0,7.3-1,9-3q2.06-2.41,2.05-7.32a9.35,9.35,0,0,0-3.73-7.73A23.53,23.53,0,0,0,72.16,39.78Zm.65-23.18c-3.14,0-5.55.89-7.21,2.67A9.61,9.61,0,0,0,63.4,26q0,5.13,8.43,7.29a23.78,23.78,0,0,0,6.29-2.57,6.31,6.31,0,0,0,3-5.49q0-5-2.23-7Q77,16.6,72.81,16.6Z"/></svg>