<svg id="Surfer" xmlns="http://www.w3.org/2000/svg" width="100" height="90" viewBox="0 0 100 90"><title>Artboard 71</title><path d="M41.14,66a8.66,8.66,0,0,1-2.58-.57A8.7,8.7,0,0,0,36,64.86c-1.24,0-3.11.08-5.6.22s-4.37.22-5.64.22a34.64,34.64,0,0,0-4.23.37,36.3,36.3,0,0,1-4.23.36,6.39,6.39,0,0,1-1.17-.14A6.79,6.79,0,0,0,14,65.74a3.17,3.17,0,0,1-3.29-2.45,15.34,15.34,0,0,1-.44-4.4q0-8.52,4.65-13.73Q17,42.78,26.34,36.37a40.87,40.87,0,0,0,7-5.6,12,12,0,0,0,3.15-8.24c0-1.56-1-3-3-4.18a9.93,9.93,0,0,0-5.24-1.64,11.67,11.67,0,0,0-6.41,1.94l-5.24,4.1A4.6,4.6,0,0,1,14,24c-2.52,0-3.77-1-3.77-3a3.85,3.85,0,0,1,1.39-3,41.79,41.79,0,0,1,7.43-5.82,18.35,18.35,0,0,1,19.7.7c3.47,2.41,5.2,5.52,5.2,9.3a21.35,21.35,0,0,1-1.06,6.88,17.86,17.86,0,0,1-3.22,5.75q-2.74,3.3-9.3,7.36-6.89,4.34-9,6.56a13.9,13.9,0,0,0-4,10.22l7.54-.7q7.77-.44,11.1-.44a14.7,14.7,0,0,1,5.27,1c2.2.86,3.3,2,3.3,3.56a3.71,3.71,0,0,1-1,2.54A3.13,3.13,0,0,1,41.14,66Z"/><path d="M72.16,67.61a21,21,0,0,1-9.93-2.31,13.54,13.54,0,0,1-6.66-7.51,3.87,3.87,0,0,1-.22-1.28,3.09,3.09,0,0,1,1.11-2.43,3.83,3.83,0,0,1,2.59-1,3.14,3.14,0,0,1,2.52,1.35L63.26,57a8,8,0,0,0,3.55,2.69,14.29,14.29,0,0,0,5.35.9,10.62,10.62,0,0,0,7-2.49,8.1,8.1,0,0,0,3.19-6.45,10.77,10.77,0,0,0-4.07-8.82,17.86,17.86,0,0,0-9.52-3.48q-4.06-.41-4.06-3.3,0-2.16,3.18-3.29l8.75-2.17a8.43,8.43,0,0,0,3.81-2.47,5.86,5.86,0,0,0,1.32-3.79,6.06,6.06,0,0,0-2.49-5.2c-1.78-1.36-4.28-2.05-7.51-2.05a10.47,10.47,0,0,0-4.83,1.21l-4.14,2.6a4,4,0,0,1-1.94.77,3.3,3.3,0,0,1-2.51-1.12,3.63,3.63,0,0,1-1-2.54q0-2.89,5.6-5.57,4.88-2.38,8-2.38,7.88,0,12.49,3.48,4.93,3.74,4.94,10.66,0,8.59-7,11.35c-.41.17-.89.34-1.42.51a14.55,14.55,0,0,1,7.28,5.37,15.55,15.55,0,0,1,2.42,8.91,16.58,16.58,0,0,1-5.09,12.25A17,17,0,0,1,72.16,67.61Z"/></svg>