<svg id="Surfer" xmlns="http://www.w3.org/2000/svg" width="100" height="90" viewBox="0 0 100 90"><title>Artboard 67</title><path d="M41.14,66a8.66,8.66,0,0,1-2.58-.57A8.7,8.7,0,0,0,36,64.86c-1.24,0-3.11.08-5.6.22s-4.37.22-5.64.22a34.64,34.64,0,0,0-4.23.37,36.3,36.3,0,0,1-4.23.36,6.39,6.39,0,0,1-1.17-.14A6.79,6.79,0,0,0,14,65.74a3.17,3.17,0,0,1-3.29-2.45,15.34,15.34,0,0,1-.44-4.4q0-8.52,4.65-13.73Q17,42.78,26.34,36.37a40.87,40.87,0,0,0,7-5.6,12,12,0,0,0,3.15-8.24c0-1.56-1-3-3-4.18a9.93,9.93,0,0,0-5.24-1.64,11.67,11.67,0,0,0-6.41,1.94l-5.24,4.1A4.6,4.6,0,0,1,14,24c-2.52,0-3.77-1-3.77-3a3.85,3.85,0,0,1,1.39-3,41.79,41.79,0,0,1,7.43-5.82,18.35,18.35,0,0,1,19.7.7c3.47,2.41,5.2,5.52,5.2,9.3a21.35,21.35,0,0,1-1.06,6.88,17.86,17.86,0,0,1-3.22,5.75q-2.74,3.3-9.3,7.36-6.89,4.34-9,6.56a13.9,13.9,0,0,0-4,10.22l7.54-.7q7.77-.44,11.1-.44a14.7,14.7,0,0,1,5.27,1c2.2.86,3.3,2,3.3,3.56a3.71,3.71,0,0,1-1,2.54A3.13,3.13,0,0,1,41.14,66Z"/><path d="M86.91,66a8.66,8.66,0,0,1-2.58-.57,8.65,8.65,0,0,0-2.54-.57c-1.25,0-3.12.08-5.61.22s-4.37.22-5.64.22a34.64,34.64,0,0,0-4.23.37,36,36,0,0,1-4.23.36,6.58,6.58,0,0,1-1.17-.14,6.6,6.6,0,0,0-1.17-.15,3.17,3.17,0,0,1-3.29-2.45,15,15,0,0,1-.44-4.4q0-8.52,4.65-13.73,2.12-2.38,11.46-8.79a40.69,40.69,0,0,0,7-5.6,12,12,0,0,0,3.15-8.24q0-2.34-3-4.18A9.9,9.9,0,0,0,74,16.71a11.65,11.65,0,0,0-6.41,1.94l-5.24,4.1A4.62,4.62,0,0,1,59.81,24Q56,24,56,21a3.88,3.88,0,0,1,1.39-3,42.17,42.17,0,0,1,7.44-5.82,18.35,18.35,0,0,1,19.7.7c3.47,2.41,5.2,5.52,5.2,9.3a21.35,21.35,0,0,1-1.06,6.88,17.86,17.86,0,0,1-3.22,5.75q-2.76,3.3-9.31,7.36-6.89,4.34-9,6.56a13.9,13.9,0,0,0-4,10.22l7.54-.7q7.77-.44,11.1-.44a14.74,14.74,0,0,1,5.27,1c2.2.86,3.3,2,3.3,3.56a3.71,3.71,0,0,1-1,2.54A3.14,3.14,0,0,1,86.91,66Z"/></svg>