<svg id="Surfer" xmlns="http://www.w3.org/2000/svg" width="100" height="90" viewBox="0 0 100 90"><title>Artboard 62</title><path d="M41.14,66a8.66,8.66,0,0,1-2.58-.57A8.7,8.7,0,0,0,36,64.86c-1.24,0-3.11.08-5.6.22s-4.37.22-5.64.22a34.64,34.64,0,0,0-4.23.37,36.3,36.3,0,0,1-4.23.36,7.43,7.43,0,0,1-1.17-.14A6.79,6.79,0,0,0,14,65.74a3.17,3.17,0,0,1-3.29-2.45,15.34,15.34,0,0,1-.44-4.4q0-8.53,4.65-13.73Q17,42.78,26.34,36.37a40.87,40.87,0,0,0,7-5.6,12,12,0,0,0,3.15-8.24c0-1.56-1-3-3-4.18a9.93,9.93,0,0,0-5.24-1.64,11.67,11.67,0,0,0-6.41,1.94l-5.24,4.1A4.6,4.6,0,0,1,14,24c-2.52,0-3.77-1-3.77-3a3.85,3.85,0,0,1,1.39-3,41.79,41.79,0,0,1,7.43-5.82,18.35,18.35,0,0,1,19.7.7Q44,16.52,44,22.2a21.35,21.35,0,0,1-1.06,6.88,17.86,17.86,0,0,1-3.22,5.75q-2.74,3.3-9.3,7.36-6.89,4.32-9,6.56a13.9,13.9,0,0,0-4,10.22l7.54-.7q7.77-.44,11.1-.44a14.7,14.7,0,0,1,5.27,1c2.2.86,3.3,2,3.3,3.56a3.71,3.71,0,0,1-1,2.54A3.13,3.13,0,0,1,41.14,66Z"/><path d="M71.86,68.56q-9.56,0-14.06-7-3.73-5.76-3.74-15.35,0-18.09,14.69-31.38l3.44-3.48Q74.72,8.95,76,8.94A3.58,3.58,0,0,1,78.56,10a3.38,3.38,0,0,1,1.14,2.47c0,.88-1.2,2.57-3.74,5.09l-7.47,7.29a24.28,24.28,0,0,0-5.09,9.08A42.61,42.61,0,0,1,69,31.74,14.14,14.14,0,0,1,72.89,31Q81.45,31,86,35.6t4.57,12.93q0,8.74-4.94,14.28Q80.51,68.56,71.86,68.56Zm0-30.07a13.88,13.88,0,0,0-5.64,1.1q-.94.45-4.79,2.82a33.21,33.21,0,0,0-.22,3.81,22.84,22.84,0,0,0,2.19,10.7,9.2,9.2,0,0,0,8.68,5.27,10.18,10.18,0,0,0,8.57-4q2.82-3.66,2.82-9.7,0-5-2.89-7.53T71.86,38.49Z"/></svg>