<svg id="Surfer" xmlns="http://www.w3.org/2000/svg" width="100" height="90" viewBox="0 0 100 90"><title>Artboard 63</title><path d="M41.14,66a8.66,8.66,0,0,1-2.58-.57A8.7,8.7,0,0,0,36,64.86c-1.24,0-3.11.08-5.6.22s-4.37.22-5.64.22a34.64,34.64,0,0,0-4.23.37,36.3,36.3,0,0,1-4.23.36,6.39,6.39,0,0,1-1.17-.14A6.79,6.79,0,0,0,14,65.74a3.17,3.17,0,0,1-3.29-2.45,15.34,15.34,0,0,1-.44-4.4q0-8.52,4.65-13.73Q17,42.78,26.34,36.37a40.87,40.87,0,0,0,7-5.6,12,12,0,0,0,3.15-8.24c0-1.56-1-3-3-4.18a9.93,9.93,0,0,0-5.24-1.64,11.67,11.67,0,0,0-6.41,1.94l-5.24,4.1A4.6,4.6,0,0,1,14,24c-2.52,0-3.77-1-3.77-3a3.85,3.85,0,0,1,1.39-3,41.79,41.79,0,0,1,7.43-5.82,18.35,18.35,0,0,1,19.7.7c3.47,2.41,5.2,5.52,5.2,9.3a21.35,21.35,0,0,1-1.06,6.88,17.86,17.86,0,0,1-3.22,5.75q-2.74,3.3-9.3,7.36-6.89,4.34-9,6.56a13.9,13.9,0,0,0-4,10.22l7.54-.7q7.77-.44,11.1-.44a14.7,14.7,0,0,1,5.27,1c2.2.86,3.3,2,3.3,3.56a3.71,3.71,0,0,1-1,2.54A3.13,3.13,0,0,1,41.14,66Z"/><path d="M92.26,18.1,88.93,22a66.77,66.77,0,0,0-8.75,13.48L73.51,50.07q-.69,1.6-3.08,8.46a43.34,43.34,0,0,1-3.55,8.09A3.22,3.22,0,0,1,64,68.34a3.73,3.73,0,0,1-2.58-1,3.25,3.25,0,0,1-1.12-2.46c0-.92.79-3.31,2.35-7.14l8.24-20.18q5.46-12,11.2-18.45l.7-.77L64.36,18l-8.24-.22q-3.55-.33-3.56-3.51a3.38,3.38,0,0,1,1-2.53,3.54,3.54,0,0,1,2.56-1q4.62,0,13.86.29t13.86.3h6.71c2.58,0,3.88.77,3.88,2.3Q94.46,15.32,92.26,18.1Z"/></svg>