<svg id="Surfer" xmlns="http://www.w3.org/2000/svg" width="100" height="90" viewBox="0 0 100 90"><title>Artboard 58</title><path d="M26.38,67.61a21,21,0,0,1-9.92-2.31,13.56,13.56,0,0,1-6.67-7.51,3.92,3.92,0,0,1-.22-1.28,3.07,3.07,0,0,1,1.12-2.43,3.78,3.78,0,0,1,2.58-1,3.14,3.14,0,0,1,2.53,1.35L17.48,57A8,8,0,0,0,21,59.68a14.29,14.29,0,0,0,5.35.9,10.62,10.62,0,0,0,7-2.49,8.07,8.07,0,0,0,3.19-6.45,10.76,10.76,0,0,0-4.06-8.82A17.93,17.93,0,0,0,23,39.34q-4.06-.41-4.06-3.3,0-2.16,3.18-3.29l8.76-2.17a8.54,8.54,0,0,0,3.81-2.47A5.9,5.9,0,0,0,36,24.32a6.06,6.06,0,0,0-2.49-5.2c-1.78-1.36-4.28-2.05-7.5-2.05a10.51,10.51,0,0,0-4.84,1.21L17,20.88a4,4,0,0,1-1.94.77,3.32,3.32,0,0,1-2.51-1.12,3.63,3.63,0,0,1-1-2.54q0-2.89,5.6-5.57Q22,10,25.13,10,33,10,37.62,13.52q5,3.74,5,10.66,0,8.59-7,11.35c-.42.17-.89.34-1.43.51a14.54,14.54,0,0,1,7.29,5.37,15.55,15.55,0,0,1,2.41,8.91,16.55,16.55,0,0,1-5.09,12.25A17,17,0,0,1,26.38,67.61Z"/><path d="M72.38,67.35q-11.14,0-16.26-10.18-3.88-7.83-3.89-20.4a33.68,33.68,0,0,1,5.06-18.53Q63.26,9,73.51,9a17,17,0,0,1,15,8.2q4.65,7.11,4.65,17.32,0,16.41-5.2,24.63T72.38,67.35Zm1.09-51.3q-6.81,0-10.8,6.92a26,26,0,0,0-3.33,13.22q0,12,3.26,18.09t9.78,6q7.75,0,11.13-8.86,2.34-6.15,2.34-15.6,0-9.93-3.09-14.87A10.23,10.23,0,0,0,73.47,16.05Z"/></svg>