<svg id="Surfer" xmlns="http://www.w3.org/2000/svg" width="80" height="90" viewBox="0 0 80 90"><title>Artboard 70</title><path d="M26,66H18.72l-7.25,0a13.33,13.33,0,0,1-3.59-.33A2.66,2.66,0,0,1,6,62.81c0-2.46,1.91-3.7,5.75-3.7l1.75,0,1.5.07c0-1.17-.1-2.9-.31-5.2s-.31-4-.31-5.16q0-4.65.84-14.14Q16,25.39,16,20.55q-4.91,3.81-6.26,3.81a3.45,3.45,0,0,1-2.54-1.1,3.49,3.49,0,0,1-1.08-2.53c0-1.14,1-2.54,3.14-4.17q2-1.39,5.61-4.47Q18.11,8.84,21,8.83c1.64,0,2.45.94,2.45,2.82a20.31,20.31,0,0,1-.22,2.51A22.52,22.52,0,0,0,23,16.67c0,.81.05,2,.13,3.66s.13,2.86.13,3.66q0,4.19-.88,12.45t-.88,12.42c0,1.41.1,3.14.3,5.16s.3,3.69.33,5L26,58.93a3.47,3.47,0,0,1,2.55,1,3.66,3.66,0,0,1,0,5A3.5,3.5,0,0,1,26,66Z"/><path d="M69.3,49.92V63.47q0,3.41-3.34,3.41c-2.58,0-3.88-1.77-3.88-5.31,0-.44,0-1.07.08-1.87s.07-1.36.07-1.65l0-8.31L46,49.33a49.23,49.23,0,0,1-7-.32q-3.33-.55-3.33-2.61c0-1.09.67-2.49,2-4.17l3.15-3.74,18-26.29a7.4,7.4,0,0,1,6.23-3.4q4.14,0,4.14,3.58V42.82c.41,0,.91,0,1.5,0q6.74,0,6.74,3.62a3.22,3.22,0,0,1-2.79,3.34A24,24,0,0,1,69.3,49.92Zm-7.11-31Q52.41,34.54,46.92,42.3l15.27.37Z"/></svg>