<svg id="Surfer" xmlns="http://www.w3.org/2000/svg" width="100" height="90" viewBox="0 0 100 90"><title>Artboard 59</title><path d="M41.14,66a8.66,8.66,0,0,1-2.58-.57A8.7,8.7,0,0,0,36,64.86c-1.24,0-3.11.08-5.6.22s-4.37.22-5.64.22a34.64,34.64,0,0,0-4.23.37,36.3,36.3,0,0,1-4.23.36,7.43,7.43,0,0,1-1.17-.14A6.79,6.79,0,0,0,14,65.74a3.17,3.17,0,0,1-3.29-2.45,15.34,15.34,0,0,1-.44-4.4q0-8.53,4.65-13.73Q17,42.78,26.34,36.37a40.87,40.87,0,0,0,7-5.6,12,12,0,0,0,3.15-8.24c0-1.56-1-3-3-4.18a9.93,9.93,0,0,0-5.24-1.64,11.67,11.67,0,0,0-6.41,1.94l-5.24,4.1A4.6,4.6,0,0,1,14,24c-2.52,0-3.77-1-3.77-3a3.85,3.85,0,0,1,1.39-3,41.79,41.79,0,0,1,7.43-5.82,18.35,18.35,0,0,1,19.7.7Q44,16.52,44,22.2a21.35,21.35,0,0,1-1.06,6.88,17.86,17.86,0,0,1-3.22,5.75q-2.74,3.3-9.3,7.36-6.89,4.32-9,6.56a13.9,13.9,0,0,0-4,10.22l7.54-.7q7.77-.44,11.1-.44a14.7,14.7,0,0,1,5.27,1c2.2.86,3.3,2,3.3,3.56a3.71,3.71,0,0,1-1,2.54A3.13,3.13,0,0,1,41.14,66Z"/><path d="M78.71,61.49a53.81,53.81,0,0,1-8.57,4.76Q63.58,69.4,61,69.4a3.15,3.15,0,0,1-2.47-1.09,3.76,3.76,0,0,1-1-2.57c0-1.44.83-2.53,2.49-3.26l6.12-2.08a30,30,0,0,0,9-5.32,28,28,0,0,0,6-8.53l1.58-3.15a26.7,26.7,0,0,1-5.27,2.16,18.81,18.81,0,0,1-5.24,1,19.23,19.23,0,0,1-12-3.84Q54.1,38,54.1,29.38q0-10.23,6.3-15.35,5.38-4.35,14.14-4.36,6.74,0,12.08,5.5A19.63,19.63,0,0,1,92.3,29.23a48,48,0,0,1-3.45,18.05Q85.12,56.73,78.71,61.49Zm-5.2-45.55q-6.15,0-9.25,3.18c-2.06,2.13-3.1,5.32-3.13,9.6a10,10,0,0,0,3.77,8.35,13.27,13.27,0,0,0,8.39,2.6,12.74,12.74,0,0,0,6.12-1.76,60.43,60.43,0,0,0,5.27-3.63,35.72,35.72,0,0,0,.48-5.05q0-4.57-3.87-8.94T73.51,15.94Z"/></svg>