<svg id="Surfer" xmlns="http://www.w3.org/2000/svg" width="80" height="90" viewBox="0 0 80 90"><title>Artboard 65</title><path d="M26,68.64H18.72l-7.25,0a11.84,11.84,0,0,1-3.59-.37A3,3,0,0,1,6,65.09c0-2.78,1.91-4.17,5.75-4.17l1.75,0L15,61q0-2-.31-5.86c-.2-2.59-.31-4.53-.31-5.83q0-5.24.84-15.94.81-10.53.77-16-4.91,4.3-6.26,4.3a3.29,3.29,0,0,1-2.54-1.24,4.23,4.23,0,0,1-1.08-2.85c0-1.3,1-2.87,3.14-4.71q2-1.58,5.61-5Q18.11,4.21,21,4.2c1.64,0,2.45,1.06,2.45,3.18a25.58,25.58,0,0,1-.22,2.83C23.12,11.47,23,12.41,23,13c0,.91.05,2.29.13,4.13s.13,3.23.13,4.13q0,4.71-.88,14.05t-.88,14q0,2.4.3,5.83c.19,2.28.3,4.16.33,5.62L26,60.71a3.27,3.27,0,0,1,2.55,1.14,4.53,4.53,0,0,1,0,5.68A3.3,3.3,0,0,1,26,68.64Z"/><path d="M62.71,63.6A53.69,53.69,0,0,1,54.14,69Q47.59,72.52,45,72.53a3,3,0,0,1-2.48-1.24,4.6,4.6,0,0,1-1-2.89,4,4,0,0,1,2.49-3.68l6.12-2.35a29.76,29.76,0,0,0,9-6,32.11,32.11,0,0,0,6-9.63l1.57-3.55a24.89,24.89,0,0,1-5.27,2.44,17,17,0,0,1-5.24,1.11,17.8,17.8,0,0,1-12-4.34q-6.15-5.28-6.15-15,0-11.53,6.29-17.31,5.38-4.92,14.14-4.92,6.74,0,12.09,6.2a23.71,23.71,0,0,1,5.67,15.86,60.08,60.08,0,0,1-3.44,20.37Q69.12,58.23,62.71,63.6ZM57.5,12.22q-6.15,0-9.24,3.59T45.13,26.63q0,6.07,3.77,9.42A12.21,12.21,0,0,0,57.29,39a11.6,11.6,0,0,0,6.11-2,57.17,57.17,0,0,0,5.27-4.09,45.34,45.34,0,0,0,.48-5.7,16.46,16.46,0,0,0-3.86-10.08Q61.47,12.21,57.5,12.22Z"/></svg>