<svg id="Surfer" xmlns="http://www.w3.org/2000/svg" width="80" height="90" viewBox="0 0 80 90"><title>Artboard 69</title><path d="M26,66H18.72l-7.25,0a12.93,12.93,0,0,1-3.59-.33A2.65,2.65,0,0,1,6,62.81c0-2.46,1.91-3.7,5.75-3.7l1.75,0,1.5.07c0-1.17-.1-2.9-.31-5.2s-.31-4-.31-5.16q0-4.65.84-14.14Q16,25.39,16,20.55q-4.91,3.81-6.26,3.81a3.45,3.45,0,0,1-2.54-1.1,3.49,3.49,0,0,1-1.08-2.53c0-1.14,1-2.53,3.14-4.17q2-1.39,5.61-4.47Q18.11,8.84,21,8.83c1.64,0,2.45.94,2.45,2.82a20.31,20.31,0,0,1-.22,2.51A22.52,22.52,0,0,0,23,16.67c0,.81.05,2,.13,3.66s.13,2.86.13,3.66q0,4.19-.88,12.45t-.88,12.42q0,2.13.3,5.16t.33,5L26,58.93a3.47,3.47,0,0,1,2.55,1,3.66,3.66,0,0,1,0,5A3.5,3.5,0,0,1,26,66Z"/><path d="M76.25,18.1,72.92,22a67.21,67.21,0,0,0-8.75,13.48L57.5,50.07q-.69,1.6-3.07,8.46a44,44,0,0,1-3.55,8.09A3.23,3.23,0,0,1,48,68.34a3.7,3.7,0,0,1-2.58-1,3.21,3.21,0,0,1-1.12-2.46c0-.92.78-3.31,2.34-7.14l8.24-20.18q5.46-12,11.21-18.45l.69-.77L48.35,18l-8.24-.22q-3.55-.33-3.55-3.51a3.37,3.37,0,0,1,1-2.53,3.56,3.56,0,0,1,2.57-1q4.6,0,13.86.29t13.86.3h6.7q3.89,0,3.88,2.3Q78.45,15.32,76.25,18.1Z"/></svg>