<svg id="Surfer" xmlns="http://www.w3.org/2000/svg" width="100" height="100" viewBox="0 0 100 100"><title>Artboard 64</title><path d="M40.32,71a10.19,10.19,0,0,1-2.82-.57,10.17,10.17,0,0,0-2.78-.57c-1.36,0-3.4.08-6.12.22s-4.77.22-6.16.22a41.17,41.17,0,0,0-4.62.37A43.13,43.13,0,0,1,13.2,71a9,9,0,0,1-1.28-.14,8,8,0,0,0-1.28-.15A3.44,3.44,0,0,1,7,68.29a14,14,0,0,1-.48-4.4q0-8.53,5.08-13.73Q14,47.78,24.16,41.37a44.19,44.19,0,0,0,7.64-5.6,11.43,11.43,0,0,0,3.44-8.24c0-1.56-1.11-3-3.32-4.18a11.57,11.57,0,0,0-5.72-1.64,13.6,13.6,0,0,0-7,1.94l-5.72,4.1A5.29,5.29,0,0,1,10.72,29Q6.59,29,6.6,26a3.74,3.74,0,0,1,1.52-3,45.77,45.77,0,0,1,8.12-5.82,21.35,21.35,0,0,1,10-2.53A21.12,21.12,0,0,1,37.76,17.9q5.68,3.62,5.68,9.3a19.83,19.83,0,0,1-1.16,6.88,17.47,17.47,0,0,1-3.52,5.75q-3,3.3-10.16,7.36-7.51,4.32-9.88,6.56A13.31,13.31,0,0,0,14.36,64l8.24-.7q8.47-.44,12.12-.44a17.4,17.4,0,0,1,5.76,1c2.4.86,3.6,2,3.6,3.56A3.76,3.76,0,0,1,40.32,71Z"/><path d="M74.44,72.35q-12.16,0-17.76-10.18-4.24-7.83-4.24-20.4A31.58,31.58,0,0,1,58,23.24,20.57,20.57,0,0,1,75.68,14q10.51,0,16.4,8.2,5.08,7.11,5.08,17.32,0,16.41-5.68,24.63T74.44,72.35Zm1.2-51.3q-7.44,0-11.8,6.92A24.27,24.27,0,0,0,60.2,41.19q0,12,3.56,18.09a11.6,11.6,0,0,0,10.68,6q8.48,0,12.16-8.86,2.57-6.15,2.56-15.6,0-9.93-3.38-14.87T75.64,21.05Z"/></svg>