<svg id="Surfer" xmlns="http://www.w3.org/2000/svg" width="597.07" height="400.02" viewBox="0 0 597.07 400.02"><defs><style>.cls-1{fill:#0071bc;}</style></defs><title>Dutabtetekst</title><path class="cls-1" d="M8.06,0H43.34C58.66.18,75.08-.5,89.53,4a33.75,33.75,0,0,1,18.3,13.38A47.69,47.69,0,0,1,115.67,38c1.85,14.3,1.5,29.19,1.57,43.72V159c.08,12.51.42,26-2.29,38.06-1.39,6.15-4.2,11-8,14.17a25.13,25.13,0,0,1-14.11,5.65c-5.6.53-14-.24-25.31-3.42A270.36,270.36,0,0,1,8.06,186.62ZM55.21,36.92V174.8c6.79,2.09,11,1.56,12.54-1.17s2.35-11.07,2.35-25.12V65.22c0-9.88-.26-16.29-.79-19.13a10,10,0,0,0-3.58-6.43C63.87,38.22,60.36,37.33,55.21,36.92Z"/><path class="cls-1" d="M242,0V137.9c0,10.42.08,21.07-1.34,31.34-.84,6.11-3.55,13-7.95,20.45a62.07,62.07,0,0,1-17.41,19.06,68.56,68.56,0,0,1-25.48,11c-8.54,1.86-20.28,1.79-28.66-1.38-8.18-3.09-14.49-7.94-18.59-14.32a46.13,46.13,0,0,1-7.28-20.77c-1.47-15.68-1.08-31.77-1.12-47.61V0h47.14V167.52c0,8.95.43,14.5,1.29,16.83s2.59,3.31,5.21,2.94a6.48,6.48,0,0,0,5.76-4.79c.86-2.77,1.29-9.05,1.29-19.12V0Z"/><path class="cls-1" d="M103,257.77v30.7a252.17,252.17,0,0,1-28-4.54V400H27.88V268.89A247.27,247.27,0,0,1,0,255V218.69C32.19,239.57,65,252.54,103,257.77Z"/><path class="cls-1" d="M186.08,253.82q12,73.4,27,146.16H164.86c-1-8.66-1.52-13.15-2.53-22.39-6.75,0-10.12,0-16.86-.08-1.14,9.24-1.7,13.72-2.84,22.47H93.89q12.9-70.38,24-141A368.75,368.75,0,0,0,186.08,253.82Zm-25,100.3C158,334,155.9,313.69,153.91,293.4c-3.26,20.16-6.89,40.37-9,60.69C151.36,354.17,154.6,354.17,161.09,354.12Z"/><path class="cls-1" d="M221,245.22c15.82-4.74,31.49-10,47-15.52,10.83-3.92,22.32-7.91,33.76-8.74,7.55-.54,14.13,2.06,18.53,7.56,7,8.78,6.84,21.92,7.05,32.68s-1.66,19.25-5,24.52-9.87,10.37-19.65,15.21q16.35-.6,22.17,7.08c3.88,5.11,5.82,14.09,5.82,26.85V353.1c-.38,10-.31,20.73-4.2,30.08-2.72,6.55-7.38,11.31-13.38,13.39-11.49,4-25.21,3.42-37.62,3.41H221ZM268.19,260v38.67c2-.63,3.58-1.11,4.7-1.42q6.94-2,8.85-5.83t1.9-19.67c0-5.56-.52-9.3-1.57-11.18s-2.41-2.84-4.08-2.86S273,258.43,268.19,260Zm0,65.26V372q10-1.29,12.71-4.24t2.74-13.49V338c0-7.48-.82-11.86-2.46-13.07S275.2,323.84,268.19,325.23Z"/><path class="cls-1" d="M442.65,179.27v40.82c-9.33.42-18.72,1.21-28,2.3V400H367.51V232.82q-14,4.08-27.88,8.58V204C373.64,192.39,406.83,183.08,442.65,179.27Z"/><path class="cls-1" d="M453.4,178.53c27.21-.77,52.25,1.77,78.61,8.69v41.16a306.11,306.11,0,0,0-31.47-6.11v40.61c9.84,1.11,19.76,2.7,29.45,4.74v40.54c-9.75-1.52-19.62-2.71-29.45-3.58V354q17.32,1,34.6,2.3V400H453.4Z"/><path class="cls-1" d="M597.07,218.69q-3.8,67.55-7.39,135.11-17.4-3.19-34.94-5.44-3.68-78-7.39-156A295.35,295.35,0,0,1,597.07,218.69Zm-3.7,144.43V400H551V357.73C565.2,359.26,579.28,361.05,593.37,363.12Z"/></svg>
