<svg id="Surfer" xmlns="http://www.w3.org/2000/svg" width="691.58" height="361.73" viewBox="0 0 691.58 361.73"><defs><style>.cls-1{fill:#0071bc;}.cls-2{fill:aqua;}</style></defs><title>Duvandttekst</title><path class="cls-1" d="M81,0V34.73c-8.8-.44-13.2-.69-22-1.25V163.61a338.83,338.83,0,0,1-37-11.84V30.64C13.15,29.86,8.76,29.44,0,28.51V0Z"/><path class="cls-1" d="M126.45,0V174.29c-12.4-.83-24.77-2.23-37-4.26V0Z"/><path class="cls-1" d="M178.37,0V142c9-.22,13.52-.4,22.53-.9v32.17A497.67,497.67,0,0,1,141.33,175V0Z"/><path class="cls-1" d="M246.92,0V135.9c9-1.74,13.52-2.65,22.53-4.55v30.48c-19.81,4.5-39.33,8.67-59.57,10.61V0Z"/><path class="cls-1" d="M345.66,0c-9.43,32-18.3,64.21-27,96.44v53.17q-17.13,4.47-34.32,8.68V103.21Q270.27,51.85,258.27,0h34c3.39,20.64,7.47,41.47,9,62.37,2.51-20.93,6.33-41.68,10.31-62.37Z"/><path class="cls-1" d="M440.3,0c-7.66,17.49-14.62,35.18-21.25,53.09,7.91,21.79,15.73,43.6,23.27,65.53-12.81,2.72-25.56,5.69-38.28,8.81q-7.44-27.08-15-54.13v57.88q-18.56,4.73-37.05,9.65V0H389V49.37c5.25-16.54,10.59-33,16.5-49.37Z"/><path class="cls-1" d="M537,0c-7.4,15.3-14.42,30.76-21.25,46.32Q527.9,77.83,539,109.7c-12.77-.08-25.54.35-38.28,1.21q-7.28-25.45-15-50.78v52c-12.41,1.15-24.88,2.37-37.05,5.17V0h37.05V39.75C491,26.4,496.44,13.13,502.25,0Z"/><path class="cls-1" d="M545.41,0h61.78V22.12c-9.89-.48-14.84-.69-24.73-1V41.7c9.26.58,13.89.91,23.14,1.72V65.35c-9.25-1.11-13.88-1.58-23.14-2.35V88.38c10.88,1.1,16.31,1.8,27.19,3.57v24.28a478.91,478.91,0,0,0-64.24-6.44Z"/><path class="cls-1" d="M658.31,0q-2.89,47.57-5.8,95.13c-9-2.37-18.26-4.43-27.46-6.14q-2.79-44.5-5.81-89Zm-2.9,102v26.08c-11.08-3.48-22-6.52-33.26-9.26V94.16C633.36,96.48,644.33,99.06,655.41,102Z"/><path class="cls-1" d="M6.34,219.19c9,4.1,18.35,7.81,27.72,11,12.08,4.13,24.74,7.5,36.3,12.47,6.24,2.69,11.1,6.05,14.38,9.82A25.6,25.6,0,0,1,90.9,264.1c.82,4,1.23,11.65,1.23,22.72v40.05c0,10-.6,16.57-1.8,19.85A14.63,14.63,0,0,1,84,354.37,30.57,30.57,0,0,1,73,358.22a126.84,126.84,0,0,1-19.89,1q-23.35-.17-46.72-.42Zm37,36.1V338.1c5.34.38,8.63-.32,9.86-2s1.85-6.57,1.85-14.64V273.79c0-5.63-.21-9.31-.62-11a7.34,7.34,0,0,0-2.81-4.21C50.19,257.47,47.43,256.4,43.38,255.29Z"/><path class="cls-1" d="M190.16,248.21V326c0,8.07-.35,13.51-1,16.63s-2.79,6.28-6.25,9.47a33.16,33.16,0,0,1-13.68,7.19,73.24,73.24,0,0,1-20,2.43,75.84,75.84,0,0,1-22.53-3q-9.76-3-14.61-8.13a20.21,20.21,0,0,1-5.72-10.83c-.58-3.81-.88-11.8-.88-24.38V246.57q18.45,2.24,37.05,2.73v84.83c0,4.57.34,7.45,1,8.71s2,1.9,4.09,1.93q3.52,0,4.54-2c.67-1.36,1-4.59,1-9.79V249.47C165.48,249.52,177.83,249.07,190.16,248.21Z"/><path class="cls-2" d="M324.36,222c-6,45.76-12.1,91.48-18.85,137.13l-56.28.46q-11.8-57.36-21.4-115.11c13.12-2.15,26.12-5.07,39.07-8.07,3.62,29.14,7.22,58.29,9.72,87.55,1.84-22.11,3.77-44.21,6.1-66.27,1-10.11,1.54-15.25,2.57-25.67Q304.88,227.15,324.36,222Z"/><path class="cls-2" d="M392.28,204.06Q403.71,281,413.46,358.15l-37.86.33c-.8-11.12-1.19-16.62-2-27.52l-13.25,1c-.89,10.69-1.34,16-2.23,26.64l-38.3.33c6.67-46.89,12.84-93.84,18.9-140.81C356.56,213.4,374.4,208.66,392.28,204.06ZM372.64,304.22c-2.26-20.36-4-40.77-5.64-61.18-2.7,20.92-5.52,41.87-7.11,62.91Z"/><path class="cls-2" d="M502.47,184.24V357.77H470c-6.09-26.78-12.37-53.49-19.27-80.07v80.15l-31,.24V197.31q15.42-3.66,31-6.83c7.47,22.93,14.28,46,20.77,69.25v-72.6C481.78,185.9,492.14,184.92,502.47,184.24Z"/><path class="cls-2" d="M517.34,183.44c11.09-.44,16.63-.52,27.72-.31,12.19.58,25,.72,36.3,5.12a30.61,30.61,0,0,1,14.39,11.15,36.24,36.24,0,0,1,6.16,15.41c1.45,10.39,1.27,21.28,1.23,31.86V306.2c.05,10.31.3,21.22-1.8,31.2A23.13,23.13,0,0,1,584,356.09q-6.6,1.8-19.89,1.77-23.37-.08-46.73-.09Zm37,28.3V326.48q8,.15,9.86-3.85c1.23-2.67,1.84-10,1.84-21.85V233.34c0-7.7-.2-12.59-.61-14.76a7.56,7.56,0,0,0-2.82-4.9C561.2,212.59,558.44,211.92,554.39,211.74Z"/><path class="cls-1" d="M691.58,216.27v28.51c-8.8-3.47-13.2-5.05-22-7.92V358.5q-18.52-.18-37.05-.3V226.73c-8.76-2-13.14-2.8-21.91-4.27V189.79A388.22,388.22,0,0,1,691.58,216.27Z"/></svg>
