<svg id="Surfer" xmlns="http://www.w3.org/2000/svg" width="640" height="590" viewBox="0 0 640 590"><defs><style>.cls-1{fill:#8ad400;}.cls-2{fill:#83c900;}.cls-3{fill:#fff;}.cls-4{fill:#836f00;}.cls-5{fill:#7d8800;}.cls-6{fill:#a3a39d;}.cls-7{fill:#c69c6d;}</style></defs><title>Gladskildpaddehøjre</title><path class="cls-1" d="M334.74,523.8,328.08,528c-7.81,5-18.53,3-23.83-4.29l-32.73-45.33a15.55,15.55,0,0,1,4.58-22.37l6.65-4.24c7.81-5,18.53-3,23.83,4.29l32.73,45.33A15.56,15.56,0,0,1,334.74,523.8Z"/><path class="cls-1" d="M113.45,554.09l-7.92,1.32c-9.29,1.54-18.24-4.34-19.88-13.06l-6.92-36.81c-1.64-8.73,4.62-17.13,13.91-18.67l7.92-1.31c9.29-1.54,18.23,4.34,19.87,13.06l6.93,36.81C129,544.15,122.74,552.55,113.45,554.09Z"/><path class="cls-2" d="M95.16,580.68l-27,4.49c-9.29,1.54-18.23-4.34-19.87-13.06L36.1,507.56c-1.64-8.72,4.62-17.12,13.91-18.66l27-4.49c9.29-1.54,18.23,4.34,19.87,13.06L109.07,562C110.71,570.74,104.45,579.14,95.16,580.68Z"/><path class="cls-2" d="M277.61,550.42l-27,4.48c-9.29,1.54-18.24-4.33-19.88-13.06l-12.14-64.55c-1.64-8.72,4.62-17.12,13.91-18.66l27-4.48c9.29-1.55,18.24,4.33,19.88,13.06l12.14,64.54C293.16,540.48,286.91,548.88,277.61,550.42Z"/><path class="cls-2" d="M615.61,149.41c74.65,67.05-47.28,162.65-149,179.52S265.19,306,247.22,210.52,297.15,23.88,398.88,7,520.73,64.19,615.61,149.41Z"/><ellipse class="cls-3" cx="471.48" cy="140.51" rx="53.69" ry="65.61" transform="translate(-19.61 111.06) rotate(-13.16)"/><ellipse cx="496.93" cy="147.22" rx="29.99" ry="48.07" transform="translate(-10.86 43.47) rotate(-4.96)"/><ellipse class="cls-3" cx="507.92" cy="158.02" rx="8.8" ry="12.46" transform="translate(-21.66 108.03) rotate(-11.89)"/><ellipse class="cls-2" cx="363.71" cy="321.6" rx="99.04" ry="24.27" transform="translate(-8.98 632.76) rotate(-81.34)"/><path class="cls-4" d="M347.63,382.32c13.22,70.29-61.37,65.7-168.85,83.53s-162,43.83-175.21-26.46,32.52-161.88,140-179.71S334.41,312,347.63,382.32Z"/><path class="cls-5" d="M338.24,456.23,41.1,505.52c-11.47,1.9-22.51-5.35-24.54-16.12L14.41,478c-6.65-25.82,5.7-21.14,17.17-23l297.14-49.29c11.47-1.91,19-13.25,24.54,16.12l2.15,11.42C357.43,444,349.71,454.33,338.24,456.23Z"/><path class="cls-6" d="M273.65,551.07h0c-1.91.32-3.44.74-3.78-1.05l-.61-3.26a3.34,3.34,0,0,1,2.86-3.84h0a3.53,3.53,0,0,1,4.09,2.68l.61,3.27C277.16,550.66,275.57,550.76,273.65,551.07Z"/><path class="cls-6" d="M265,552.52h0c-1.92.31-3.45.74-3.79-1.06l-.61-3.26a3.34,3.34,0,0,1,2.86-3.84h0a3.53,3.53,0,0,1,4.09,2.68l.61,3.27C268.47,552.1,266.88,552.2,265,552.52Z"/><path class="cls-6" d="M254.54,554.24h0c-1.91.32-3.44.74-3.78-1l-.62-3.26a3.35,3.35,0,0,1,2.87-3.84h0a3.51,3.51,0,0,1,4.08,2.68l.62,3.27C258.05,553.83,256.45,553.93,254.54,554.24Z"/><path class="cls-6" d="M92.94,581.05h0c-1.92.32-3.45.74-3.79-1l-.61-3.27a3.35,3.35,0,0,1,2.86-3.84h0a3.53,3.53,0,0,1,4.09,2.69l.61,3.26C96.44,580.64,94.85,580.73,92.94,581.05Z"/><path class="cls-6" d="M82.51,582.78h0c-1.91.32-3.45.74-3.78-1l-.62-3.27A3.36,3.36,0,0,1,81,574.62h0a3.52,3.52,0,0,1,4.09,2.69l.62,3.26C86,582.37,84.42,582.46,82.51,582.78Z"/><path class="cls-6" d="M72.08,584.51h0c-1.91.32-3.44.74-3.78-1l-.61-3.27a3.35,3.35,0,0,1,2.86-3.84h0A3.53,3.53,0,0,1,74.64,579l.61,3.26C75.59,584.1,74,584.19,72.08,584.51Z"/><path class="cls-6" d="M336.53,521.72h0c-1.16,1-2,2-3.1.88l-2-2a2.61,2.61,0,0,1,.11-3.85h0a3,3,0,0,1,4.1.1l2,2C338.73,519.94,337.69,520.69,336.53,521.72Z"/><path class="cls-6" d="M109.49,554.75h0c-1.91.32-1.71.45-2-1.34l-.62-3.27c-.34-1.79-.79-3.23,1.13-3.55h0a3.51,3.51,0,0,1,4.08,2.69l.62,3.26C113,554.34,111.4,554.43,109.49,554.75Z"/><path class="cls-6" d="M329.47,526.63h0c-1.39.73-2.46,1.45-3.24.15l-1.42-2.38a2.65,2.65,0,0,1,1.12-3.71h0a3,3,0,0,1,3.94,1l1.42,2.37C332.07,525.42,330.86,525.9,329.47,526.63Z"/><polygon class="cls-7" points="92.39 432.52 75.65 445.82 55.01 438.87 51.1 418.6 67.84 405.29 88.49 412.25 92.39 432.52"/><polygon class="cls-7" points="172.32 419.26 155.59 432.57 134.94 425.61 131.03 405.34 147.78 392.03 168.42 398.99 172.32 419.26"/><polygon class="cls-7" points="259.21 404.85 242.47 418.15 221.82 411.19 217.92 390.93 234.66 377.62 255.31 384.58 259.21 404.85"/><polygon class="cls-7" points="337.41 391.87 320.67 405.18 300.02 398.22 296.12 377.96 312.86 364.65 333.5 371.61 337.41 391.87"/><polygon class="cls-7" points="295.59 360.11 278.85 373.42 258.21 366.46 254.3 346.19 271.04 332.88 291.69 339.84 295.59 360.11"/><polygon class="cls-7" points="213.61 372.02 196.87 385.33 176.23 378.38 172.32 358.11 189.06 344.8 209.71 351.76 213.61 372.02"/><polygon class="cls-7" points="125.3 388.36 108.56 401.67 87.91 394.71 84.01 374.44 100.75 361.13 121.39 368.09 125.3 388.36"/><polygon class="cls-7" points="54.36 401.81 37.62 415.12 16.98 408.16 13.07 387.89 29.81 374.58 50.45 381.54 54.36 401.81"/><polygon class="cls-7" points="245.7 333.05 228.96 346.36 208.32 339.4 204.41 319.13 221.15 305.82 241.8 312.78 245.7 333.05"/><polygon class="cls-7" points="164.03 346.6 147.29 359.91 126.65 352.95 122.74 332.68 139.48 319.37 160.13 326.33 164.03 346.6"/><polygon class="cls-7" points="81.44 355.25 64.7 368.56 44.05 361.6 40.15 341.33 56.89 328.02 77.53 334.98 81.44 355.25"/><polygon class="cls-7" points="192.54 298.12 175.8 311.43 155.16 304.47 151.25 284.2 167.99 270.89 188.64 277.85 192.54 298.12"/><polygon class="cls-7" points="118.13 312.14 101.39 325.45 80.74 318.5 76.84 298.23 93.58 284.92 114.22 291.88 118.13 312.14"/><polygon class="cls-7" points="273.7 291.39 256.96 304.7 236.32 297.74 232.41 277.47 242.02 268.59 271.15 280.58 273.7 291.39"/><path d="M498.21,73.25c.17,1.82-24.28-12.92-37.86-6.78-11.85,5.36-36.91,21.6-37.08,19.77s24.17-21.92,36.45-26.37C471.7,55.53,498,71.43,498.21,73.25Z"/><path d="M465.6,266.19c-1.66,13.4,4.7,26.56,15,35,11.22,9.24,25.79,12.67,40,13.29,1.93.09,1.92-2.91,0-3-13.39-.59-27.3-3.74-37.9-12.41-9.76-8-15.67-20.22-14.1-32.9.24-1.91-2.76-1.89-3,0Z"/></svg>
