<svg id="Surfer" xmlns="http://www.w3.org/2000/svg" width="1713" height="933" viewBox="0 0 1713 933"><defs><style>.cls-1{fill:#c6f7ff;}.cls-1,.cls-3{stroke:aqua;stroke-miterlimit:10;stroke-width:7px;}.cls-2{fill:#0071bc;}.cls-3{fill:aqua;}</style></defs><title>indstillingeråbent</title><rect class="cls-1" x="132.53" y="127.59" width="1265.5" height="625.91"/><path class="cls-2" d="M346.2,376.52c-2.12,0-3.88-1.11-5.26-3.31q-1.77-2.83-3.19-9.45l-2.12-10.17q-2.43-9.45-7.68-41.71l-11.82,35.63-3.49,11.22a63.2,63.2,0,0,1-4.43,10.93c-1.65,3-3.88,4.49-6.67,4.49q-3.5,0-5.5-3.78a32.24,32.24,0,0,1-2.36-6.32L292,357.49q-6-20.85-10.52-44.66l-2.13,10.57-7.62,31.2a129.77,129.77,0,0,1-2.95,16.25q-1.78,4.61-5.85,4.6a5.69,5.69,0,0,1-4.61-2.06,6.6,6.6,0,0,1-1.48-4.38q0-9.86,4.08-24.22l6.5-23.81,3.42-18.61q2.61-13,5.5-17.08a6.93,6.93,0,0,1,5.85-3.42q3.84,0,5.73,4.37,2.3,5.26,5,21.45a348.45,348.45,0,0,0,9.75,42.06,439.17,439.17,0,0,0,15.13-47.38l1.77-8.63a31.4,31.4,0,0,1,2.77-8.39q2.31-4.37,6.33-4.37,5.07,0,7.74,9.81a122.91,122.91,0,0,1,2.3,13.94,339.67,339.67,0,0,0,8.69,45.61l2.89,10.17q2.25,8.14,2.25,10a5.48,5.48,0,0,1-1.93,4.25A6.3,6.3,0,0,1,346.2,376.52Z"/><path class="cls-2" d="M413.44,337.11q0,4.26.06,12.76t.06,12.76c0,.87.06,2.19.2,4s.21,3.09.21,4a5.48,5.48,0,0,1-1.71,4.16,5.86,5.86,0,0,1-4.2,1.63q-4.55,0-5.79-5.61a36.33,36.33,0,0,1-17,3.84q-7.74,0-12.83-3.43a15.32,15.32,0,0,1-6.67-11.05,193.2,193.2,0,0,1-2.31-27.88,110.75,110.75,0,0,1,1.78-18.44c.55-3.42,2.42-5.14,5.61-5.14a5.91,5.91,0,0,1,4.25,1.63,5.45,5.45,0,0,1,1.72,4.16,69.37,69.37,0,0,1-.86,8.69,69.75,69.75,0,0,0-.86,9.1c0,6.57.22,12.21.65,16.89a59.39,59.39,0,0,0,1.95,11.29,19.49,19.49,0,0,0,3.84,1.62,12.84,12.84,0,0,0,3.73.56A60.15,60.15,0,0,0,402,360l-.06-12-.12-11.46a189.35,189.35,0,0,1,1.12-22.16q.65-5.43,5.73-5.43a5.91,5.91,0,0,1,4.26,1.65,5.14,5.14,0,0,1,1.59,4.14Z"/><path class="cls-2" d="M468,326.12c-2.17,0-3.68-.73-4.55-2.19q-.89-1.53-1.53-6.38-4.44,1.13-13.65,4.14-9.51,3.78-9.57,9.33a19.66,19.66,0,0,0,3.48,1q13.59,2.41,20.21,6.68,9.63,6.19,9.63,18a15.85,15.85,0,0,1-8.33,14.53q-6.92,4-17.49,4a42.33,42.33,0,0,1-14.77-2.6q-9.1-3.31-9.1-9.22a5.54,5.54,0,0,1,1.86-4.13,5.94,5.94,0,0,1,4.23-1.78q1.83,0,4.72,2.84c.95.91,3.07,1.65,6.38,2.24a38.32,38.32,0,0,0,6.68.71A29.25,29.25,0,0,0,455,362q5.5-1.71,5.5-5.43,0-8-11.23-10.87l-6.14-1.36q-7.86-1.72-11.17-4c-3.19-2.21-4.78-5.53-4.78-10q0-12.35,11.64-17.6A88.08,88.08,0,0,1,450.13,309a88,88,0,0,0,11.16-3.75,13,13,0,0,1,5.26-1.07,5.57,5.57,0,0,1,4.17,1.66,5.89,5.89,0,0,1,1.62,4.31,25.35,25.35,0,0,0,.74,5,25.45,25.45,0,0,1,.74,5,5.92,5.92,0,0,1-1.62,4.32A5.62,5.62,0,0,1,468,326.12Z"/><path class="cls-2" d="M501,344.79q0,3.54.2,10.61c.14,4.7.21,8.24.21,10.6a5.88,5.88,0,0,1-1.59,4.25,6.09,6.09,0,0,1-8.36,0,5.78,5.78,0,0,1-1.63-4.25c0-2.36-.07-5.9-.21-10.6s-.2-8.25-.2-10.61q0-5.55.59-13.85t.59-13.86a5.89,5.89,0,0,1,1.62-4.31,6.06,6.06,0,0,1,8.33,0,5.86,5.86,0,0,1,1.63,4.31q0,5.55-.59,13.86T501,344.79Zm-2.66-48a6.78,6.78,0,0,1-4.9-2,6.71,6.71,0,0,1,0-9.69,6.78,6.78,0,0,1,4.9-2,6.69,6.69,0,0,1,4.87,2,6.77,6.77,0,0,1,0,9.69A6.69,6.69,0,0,1,498.34,296.82Z"/><path class="cls-2" d="M570.18,374c-2.16,0-3.84-1.15-5-3.43a99.24,99.24,0,0,0-9.28-14.12l-10.45-14.24Q542,345,534.79,349.87q-.64,9.17-.65,17.84a5.92,5.92,0,0,1-1.62,4.32,5.6,5.6,0,0,1-4.17,1.65q-6,0-6-8,0-4.9.67-14.69t.68-14.68q0-9,.27-20.53t.27-20.41q0-2.65-.27-6.26c-.18-2.41-.27-4.49-.27-6.27a5.9,5.9,0,0,1,1.63-4.31,6.08,6.08,0,0,1,8.33,0,5.89,5.89,0,0,1,1.62,4.31q0,2.71.3,6.41c.2,2.47.3,4.6.3,6.41l-.42,19q-.3,10.27-.18,20.56a165.08,165.08,0,0,0,15.48-13.47l13-13.41A5.95,5.95,0,0,1,574,312.41a6,6,0,0,1-1.71,4,213.3,213.3,0,0,1-17.9,18.26l12.88,17.55q9,12.35,9,16.07a5.35,5.35,0,0,1-1.86,4.07A6.16,6.16,0,0,1,570.18,374Z"/><path class="cls-2" d="M310.75,659.59q-6.67,3.13-21,5.61a129.83,129.83,0,0,1-21.51,2.31q-6,0-8.56-1.83-3.56-2.49-3.55-9.1L257.34,637q1.55-27.06,1.54-60a6,6,0,0,1,1.68-4.31,5.86,5.86,0,0,1,8.39,0,6,6,0,0,1,1.69,4.31q0,33.39-1.6,60.74l-.77,9a69.9,69.9,0,0,0-.35,8.69q15.42.17,39-7.27a6.62,6.62,0,0,1,1.89-.3,5.37,5.37,0,0,1,4.26,2,6.52,6.52,0,0,1,1.47,4.2A5.82,5.82,0,0,1,310.75,659.59Z"/><path class="cls-2" d="M376.57,609.31l-20.44,44.2q-7.56,16.13-11.58,27L340.65,692q-1.54,4.24-5.32,4.25a6.19,6.19,0,0,1-4.28-1.62,5.24,5.24,0,0,1-1.8-4.05q0-5.91,12.76-34.21l-21.15-40.71-2.66-4.31a9.5,9.5,0,0,1-1.6-4.55,6.32,6.32,0,0,1,6-6.08,4.85,4.85,0,0,1,4.19,2.06q10.05,13.95,21.57,39.71l8.74-20.39q4.72-10.58,9.1-18.19c1.26-2.21,2.92-3.31,5-3.31a6.15,6.15,0,0,1,4.29,1.71,5.36,5.36,0,0,1,1.86,4.08A7.15,7.15,0,0,1,376.57,609.31Z"/><path class="cls-2" d="M442.45,609.84q-.72,8.68-.71,17.37,0,19.68,1.83,29.72a9.89,9.89,0,0,1,.12,1.36,5.06,5.06,0,0,1-1.66,3.9,5.48,5.48,0,0,1-3.84,1.54q-3.66,0-5.37-5.32a33.57,33.57,0,0,1-8.84,4.73,28.85,28.85,0,0,1-9.54,1.59q-12.22,0-20.26-8.15-8.28-8.34-8.27-21.39,0-15.78,8.36-25.29T416,600.39q6.86,0,10.57,2.13l5.56,4.07q.83-24.87,1.95-33.49.76-5.26,5.37-5.26,5.38,0,5.38,5.73Q444.81,581.77,442.45,609.84Zm-26.24,1.54q-9.91,0-14.88,5.88t-5,17.69a18.06,18.06,0,0,0,5.41,13.12,17.22,17.22,0,0,0,12.67,5.49,17.49,17.49,0,0,0,8.39-1.83,45.15,45.15,0,0,0,6.56-4.9A12.63,12.63,0,0,0,431.1,645l-.17-10.22.06-6.86.11-7a16.63,16.63,0,0,0-6-7.18A16.23,16.23,0,0,0,416.21,611.38Z"/><path class="cls-2" d="M522.86,664.73q-13.35,0-21.63-6.68-9-7.38-9-20.67,0-15.36,7.44-25.76,8.1-11.36,21.62-11.35,9.81,0,16,3.31,7.63,4.08,7.63,12.53,0,5.91-6.68,10.75-3,2.13-12.53,6.62l-22.57,10.69a21.65,21.65,0,0,0,8.25,7.39A25.32,25.32,0,0,0,522.86,654a36,36,0,0,0,9.57-1.54q7-1.95,9-5.11t4.31-3.16a5.19,5.19,0,0,1,3.7,1.57,4.89,4.89,0,0,1,1.62,3.63q0,6.55-10.58,11.28A43.13,43.13,0,0,1,522.86,664.73Zm-1.6-53.82a15.15,15.15,0,0,0-12,5.58q-4.78,5.58-7.15,16.81l18.14-8.63q10.69-5.19,15.24-9Q530.42,610.91,521.26,610.91Z"/><path class="cls-2" d="M601.26,578.94q-14.29,0-16,19.86l-.18,3.66q10-.71,13-.71,9.39,0,9.39,5.91c0,2.87-1.53,4.59-4.6,5.14a22.72,22.72,0,0,1-4.7.26q-2.68-.09-13.62.8l-.47,13.47q0,3.67.23,11t.24,10.93a90.58,90.58,0,0,1-1.3,17.49q-1,4.72-5.49,4.73a5.93,5.93,0,0,1-4.14-1.57A5.09,5.09,0,0,1,571.9,666a8.45,8.45,0,0,1,.11-1.18,104.71,104.71,0,0,0,1.24-16.72l-.17-16.13V614.81q-7.4.59-9.34.59c-4,0-6-1.91-6-5.73s3.44-5.95,10.34-6.15l5.67-.17q.18-3.32.88-9,1.55-13.12,6.62-19.33,6.15-7.5,19.2-7.5,8.44,0,8.45,5.73T601.26,578.94Z"/><path class="cls-2" d="M662.77,578.94q-14.31,0-16,19.86l-.17,3.66q10-.71,13-.71,9.4,0,9.4,5.91c0,2.87-1.54,4.59-4.61,5.14a22.68,22.68,0,0,1-4.7.26q-2.68-.09-13.62.8l-.47,13.47q0,3.67.24,11c.16,4.89.23,8.53.23,10.93a91.53,91.53,0,0,1-1.29,17.49c-.67,3.15-2.51,4.73-5.5,4.73a5.91,5.91,0,0,1-4.13-1.57A5.07,5.07,0,0,1,633.4,666a7.33,7.33,0,0,1,.12-1.18,104.71,104.71,0,0,0,1.24-16.72l-.18-16.13V614.81q-7.38.59-9.33.59-6,0-6-5.73t10.34-6.15l5.67-.17q.18-3.32.89-9,1.53-13.12,6.61-19.33,6.15-7.5,19.21-7.5,8.44,0,8.45,5.73C670.45,577.05,667.88,578.94,662.77,578.94Z"/><path class="cls-2" d="M712.16,664.73q-13.36,0-21.63-6.68-9-7.38-9-20.67,0-15.36,7.45-25.76,8.09-11.36,21.62-11.35,9.81,0,16,3.31,7.62,4.08,7.63,12.53,0,5.91-6.68,10.75-3,2.13-12.53,6.62l-22.57,10.69a21.65,21.65,0,0,0,8.25,7.39A25.29,25.29,0,0,0,712.16,654a36,36,0,0,0,9.57-1.54q7-1.95,9-5.11t4.31-3.16a5.15,5.15,0,0,1,3.69,1.57,4.87,4.87,0,0,1,1.63,3.63q0,6.55-10.58,11.28A43.13,43.13,0,0,1,712.16,664.73Zm-1.6-53.82a15.15,15.15,0,0,0-12,5.58q-4.79,5.58-7.15,16.81l18.14-8.63q10.7-5.19,15.24-9Q719.71,610.91,710.56,610.91Z"/><path class="cls-2" d="M800.07,664.44c-2.17,0-3.84-1.15-5-3.43a99.24,99.24,0,0,0-9.28-14.12l-10.45-14.24q-3.44,2.72-10.64,7.62-.64,9.16-.65,17.84a5.9,5.9,0,0,1-1.62,4.32,5.62,5.62,0,0,1-4.17,1.65q-6,0-6-8,0-4.9.68-14.69t.68-14.68q0-9,.27-20.53t.27-20.41q0-2.65-.27-6.26c-.18-2.41-.27-4.49-.27-6.27a5.86,5.86,0,0,1,1.63-4.31,6.08,6.08,0,0,1,8.33,0,5.89,5.89,0,0,1,1.62,4.31c0,1.82.1,3.95.3,6.41s.29,4.6.29,6.41l-.41,19q-.3,10.28-.18,20.56a165.08,165.08,0,0,0,15.48-13.47l13-13.41a5.95,5.95,0,0,1,10.22,4.07,6,6,0,0,1-1.71,4A213.3,213.3,0,0,1,784.3,625l12.88,17.55q9,12.34,9,16.07a5.33,5.33,0,0,1-1.87,4.07A6.14,6.14,0,0,1,800.07,664.44Z"/><path class="cls-2" d="M855.73,611.68c-.83,0-1.81,0-2.93-.12s-2.09-.12-2.92-.12-3.59.29-8,.89L843,647.24l.06,2.6.06,3q.24,12.93-6.2,12.93a6,6,0,0,1-4.11-1.53,4.91,4.91,0,0,1-1.74-3.84c0-1.5.06-3.74.18-6.74s.17-5.23.17-6.73l-1.18-34.51q-4.31-.16-13.11-1-5.26-.71-5.26-5.85a6.09,6.09,0,0,1,1.59-4.31,5.36,5.36,0,0,1,4.08-1.72l12.41,1q0-3-.27-8.07c-.18-3.36-.26-5.8-.26-7.29a5.42,5.42,0,0,1,1.71-4.11,5.87,5.87,0,0,1,4.19-1.62q5.33,0,6.21,8.68c.12,1.46.18,3.21.18,5.26l-.12,3.43-.06,3.66q7.32-.94,8.39-1,6.14,0,8,.59c2.4.79,3.61,2.64,3.61,5.56a5.93,5.93,0,0,1-1.63,4.28A5.54,5.54,0,0,1,855.73,611.68Z"/><path class="cls-2" d="M900.81,664.73q-13.37,0-21.63-6.68-9-7.38-9-20.67,0-15.36,7.45-25.76,8.08-11.36,21.62-11.35,9.81,0,16,3.31,7.62,4.08,7.62,12.53,0,5.91-6.67,10.75-3,2.13-12.53,6.62l-22.57,10.69a21.7,21.7,0,0,0,8.24,7.39,25.33,25.33,0,0,0,11.5,2.48,36.13,36.13,0,0,0,9.57-1.54q7-1.95,9-5.11c1.34-2.11,2.77-3.16,4.31-3.16a5.15,5.15,0,0,1,3.69,1.57,4.87,4.87,0,0,1,1.63,3.63q0,6.55-10.58,11.28A43.13,43.13,0,0,1,900.81,664.73Zm-1.6-53.82a15.13,15.13,0,0,0-12,5.58q-4.79,5.58-7.15,16.81l18.14-8.63q10.68-5.19,15.24-9Q908.36,610.91,899.21,610.91Z"/><path class="cls-2" d="M985.47,618.35c-.28,4.93-2.24,7.39-5.91,7.39q-5.09,0-5.08-5.85,0-1.12-.18-4.14l-.17-5q-9.35,1.13-15,5.26-5.26,3.84-8.75,11.58l.12,32.37q0,6-5.85,6c-3.46,0-5.2-2-5.2-6V618.53q0-1.95.15-5.85t.15-5.85q0-6,5.2-6,5.79,0,5.85,9.81,11.34-10.93,25.17-10.93a8,8,0,0,1,7.15,3.61q2.36,3.6,2.36,10.87C985.53,616.26,985.51,617.64,985.47,618.35Z"/><path class="cls-1" d="M1187,385h-62c-41.31,0-73.49-3.05-73.49-40.78h0c0-37.74,36.38-52.3,77.69-52.3L1187,290c41.3,0,72,16.48,72,54.22h0C1259,382,1228.29,385,1187,385Z"/><rect class="cls-2" x="1062" y="307" width="100" height="73" rx="36.5"/><path class="cls-1" d="M1192,675h-62c-41.31,0-73.49-3-73.49-40.78h0c0-37.74,36.38-52.3,77.69-52.3L1192,580c41.3,0,72,16.48,72,54.22h0C1264,672,1233.29,675,1192,675Z"/><rect class="cls-2" x="1067" y="597" width="100" height="73" rx="36.5"/><ellipse class="cls-3" cx="1301.02" cy="202.01" rx="55.16" ry="10.63" transform="translate(238.22 979.13) rotate(-45)"/><ellipse class="cls-3" cx="1305.93" cy="201.98" rx="11" ry="59.53" transform="translate(370.59 1135.46) rotate(-53.74)"/></svg>
