<svg id="Surfer" xmlns="http://www.w3.org/2000/svg" width="300" height="140" viewBox="0 0 300 140"><defs><style>.cls-1{opacity:0.36;}.cls-2{fill:#fff;stroke:aqua;stroke-miterlimit:10;}.cls-3{fill:#0071bc;}</style></defs><title>Indstillinger</title><ellipse class="cls-1" cx="162.5" cy="75" rx="137.5" ry="62.75"/><ellipse class="cls-2" cx="151" cy="66.02" rx="139.5" ry="63.28"/><path class="cls-3" d="M32,50.25h.83q2.79,0,4.66,5.07A26.28,26.28,0,0,1,38,60.6V75.82C38.21,78,39.1,79,40.66,79a2.61,2.61,0,0,0,2.69-2.18h.2q0,5.72-4.55,8L37.76,85H37c-2.21,0-3.79-1.45-4.76-4.35A9.32,9.32,0,0,1,32,78V59.05c0-1.44-.93-2.3-2.79-2.59a2.58,2.58,0,0,0-2.7,2.07h-.2v-.1A8.75,8.75,0,0,1,30,50.87,3.38,3.38,0,0,1,32,50.25Z"/><path class="cls-3" d="M44.87,61.12H45q3.85,0,5.48,4.45l.11.62h.1a5.83,5.83,0,0,1,1.66-3.31,5.67,5.67,0,0,1,3.83-1.76h.93q3.18,0,5.07,3.72a4.45,4.45,0,0,1,.42,1.76V84.82l-.21.21H56.78l-.21-.21V70.43a3.09,3.09,0,0,0-2.17-3.21l-.83-.1a3,3,0,0,0-2.9,3.31V84.82l-.21.21H44.87l-.2-.21V61.32Z"/><path class="cls-3" d="M82.76,50.25h.83q3.18,0,5.07,3.72a4.45,4.45,0,0,1,.42,1.76v2.8h-.21c0-1.12-.9-1.88-2.69-2.28a3.07,3.07,0,0,0-3,2.38V84.82L83,85h-.11q-4.19,0-5.48-3.52L77.17,80h-.1q0,3.21-4,4.86L71.68,85H70.34c-1.35,0-2.76-.79-4.25-2.38a6.5,6.5,0,0,1-.93-3.11v-13c0-2.69,1.52-4.49,4.56-5.38l1.45-.21a7.33,7.33,0,0,1,3.62,1.14C76.24,63.29,77,64.43,77,65.46h.11v-9q0-4.4,4.35-6A3.56,3.56,0,0,1,82.76,50.25ZM71.17,70.33V75.4c0,1.76.58,2.9,1.76,3.42l.93.21h.52c1.19,0,2.08-.8,2.69-2.39V70c0-1.73-1-2.76-2.9-3.11Q71.46,66.91,71.17,70.33Z"/><path class="cls-3" d="M92.36,60.5h2a9.33,9.33,0,0,1,7.24,3.41,6,6,0,0,1,.73,2.59v.31l-2.9,2.9h-.21c0-.92-.86-1.95-2.58-3.11a8.71,8.71,0,0,0-3.73-.82c-1.52.13-2.28.51-2.28,1.13v.31q0,1.35,6.21,4.87c3.66,2.23,5.49,4.36,5.49,6.42V79q0,4.5-6.94,5.9l-1,.1h-2a9.34,9.34,0,0,1-7.24-3.42A5.92,5.92,0,0,1,84.39,79v-.32l2.9-2.89h.21v.1q0,3.06,3.93,3.73h1.35c2-.16,3.12-.71,3.41-1.66v-.31c0-.81-1.93-2.23-5.8-4.24q-6-3.73-6-6.22V66.5q0-4.5,6.94-5.9Z"/><path class="cls-3" d="M103.39,49.94h.93c2.14,0,3.86,1.27,5.17,3.83a6.66,6.66,0,0,1,.42,2.38v5.38a3.08,3.08,0,0,0,3.41,2.8c1.52.13,2.28.79,2.28,2,.12,0,.22,1.31.31,3.94l-.1.1h-.11c-2.34,0-4.14-1.21-5.38-3.62a2.09,2.09,0,0,1-.31-1h-.1V66l.1,9.63a3,3,0,0,0,2.07,3l.62.1h.52c1.72-.37,2.59-1.24,2.59-2.58l.1-.11c0-.2.07-.31.21-.31h.93a6.58,6.58,0,0,1,4.76,2.38l.11.52v.52q0,2.25-3.11,4.55A9.66,9.66,0,0,1,114.05,85h-1q-5.33,0-8.18-5.28-.93-1.65-.93-7.35V69.71l-.1-11.28a3,3,0,0,0-3-2.49c-1.8.4-2.69,1.16-2.69,2.28H97.9v-2.8q0-3.18,3.73-5.07A4.52,4.52,0,0,1,103.39,49.94Z"/><path class="cls-3" d="M123,60.19q4.29,0,6,4.86l.11,1.45v9.83c.37,1.73,1.24,2.59,2.58,2.59L132,79c1.87-.4,2.8-1.13,2.8-2.18H135v2.69c0,2.12-1.25,3.82-3.73,5.07a4,4,0,0,1-1.76.42h-.93q-3.21,0-5.18-3.83a6.92,6.92,0,0,1-.41-2.38V69c0-1.22-.83-2.12-2.49-2.69h-.41a2.85,2.85,0,0,0-2.8,2.07v.11h-.2V65.78q0-3.39,4.14-5.28Zm-.42-9.94h.73c1.84,0,3.16,1.1,3.93,3.31l.11.93c0,2.06-1.18,3.44-3.52,4.14l-.83.11c-1.74,0-3.06-1-3.94-2.9l-.2-.83V54q0-2.11,2.79-3.52Z"/><path class="cls-3" d="M136.12,50.25H137q3.7,0,5.49,4.35l.2,1.44.11,19.47c0,1.38.93,2.27,2.79,2.69h.21c1.53,0,2.5-1,2.9-2.9l.31-.11a6.6,6.6,0,0,1,5.69,3,8.94,8.94,0,0,1-3.52,5.17A9.85,9.85,0,0,1,146.27,85h-1q-5.11,0-7.66-5.38a14,14,0,0,1-.93-5.59V69.4l-.1-10.77c-.57-1.58-1.54-2.38-2.9-2.38-1.87.4-2.8,1.12-2.8,2.18h-.2v-2.7q0-3.18,3.72-5.07A4.6,4.6,0,0,1,136.12,50.25Z"/><path class="cls-3" d="M155.35,50.25h.83c2.47,0,4.29,1.45,5.49,4.35l.2,1.44L162,75.51c0,1.38.93,2.27,2.79,2.69H165c1.53,0,2.5-1,2.9-2.9l.31-.11a6.61,6.61,0,0,1,5.69,3,8.94,8.94,0,0,1-3.52,5.17A9.85,9.85,0,0,1,165.5,85h-1q-5.13,0-7.66-5.38a14,14,0,0,1-.93-5.59V69.4l-.11-10.77c-.56-1.58-1.53-2.38-2.89-2.38-1.87.4-2.8,1.12-2.8,2.18h-.21v-2.7c0-2.12,1.25-3.81,3.73-5.07A4.6,4.6,0,0,1,155.35,50.25Z"/><path class="cls-3" d="M175,60.19q4.31,0,6,4.86l.1,1.45v9.83c.38,1.73,1.24,2.59,2.59,2.59L184,79c1.86-.4,2.79-1.13,2.79-2.18H187v2.69c0,2.12-1.24,3.82-3.73,5.07a3.9,3.9,0,0,1-1.76.42h-.93q-3.21,0-5.17-3.83a6.7,6.7,0,0,1-.42-2.38V69c0-1.22-.82-2.12-2.48-2.69h-.42a2.84,2.84,0,0,0-2.79,2.07v.11h-.21V65.78q0-3.39,4.14-5.28Zm-.41-9.94h.72q2.77,0,3.94,3.31l.1.93q0,3.09-3.52,4.14l-.83.11q-2.61,0-3.93-2.9l-.21-.83V54q0-2.11,2.8-3.52Z"/><path class="cls-3" d="M189.8,61.12h.1q3.85,0,5.49,4.45l.1.62h.1a5.83,5.83,0,0,1,1.66-3.31,5.68,5.68,0,0,1,3.83-1.76H202q3.18,0,5.07,3.72a4.45,4.45,0,0,1,.42,1.76V84.82l-.21.21H201.7l-.21-.21V70.43a3.09,3.09,0,0,0-2.17-3.21l-.83-.1a3,3,0,0,0-2.9,3.31V84.82l-.2.21H189.8l-.21-.21V61.32Z"/><path class="cls-3" d="M215.57,60.47h.83c1.91,0,3.54,1,4.86,3a3.94,3.94,0,0,1,.63,1.66h.1q0-3.16,3.52-4.45l2-.21h.31l.2.21V84.8c0,4.46-2.21,7.47-6.62,9l-2,.21h-1.34a9.36,9.36,0,0,1-7.25-3.42,6.06,6.06,0,0,1-.73-2.58V84.9h.21A7.36,7.36,0,0,0,216.81,88q4.42,0,5.18-3.11V79.62h-.1c0,1.26-.94,2.57-2.8,3.93a5.62,5.62,0,0,1-2.9.83h-.31c-2.6,0-4.47-1.45-5.59-4.35l-.21-1.24V66.16c0-2.31,1.25-4.07,3.73-5.28A4.6,4.6,0,0,1,215.57,60.47ZM216.09,75a3.09,3.09,0,0,0,2,3.21l.93.21c1.79,0,2.79-1.11,3-3.31V69.79a3,3,0,0,0-2.69-3.32H219c-1.94.31-2.9,1.38-2.9,3.21Z"/><path class="cls-3" d="M238.55,60.5h2a9.33,9.33,0,0,1,7.24,3.41,6,6,0,0,1,.73,2.59v3.83c0,2-1.86,3.54-5.59,4.66a17.73,17.73,0,0,1-4.56.72v-.2q2.7,0,3.94-3.42l.21-2.28c-.26-2-1.23-3-2.9-3a2.89,2.89,0,0,0-2.9,2.17l-.11,1.14v5.49l.11.1-.11.11v.1c0,1.17.76,2.07,2.28,2.69l.73.1A3.37,3.37,0,0,0,243,76v-.1a15.1,15.1,0,0,1,5.08,2.28l.41.51V79q0,4.5-6.94,5.9l-1,.1h-2a9.34,9.34,0,0,1-7.24-3.42,5.92,5.92,0,0,1-.73-2.58V66.5q0-4.5,6.94-5.9Zm-1,15.11H238v.21h-.51Z"/><path class="cls-3" d="M251.28,61.12h.31a5.26,5.26,0,0,1,5,2.58,4,4,0,0,1,.52,2.08h.1q0-1.82,2.9-3.94a5.35,5.35,0,0,1,2.49-.72h.93q3.18,0,5.07,3.72A4.45,4.45,0,0,1,269,66.6V67a46.12,46.12,0,0,1-5.91,3.1c-.46-2-1.5-3-3.1-3a3,3,0,0,0-2.9,3.31V84.82l-.21.21h-5.59l-.2-.21V61.32Z"/></svg>
