<svg id="Surfer" xmlns="http://www.w3.org/2000/svg" width="230" height="230" viewBox="0 0 230 230"><defs><style>.cls-1{fill:#f77f00;}.cls-2{fill:#f7931e;}.cls-3{fill:#f2f2f2;}</style></defs><title>KrabbeStor</title><path class="cls-1" d="M105.17,162.75c3,3-5,9.13-14.41,18.34S60.6,192,57.65,189s15.78-5.75,25.17-15S102.22,159.74,105.17,162.75Z"/><path class="cls-1" d="M127.5,170.32c-2-2-11.47,4.13-21.23,13.7s-28.82,18.51-26.85,20.52,24.22-3.68,34-13.26S129.47,172.33,127.5,170.32Z"/><path class="cls-1" d="M153.16,155.52c-1.88-1.92-14,17-26.78,29.51s-9.87,24.81-8.43,27.07c21.43,33.74,2.47-7.61,15.24-20.14S155,157.43,153.16,155.52Z"/><path class="cls-1" d="M227.25,104.21c2.33,2.38-19.8,2.58-33,15.55S168.4,141.33,166.08,139s9.26-12.33,22.48-25.3S224.93,101.84,227.25,104.21Z"/><path class="cls-1" d="M207.4,59.54c2.42,2.46,5.76,21.56-5.55,32.66s-23.77,21.34-26.18,18.88,4.79-13.45,16.1-24.54S205,57.07,207.4,59.54Z"/><path class="cls-1" d="M162.71,97.87c-1.34-1.37,5.55-10.31,15.4-20S184.17,30,191.05,58.73c.63,2.62,4.18,7.56-8.08,24.13C174.76,93.94,164.05,99.24,162.71,97.87Z"/><ellipse class="cls-2" cx="131.99" cy="128.66" rx="62.91" ry="43.72" transform="translate(-52.33 129.25) rotate(-44.45)"/><path class="cls-2" d="M155.18,28.66c-2.52-1.74-17.69-9.9-4.71,32.29,4.39,14.29-5.6,21.9-3.08,23.65s16.78-3.26,18-16.23C167.76,43,157.7,30.41,155.18,28.66Z"/><path class="cls-2" d="M91.22,133.34c2,2-4.79,11.82-15.09,21.93S48.74,162.7,42.54,161C0,149.37,59.76,144.44,74.12,143,93.27,141,89.25,131.33,91.22,133.34Z"/><path class="cls-2" d="M150.61,11.56c6.8,6.93,8.4,16.39,3.56,21.13s-9.62-2.87-16.42-9.8-13-10.55-8.2-15.29S143.81,4.63,150.61,11.56Z"/><path class="cls-1" d="M150.51,34.77c.84,7-6.61,13.61-16.62,14.81s-18.83-3.47-19.67-10.44,7.5-6.66,17.52-7.86S149.67,27.8,150.51,34.77Z"/><path class="cls-2" d="M38,156.66c-2,6.74-11.46,9.87-21.13,7S1,153,3,146.26s9.52-3.13,19.19-.26S40,149.93,38,156.66Z"/><path class="cls-1" d="M40.18,136.53c4.87,8.4,4.07,18-1.79,21.35s-8.61-5.17-13.48-13.57-10-13.45-4.15-16.85S35.32,128.13,40.18,136.53Z"/><ellipse cx="90.46" cy="110.76" rx="9.71" ry="6.94" transform="translate(-51.68 95.04) rotate(-44.45)"/><ellipse cx="111.6" cy="88.72" rx="9.71" ry="6.94" transform="translate(-30.19 103.54) rotate(-44.45)"/><ellipse class="cls-3" cx="87.37" cy="108.6" rx="2.54" ry="1.85" transform="translate(-51.05 92.26) rotate(-44.45)"/><ellipse class="cls-3" cx="110.32" cy="86.41" rx="3.01" ry="2.54" transform="translate(-28.95 101.98) rotate(-44.45)"/></svg>
