<svg id="Surfer" xmlns="http://www.w3.org/2000/svg" width="120" height="120" viewBox="0 0 120 120"><defs><style>.cls-1{fill:#f77f00;}.cls-2{fill:#f7931e;}.cls-3{fill:#f2f2f2;}</style></defs><title>Krabbelille</title><path class="cls-1" d="M54.76,85.43c1.58,1.6-2.66,4.86-7.67,9.77S31,101,29.46,99.38s8.4-3.06,13.4-8S53.19,83.82,54.76,85.43Z"/><path class="cls-1" d="M66.66,89.46c-1-1.07-6.11,2.2-11.31,7.29S40,106.61,41.05,107.68s12.9-2,18.1-7.06S67.71,90.53,66.66,89.46Z"/><path class="cls-1" d="M80.32,81.58c-1-1-7.46,9-14.26,15.71s-5.26,13.21-4.49,14.42c11.41,18,1.32-4,8.11-10.72S81.32,82.6,80.32,81.58Z"/><path class="cls-1" d="M119.78,54.26c1.24,1.26-10.55,1.37-17.59,8.28S88.44,74,87.2,72.76s4.93-6.57,12-13.47S118.54,53,119.78,54.26Z"/><path class="cls-1" d="M109.21,30.46c1.28,1.32,3.06,11.49-3,17.4s-12.66,11.36-13.94,10,2.55-7.16,8.57-13.07S107.92,29.15,109.21,30.46Z"/><path class="cls-1" d="M85.41,50.88c-.72-.73,3-5.49,8.2-10.64S96.83,14.75,100.5,30c.33,1.4,2.23,4-4.3,12.85C91.82,48.79,86.12,51.61,85.41,50.88Z"/><ellipse class="cls-2" cx="69.05" cy="67.27" rx="33.5" ry="23.28" transform="translate(-27.35 67.61) rotate(-44.45)"/><path class="cls-2" d="M81.4,14c-1.34-.93-9.42-5.27-2.51,17.2,2.34,7.61-3,11.66-1.64,12.59s8.93-1.73,9.58-8.64C88.1,21.66,82.74,15,81.4,14Z"/><path class="cls-2" d="M47.34,69.76c1,1.07-2.55,6.3-8,11.69s-14.58,4-17.89,3c-22.65-6.2,9.17-8.82,16.82-9.6C48.43,73.87,46.29,68.7,47.34,69.76Z"/><path class="cls-2" d="M79,4.92c3.63,3.69,4.47,8.72,1.9,11.25S75.73,14.64,72.11,11s-6.93-5.62-4.36-8.14S75.34,1.23,79,4.92Z"/><path class="cls-1" d="M78.91,17.28c.45,3.71-3.52,7.24-8.85,7.88S60,23.32,59.59,19.6s4-3.54,9.32-4.18S78.46,13.56,78.91,17.28Z"/><path class="cls-2" d="M19,82.19c-1.07,3.58-6.11,5.25-11.26,3.72S-.73,80.23.33,76.65,5.4,75,10.55,76.51,20.05,78.6,19,82.19Z"/><path class="cls-1" d="M20.16,71.46c2.59,4.48,2.16,9.57-1,11.38S14.62,80.08,12,75.61s-5.32-7.17-2.2-9S17.57,67,20.16,71.46Z"/><ellipse cx="46.93" cy="57.74" rx="5.17" ry="3.7" transform="translate(-27.01 49.39) rotate(-44.45)"/><ellipse cx="58.19" cy="46" rx="5.17" ry="3.7" transform="translate(-15.56 53.92) rotate(-44.45)"/><ellipse class="cls-3" cx="45.29" cy="56.59" rx="1.35" ry="0.99" transform="translate(-26.67 47.91) rotate(-44.45)"/><ellipse class="cls-3" cx="57.51" cy="44.78" rx="1.6" ry="1.35" transform="translate(-14.9 53.09) rotate(-44.45)"/></svg>
