<svg id="Surfer" xmlns="http://www.w3.org/2000/svg" width="70" height="140" viewBox="0 0 70 140"><defs><style>.cls-1{fill:#f77f72;}.cls-2{fill:#f7a272;}.cls-3{fill:#fff;}</style></defs><title>LilleSøstjerne</title><path class="cls-1" d="M41.39,40.82l5.06,8.71A4.89,4.89,0,0,0,50.31,52l9.91.76A8.64,8.64,0,0,1,66,67.09l-6.63,7.4a4.91,4.91,0,0,0-1.11,4.42l4.13,17a4.89,4.89,0,0,1-6.73,5.63l-16-7.09a4.9,4.9,0,0,0-4.54.31l-12.5,7.7a6.29,6.29,0,0,1-9.55-6L14.5,81.88a4.9,4.9,0,0,0-1.7-4.21L4.72,70.8A8.32,8.32,0,0,1,8.35,56.33L18.72,54.1a4.89,4.89,0,0,0,3.49-2.92L26,41.87A8.58,8.58,0,0,1,41.39,40.82Z"/><circle class="cls-2" cx="34.51" cy="41.06" r="1.07"/><circle class="cls-2" cx="34.51" cy="46.21" r="1.5"/><ellipse class="cls-2" cx="34.94" cy="52.66" rx="2.58" ry="1.93"/><circle class="cls-2" cx="6.69" cy="63.72" r="0.97"/><circle class="cls-2" cx="11.74" cy="64.47" r="1.72"/><circle class="cls-2" cx="18.72" cy="65.65" r="2.04"/><circle class="cls-2" cx="18.87" cy="98.99" r="0.97"/><circle class="cls-2" cx="21.77" cy="94.16" r="1.72"/><circle class="cls-2" cx="24.25" cy="88.46" r="2.04"/><circle class="cls-2" cx="58.89" cy="97.45" r="0.97"/><circle class="cls-2" cx="55.99" cy="92.62" r="1.72"/><circle class="cls-2" cx="51.84" cy="87.15" r="2.04"/><circle class="cls-2" cx="52.7" cy="63.51" r="2.04"/><circle class="cls-2" cx="58.57" cy="61.47" r="1.72"/><circle class="cls-2" cx="64.26" cy="58.57" r="0.97"/><ellipse class="cls-3" cx="29.67" cy="65.55" rx="3.97" ry="3.65"/><ellipse class="cls-3" cx="41.06" cy="65.55" rx="3.97" ry="3.65"/><ellipse cx="30.75" cy="65.28" rx="1.61" ry="1.45"/><ellipse cx="39.83" cy="65.33" rx="1.67" ry="1.5"/><path d="M46.54,73.07c0,.29-6.93,4.94-11.5,4.94s-9.61-3.84-9.77-4.08c-1.07-1.62,5.21,3,9.77,3S46.54,72.77,46.54,73.07Z"/></svg>
