<svg id="Surfer" xmlns="http://www.w3.org/2000/svg" width="370" height="380" viewBox="0 0 370 380"><defs><style>.cls-1{fill:#c6f7ff;}.cls-2{fill:#ed1c24;}.cls-3{fill:#0069aa;}.cls-4{fill:#009245;}</style></defs><title>Pointklode</title><path class="cls-1" d="M257.7,168.48,156.17,252.83c-4.33,3.59-20.33-1.42-27.58-6.13a24.83,24.83,0,0,0-8.8-3.51L23.94,224.74a25.12,25.12,0,0,1-20.22-27.5c.83-7.3,10.15-19.69,14.82-25.6a28.49,28.49,0,0,1,4.1-4.19L205.83,15.27S228.16,3.14,235.37,4.93a25.14,25.14,0,0,1,19.08,25.21l-3.13,95.5a25.48,25.48,0,0,0,2.14,11C257.49,145.91,261.92,165,257.7,168.48Z"/><rect class="cls-2" x="141.77" y="125.38" width="13" height="34" transform="translate(-56.76 127.61) rotate(-39.72)"/><polygon class="cls-2" points="125.81 139.74 125.82 114.97 149.42 119.33 137.88 129.18 125.81 139.74"/><path d="M20.48,192.85,21,191q1.56-6,6.73-7.67l1.83.1,26.7,7q4.41,1.16,4.09,9L60,201.09,59.52,203q-2.34,7-7.36,7.75l-1.57-.16-26.24-6.87q-4.56-1.2-4.18-9.16Zm8.91,4.82,19.85,5.19q2.5.66,3.76-2.49c.58-2.24-.55-3.74-3.42-4.49l-17.06-4.46c-2.87-.75-4.59,0-5.18,2.24C27,195.9,27.73,197.23,29.39,197.67Z"/><path d="M214.92,24.11l.24.19,4.54,36-.19.25-5.9.74-.24-.19-3.24-25.67-.06-1.31H210l-2.88.47-.12-.09-.77-6.07c0-.14.23-.25.73-.31,1.48-.9,2.15-2,2-3.22Z"/><path d="M226.28,22.68l1.72-.22c3.67-.46,6.56.56,8.67,3.09l.53,1.58L240.34,52q.53,4.13-6.15,6.5l-1.49.3-1.71.22q-6.66.39-9-3.6l-.39-1.39-3.09-24.48Q218,25.35,224.8,23Zm-1,9.15,2.34,18.52c.2,1.55,1.31,2.33,3.34,2.33q3.12-.39,2.61-4.4l-2-15.92c-.34-2.68-1.54-3.88-3.62-3.62Q225,29.51,225.26,31.83Z"/><ellipse class="cls-3" cx="238.25" cy="248.34" rx="131" ry="124" transform="translate(-103.71 209.56) rotate(-39.72)"/><path class="cls-4" d="M263.33,161.19l4.09.37a11.74,11.74,0,0,0,7.95-2.15l9.7-6.95a12.61,12.61,0,0,1,17.05,2.19l2.81,3.38a9.85,9.85,0,0,1,1.77,3.2l4.68,14a9.65,9.65,0,0,1,.26,5.19l-3,13.37-1.24,6.42a14.31,14.31,0,0,0,4,12.92l1.69,1.66,6.65,4.42a9.83,9.83,0,0,0,4.5,1.59l7,.65a14.72,14.72,0,0,1,8.14,3.39l3.24,2.72a9,9,0,0,1,2.64,3.67h0a7.29,7.29,0,0,1-.92,6.94l-5,6.75-9.23,7.67h0a12,12,0,0,1-16.9-1.56l-1.91-2.31-6.13-10.51-9.59-11.54-5.43-1.29a8,8,0,0,0-7.44,2.07l-4.08,4a10.14,10.14,0,0,0-2.14,3.09l-4,9.11a9.54,9.54,0,0,1-1.66,2.59l-7.69,8.68h0a15.92,15.92,0,0,1-20,3.15l-.89-.53a7.55,7.55,0,0,1-1.09-.79l-9.82-8.48a5,5,0,0,1-.76-6.72l2-2.74a5.17,5.17,0,0,0-.46-6.66l-3.71-3.82a6.66,6.66,0,0,0-5.64-2l-6,.76a6.61,6.61,0,0,1-5.93-2.33L209,222.55a6,6,0,0,1-1.36-4.38l1.16-12.56a11.67,11.67,0,0,1,2.28-5.91l11-14.63,9.34-15a8,8,0,0,1,1.66-1.91l7.71-6.41A15.56,15.56,0,0,1,255.71,159l4.9,1.66A12.22,12.22,0,0,0,263.33,161.19Z"/><path class="cls-4" d="M129.67,289.06l4.11,1.36c.29.1.58.21.85.33l36.27,16.38a8.77,8.77,0,0,1,4.23,4.1l12.31,25.15a8.72,8.72,0,0,1,.76,5.32l-2.1,12a8.7,8.7,0,0,1-13,6l-18.45-10.94a8.54,8.54,0,0,1-1.69-1.3l-14.69-14.56a8.67,8.67,0,0,1-1.35-1.73l-17.45-29.34a8.78,8.78,0,0,1-1.13-3.18h0A8.7,8.7,0,0,1,129.67,289.06Z"/><path class="cls-4" d="M138.18,227l12.62,19.17c4.51,6.85,12.61,9.73,17,6.06l2.89-2.4c2.09-1.74,3-4.68,2.47-8.08l-3.63-24a17.18,17.18,0,0,0-3.87-8.22l-2.37-2.86c-5-6.06-12.6-7.82-16.36-3.8L137.47,213C134.52,216.11,134.82,221.9,138.18,227Z"/><path class="cls-4" d="M252.1,355.7l12.12-22.06a7.58,7.58,0,0,1,.61-.94l14.52-19.17a16.28,16.28,0,0,1,9.83-6.14l18.51-3.63,12.13-2.5a7.69,7.69,0,0,1,7.46,2.61l6.16,7.42a7.68,7.68,0,0,1,1.59,6.55l-1,4.72a7.68,7.68,0,0,1-2.84,4.46l-34.28,26.09a7.66,7.66,0,0,1-2,1.09L261.5,366.59a7.67,7.67,0,0,1-4.69.21h0A7.68,7.68,0,0,1,252.1,355.7Z"/><path class="cls-4" d="M176.12,150.92l12.27,3.84a4.64,4.64,0,0,0,2,.17l14.47-1.77a4.59,4.59,0,0,0,2-.7L218.44,145a4.66,4.66,0,0,0,1.59-1.71l4.44-8.17a4.34,4.34,0,0,1,.28-.46h0a4.68,4.68,0,0,0-4.6-7.29l-2.56.43-.31.06-20.16,4.77a4.88,4.88,0,0,0-.65.2l-19.63,7.81a4.62,4.62,0,0,0-2.1,1.65l-1,1.49A4.67,4.67,0,0,0,176.12,150.92Z"/></svg>
