<svg id="Surfer" xmlns="http://www.w3.org/2000/svg" width="430" height="280" viewBox="0 0 430 280"><defs><style>.cls-1{fill:#b3b3b3;}.cls-2{fill:#fff;}</style></defs><title>Skelet</title><path class="cls-1" d="M171.84,57.82,211,104.46a13.9,13.9,0,0,1,2.85,4.74l24.94,58.11a22.62,22.62,0,0,1-.08,16.47l-9.76,24.56a18.66,18.66,0,0,1-17.35,11.77H188.75a13.09,13.09,0,0,1-1.66-.1l-49.22-5.93a18.89,18.89,0,0,0-4.81,0l-39,5.46a19.37,19.37,0,0,1-7.39-.39l-24.15-6-3-.73A7.73,7.73,0,0,1,54.6,201.1L63.1,198c11.94-1.21.47-5.37-.31-5.37l-10.26,1.9a5.38,5.38,0,0,1-5-7.26l12.18-32.55a68.69,68.69,0,0,1,12.6-21.1L100,101.84a82.38,82.38,0,0,1,12-11.25l44.59-34.15A11.3,11.3,0,0,1,171.84,57.82Z"/><path class="cls-1" d="M299.46,84.87l-54.35,1.58c-2.09,0-37.29,15.3-37.29,17.38v8.53a3.85,3.85,0,0,0,.9,2A10.26,10.26,0,0,0,219.87,118l53.22-15.49a10.23,10.23,0,0,1,4.33-.31c12.15,1.69,71.65,9.5,71.65,7.62L345,96.56C345,94.48,301.54,84.87,299.46,84.87Z"/><path class="cls-1" d="M402.47,183.46l-2.84,4.65a12.47,12.47,0,0,1-1.46,1.94c-102.07,111.78-52.67,41-25.95,1.34a39.9,39.9,0,0,0,.5-43.8l-11.67-16.8c-1.53-2.21-4.29-3.18-5.87-5.35-9.59-13.08-14.48-23.88-12.87-24.82L348.12,95c1.81-1,6,.8,7,2.61l36.17,38.27a12.42,12.42,0,0,1,3,5.31C397,151.47,404,182.57,402.47,183.46Z"/><path class="cls-1" d="M262.63,90.32,252.4,98.08C250.85,99.25,244,87.42,242,84.43a6.09,6.09,0,0,0-.68-.84L205.93,47c-1.27-.94.64-1.7,1.58-1.58a20,20,0,0,0,5,.2,8.5,8.5,0,0,1,6.2,1.83l14.15,11.4a13.18,13.18,0,0,1,1.11,1c3.34,3.31,4.07,3.75,7.38,7.06L257.4,83.57a5.45,5.45,0,0,1,.46.5C259.3,85.78,264.24,89.1,262.63,90.32Z"/><path class="cls-1" d="M307.07,88.42l-12.18,4.07c-1.84.62-4.58-12.81-5.49-16.27a5.09,5.09,0,0,0-.37-1l-21.78-46c-.9-1.3,1.15-1.41,2-1A20.36,20.36,0,0,0,273.9,30a8.52,8.52,0,0,1,5.28,3.71L288.94,49c.26.42.51.86.73,1.3,2.1,4.2,2.65,4.86,4.73,9l9.89,21c.09.21.19.41.27.62C305.37,83,309,87.77,307.07,88.42Z"/><path class="cls-1" d="M351.42,97.83H338.59c-1.95,0-.28-13.61,0-17.17a6.5,6.5,0,0,0,0-1.08L332.5,29c-.43-1.52,1.55-1,2.21-.31a20,20,0,0,0,3.85,3.17,8.51,8.51,0,0,1,3.83,5.2l4.37,17.64c.12.49.21,1,.28,1.47.66,4.65,1,5.45,1.6,10.08l2.71,23c0,.22,0,.45.06.67C351.52,92.19,353.45,97.83,351.42,97.83Z"/><path class="cls-1" d="M386,133.77l-12.66-2.11c-1.92-.32,2.59-17.3,3.58-21.78a10.43,10.43,0,0,0,.21-1.38l4.73-65.13c-.11-2,1.72-1,2.24,0A23,23,0,0,0,387.2,48a11.14,11.14,0,0,1,2.68,7.22l.59,23.09c0,.63,0,1.27,0,1.91-.34,6-.2,7.07-.55,13l-2.19,29.66c0,.29,0,.58-.08.87C387.25,126.64,388,134.11,386,133.77Z"/><path class="cls-1" d="M398.92,175l-8.25-5.19c-1.24-.78,6.89-11.35,8.89-14.19a7.1,7.1,0,0,0,.55-.91l22.38-44.2c.51-1.43,1.5-.18,1.58.64a17.38,17.38,0,0,0,.83,4.17,8.45,8.45,0,0,1-.24,5.84l-6.35,16.33c-.17.45-.37.89-.58,1.33-2,4.11-2.21,4.89-4.2,9l-10.22,20.11c-.1.2-.2.4-.31.59C401.91,170.4,400.22,175.84,398.92,175Z"/><path class="cls-1" d="M372.64,216.7l-1.84-7.93c-.27-1.2,9.48-2.37,12-2.8a5.88,5.88,0,0,0,.75-.19l34.53-11.92c1-.52.89.8.52,1.32a13.2,13.2,0,0,0-1.66,2.88,6.08,6.08,0,0,1-3.09,3.21l-11.72,5.56c-.32.15-.65.29-1,.41-3.16,1.16-3.68,1.48-6.83,2.63l-15.73,5.4-.46.15C376.59,215.85,372.93,218,372.64,216.7Z"/><path class="cls-1" d="M245.5,96.11l12.2-4c1.85-.6,4.51,12.84,5.4,16.3a6.18,6.18,0,0,0,.36,1l12.93,32c.89,1.31,1.9,7,1.9,14.22,0,5-12.46,15.75-13.59,15.49-2.18-.52,3.4-19,2.21-20.86l-3.51-14.66a13.89,13.89,0,0,1-.73-1.3c-2.08-4.22-2.62-4.88-4.67-9.08l-9.76-21c-.1-.2-.19-.41-.27-.62C247.17,101.49,243.58,96.74,245.5,96.11Z"/><path class="cls-1" d="M287.84,92,300,88c1.85-.6,4.52,12.84,5.4,16.3a6.18,6.18,0,0,0,.36,1l12.93,32c.89,1.3,1.9,6.95,1.9,14.22,0,5-7.08,8.16-8.22,7.89-2.17-.51-2-11.37-3.16-13.27l-3.51-14.65a14,14,0,0,1-.73-1.31c-2.07-4.21-2.62-4.87-4.67-9.08l-9.76-21c-.1-.2-.19-.41-.27-.62C289.51,97.38,285.92,92.63,287.84,92Z"/><path class="cls-1" d="M339,103.56l10-.12c1.52,0,.35,10.64.2,13.42a6,6,0,0,0,0,.85l2.13,26.91c.36,1.18-.21,5.63-1.92,11-1.17,3.73-7.2,4.43-8,4-1.51-.89,1.2-8.94.76-10.64l.81-11.76c-.09-.37-.17-.76-.23-1.14-.56-3.63-.81-4.25-1.35-7.87l-2.34-18a5.06,5.06,0,0,1-.06-.53C339,108,337.45,103.58,339,103.56Z"/><path class="cls-1" d="M368.11,137.33l9,4.41c1.36.67-4.48,9.66-5.87,12.08a4.4,4.4,0,0,0-.36.76l-10.22,25c-.21,1.22-2.73,4.93-6.69,9-2.73,2.8-8.42.71-8.91-.06-.94-1.47,5.1-7.44,5.47-9.15l6-10.13c.09-.38.19-.76.31-1.13,1.14-3.5,1.19-4.16,2.34-7.64l6-17.11c0-.16.11-.33.18-.5C366.11,141.25,366.68,136.63,368.11,137.33Z"/><path class="cls-1" d="M369,209.93l-2.76,7c-.41,1.05-7.46-2.76-9.34-3.66a3.29,3.29,0,0,0-.6-.21L337,206.93c-.92-.09-3.84-1.74-7.11-4.45-2.25-1.86-1-6.23-.49-6.65,1-.78,5.86,3.36,7.15,3.53l7.91,3.89a8.15,8.15,0,0,1,.86.16c2.67.63,3.17.63,5.83,1.28l13.11,3.45c.13,0,.26.07.38.12C365.9,208.67,369.38,208.83,369,209.93Z"/><ellipse class="cls-2" cx="140.52" cy="120.26" rx="21.96" ry="16.91"/><path d="M127.62,111.33,151,128.08c.5.36,1-.46.48-.82L128.1,110.51c-.5-.36-1,.46-.48.82Z"/><path d="M129.53,128.76a157.55,157.55,0,0,0,20.52-20.07c.39-.47-.28-1.14-.67-.67a157.55,157.55,0,0,1-20.52,20.07c-.47.39.2,1.06.67.67Z"/><path class="cls-1" d="M344.73,238.45l.75,13.84c.11,2.1-5.66,5.69-8.51,5.58-.29,0-5.73,1.43-6,1.49l-19.28,1.25c-1.18.53-13.75-3.57-19.37-5.71-3.87-1.48-5-14.44-4.54-15.54.81-2.11,11.23,5.89,12.93,5.21l10,.79c.37-.15,4.78-.17,5.17-.26,3.66-.91,3.62-.61,7.27-1.49l14.81-4.71.54-.09C340.24,238.59,344.62,236.27,344.73,238.45Z"/><path class="cls-1" d="M338.76,247.9l9.61-10.16c1.45-1.53,14.31,7.12,16.5,9.55.22.24,13.63,16.55,13.9,16.75L399,269.41c1.34.61-2.84,3.47-4.42,4.42a30.08,30.08,0,0,1-4.74,2.53c-2.2.78-4.16.94-6,0l-12.95-5.09a12.8,12.8,0,0,1-1.19-.7c-3.57-2.4-4.34-2.65-7.89-5.06L344.48,253.2c-.17-.12-.34-.24-.49-.37C342.42,251.51,337.24,249.5,338.76,247.9Z"/></svg>
