<svg id="Surfer" xmlns="http://www.w3.org/2000/svg" width="430" height="410" viewBox="0 0 430 410"><defs><style>.cls-1{fill:#8ad400;}.cls-2{fill:#83c900;}.cls-3{fill:#fff;}.cls-4{fill:#836f00;}.cls-5{fill:#7d8800;}.cls-6{fill:#a3a39d;}.cls-7{fill:#c69c6d;}</style></defs><title>Skildpaddevenstre</title><path class="cls-1" d="M213.25,362.57l4.47,2.72A11.15,11.15,0,0,0,233,361.51l19.61-32.58a11.25,11.25,0,0,0-3.77-15.38l-4.47-2.72a11.15,11.15,0,0,0-15.31,3.78l-19.61,32.58A11.27,11.27,0,0,0,213.25,362.57Z"/><path class="cls-1" d="M358,376.16l5.19.65a11.18,11.18,0,0,0,12.43-9.74l3.17-25.79a11.22,11.22,0,0,0-9.7-12.49l-5.18-.65a11.18,11.18,0,0,0-12.43,9.74l-3.17,25.79A11.22,11.22,0,0,0,358,376.16Z"/><path class="cls-2" d="M370.78,394l17.71,2.21a11.2,11.2,0,0,0,12.43-9.74l5.56-45.23a11.24,11.24,0,0,0-9.7-12.49l-17.71-2.21a11.2,11.2,0,0,0-12.43,9.74l-5.56,45.23A11.24,11.24,0,0,0,370.78,394Z"/><path class="cls-2" d="M251.28,379.13l17.71,2.2a11.19,11.19,0,0,0,12.43-9.73L287,326.37a11.22,11.22,0,0,0-9.69-12.49l-17.71-2.21a11.19,11.19,0,0,0-12.43,9.74l-5.56,45.23A11.24,11.24,0,0,0,251.28,379.13Z"/><path class="cls-2" d="M17.5,112c-46,49.07,36.53,111.35,103.16,119.65S250.55,209,258.78,142.09,219.66,14.17,153,5.87,76,49.68,17.5,112Z"/><ellipse class="cls-3" cx="110.72" cy="101.02" rx="45.5" ry="34.98" transform="translate(-2.82 198.85) rotate(-83.13)"/><ellipse cx="94.44" cy="106.53" rx="33.41" ry="19.5" transform="translate(-14.24 198.49) rotate(-88.68)"/><ellipse class="cls-3" cx="87.7" cy="114.4" rx="8.64" ry="5.73" transform="translate(-36.45 187.65) rotate(-83.07)"/><ellipse class="cls-2" cx="187.17" cy="223.14" rx="15.79" ry="68.77" transform="translate(-39.14 39.82) rotate(-11)"/><path class="cls-4" d="M199.79,264.76c-6,49.25,42.19,43.56,112.59,52.33s106.71,25,112.76-24.27-26.93-111.31-97.33-120.08S205.85,215.51,199.79,264.76Z"/><path class="cls-5" d="M208.55,315.77,403.16,340a13.81,13.81,0,0,0,15.35-12l1-8c3.39-18.15-4.46-14.49-12-15.42L212.9,280.32c-7.51-.93-12.81-8.56-15.34,12l-1,8A13.87,13.87,0,0,0,208.55,315.77Z"/><path class="cls-6" d="M253.87,379.45h0c1.26.16,2.27.4,2.42-.86l.28-2.28a2.3,2.3,0,0,0-2-2.57h0a2.29,2.29,0,0,0-2.56,2l-.28,2.29C251.58,379.28,252.62,379.3,253.87,379.45Z"/><path class="cls-6" d="M259.56,380.16h0c1.26.16,2.27.4,2.42-.86l.28-2.29a2.31,2.31,0,0,0-2-2.57h0a2.3,2.3,0,0,0-2.56,2l-.28,2.28C257.27,380,258.31,380,259.56,380.16Z"/><path class="cls-6" d="M266.39,381h0c1.25.16,2.27.4,2.42-.86l.28-2.29a2.31,2.31,0,0,0-2-2.57h0a2.3,2.3,0,0,0-2.56,2l-.28,2.28C264.1,380.84,265.14,380.86,266.39,381Z"/><path class="cls-6" d="M372.24,394.19h0c1.25.16,2.26.4,2.41-.86l.28-2.28a2.3,2.3,0,0,0-2-2.57h0a2.3,2.3,0,0,0-2.56,2l-.28,2.29C370,394,371,394,372.24,394.19Z"/><path class="cls-6" d="M379.07,395h0c1.25.16,2.26.4,2.41-.86l.28-2.28a2.3,2.3,0,0,0-2-2.57h0a2.3,2.3,0,0,0-2.56,2l-.28,2.29C376.78,394.87,377.81,394.89,379.07,395Z"/><path class="cls-6" d="M385.89,395.89h0c1.26.16,2.27.4,2.42-.86l.28-2.28a2.3,2.3,0,0,0-2-2.57h0a2.29,2.29,0,0,0-2.56,2l-.28,2.29C383.6,395.72,384.64,395.74,385.89,395.89Z"/><path class="cls-6" d="M212,361.18h0c.79.68,1.38,1.3,2.05.51l1.22-1.44a1.9,1.9,0,0,0-.21-2.67h0a1.88,1.88,0,0,0-2.65.21l-1.23,1.44C210.52,360,211.23,360.5,212,361.18Z"/><path class="cls-6" d="M360.55,376.48h0c1.25.16,1.12.26,1.28-1l.28-2.28c.15-1.26.39-2.28-.86-2.43h0a2.3,2.3,0,0,0-2.56,2l-.28,2.29C358.26,376.32,359.29,376.33,360.55,376.48Z"/><path class="cls-6" d="M216.77,364.36h0c.93.46,1.65.92,2.11,0l.83-1.7a1.91,1.91,0,0,0-.85-2.54h0a1.9,1.9,0,0,0-2.53.86l-.83,1.7C215,363.6,215.84,363.9,216.77,364.36Z"/><polygon class="cls-7" points="367.25 291.03 378.59 299.71 391.74 294.19 393.54 279.98 382.2 271.3 369.05 276.83 367.25 291.03"/><polygon class="cls-7" points="314.89 284.51 326.24 293.19 339.38 287.67 341.19 273.46 329.85 264.78 316.7 270.31 314.89 284.51"/><polygon class="cls-7" points="257.99 277.43 269.33 286.11 282.48 280.58 284.29 266.38 272.94 257.7 259.79 263.22 257.99 277.43"/><polygon class="cls-7" points="206.77 271.05 218.12 279.73 231.26 274.2 233.07 260 221.73 251.32 208.58 256.85 206.77 271.05"/><polygon class="cls-7" points="232.77 247.59 244.11 256.27 257.26 250.74 259.06 236.54 247.72 227.86 234.57 233.38 232.77 247.59"/><polygon class="cls-7" points="286.4 253.11 297.74 261.79 310.89 256.26 312.7 242.05 301.35 233.38 288.2 238.9 286.4 253.11"/><polygon class="cls-7" points="344.3 261.48 355.64 270.16 368.79 264.63 370.6 250.43 359.26 241.75 346.11 247.27 344.3 261.48"/><polygon class="cls-7" points="390.82 268.43 402.17 277.11 415.31 271.58 417.12 257.38 405.78 248.7 392.63 254.23 390.82 268.43"/><polygon class="cls-7" points="264.17 227.12 275.51 235.8 288.66 230.27 290.47 216.07 279.13 207.39 265.98 212.92 264.17 227.12"/><polygon class="cls-7" points="317.66 233.78 329.01 242.46 342.15 236.94 343.96 222.73 332.62 214.05 319.47 219.58 317.66 233.78"/><polygon class="cls-7" points="371.57 237.01 382.92 245.69 396.07 240.17 397.87 225.96 386.53 217.28 373.38 222.81 371.57 237.01"/><polygon class="cls-7" points="297.42 201.08 308.76 209.76 321.91 204.23 323.71 190.03 312.37 181.35 299.22 186.87 297.42 201.08"/><polygon class="cls-7" points="346.21 208.32 357.56 217 370.7 211.47 372.51 197.26 361.17 188.59 348.02 194.11 346.21 208.32"/><polygon class="cls-7" points="244.5 199.13 255.84 207.81 268.99 202.29 270.8 188.08 264.25 182.24 245.77 191.55 244.5 199.13"/><path d="M91,55.21c0,1.27,15.29-9.79,24.33-6C123.17,52.55,140,63,140.06,61.71S123.58,47.3,115.45,44.63C107.52,42,91,53.94,91,55.21Z"/><path d="M119.06,188.09c1.56,9.25-2.1,18.6-8.47,24.82-6.94,6.79-16.28,9.66-25.49,10.57-1.25.13-1.35-1.95-.11-2.08,8.67-.86,17.59-3.52,24.15-9.89a26.65,26.65,0,0,0,8-23.32c-.22-1.32,1.73-1.41,2-.1Z"/></svg>
