<svg id="Surfer" xmlns="http://www.w3.org/2000/svg" width="190" height="190" viewBox="0 0 190 190"><defs><style>.cls-1{fill:#8ad400;}.cls-2{fill:#83c900;}.cls-3{fill:#fff;}.cls-4{fill:#836f00;}.cls-5{fill:#7d8800;}.cls-6{fill:#a3a39d;}.cls-7{fill:#c69c6d;}</style></defs><title>SkildpaddeLille</title><path class="cls-1" d="M90.62,167.76l2,1.35a5.1,5.1,0,0,0,7.08-1.36l9.73-14.42a5.15,5.15,0,0,0-1.36-7.11l-2-1.35A5.1,5.1,0,0,0,99,146.23l-9.73,14.42A5.15,5.15,0,0,0,90.62,167.76Z"/><path class="cls-1" d="M156.39,177.4l2.36.41a5.11,5.11,0,0,0,5.91-4.15l2.05-11.7a5.13,5.13,0,0,0-4.13-5.94l-2.35-.42a5.12,5.12,0,0,0-5.91,4.16l-2.06,11.7A5.13,5.13,0,0,0,156.39,177.4Z"/><path class="cls-2" d="M161.83,185.85l8,1.43a5.11,5.11,0,0,0,5.9-4.15l3.61-20.53a5.13,5.13,0,0,0-4.13-5.94l-8-1.42a5.11,5.11,0,0,0-5.9,4.15l-3.61,20.53A5.13,5.13,0,0,0,161.83,185.85Z"/><path class="cls-2" d="M107.6,176.23l8,1.42a5.11,5.11,0,0,0,5.91-4.15L125.15,153A5.13,5.13,0,0,0,121,147l-8-1.43a5.12,5.12,0,0,0-5.91,4.16l-3.61,20.52A5.15,5.15,0,0,0,107.6,176.23Z"/><path class="cls-2" d="M7.14,48.7C-15,70,21.19,100.42,51.42,105.79s59.87-7.28,65.21-37.66A55.84,55.84,0,0,0,71.56,3.41C41.32-2,35.34,21.6,7.14,48.7Z"/><ellipse class="cls-3" cx="49.98" cy="45.87" rx="20.81" ry="16" transform="translate(-3.76 87.27) rotate(-80.16)"/><ellipse cx="42.41" cy="48" rx="15.28" ry="8.92" transform="translate(-8.63 86.71) rotate(-85.71)"/><ellipse class="cls-3" cx="39.14" cy="51.44" rx="3.95" ry="2.62" transform="translate(-18.26 81.15) rotate(-80.1)"/><ellipse class="cls-2" cx="82.01" cy="103.46" rx="7.22" ry="31.45" transform="translate(-13.66 12.48) rotate(-8.04)"/><path class="cls-4" d="M86.79,122.77C82.86,145.12,105,143.67,137,149.34s48.14,13.93,52.07-8.42-9.66-51.48-41.61-57.15S90.72,100.41,86.79,122.77Z"/><path class="cls-5" d="M89.58,146.27,177.9,162a6.31,6.31,0,0,0,7.29-5.13l.64-3.63c2-8.21-1.69-6.72-5.1-7.33L92.41,130.19c-3.41-.61-5.65-4.22-7.3,5.12L84.48,139A6.32,6.32,0,0,0,89.58,146.27Z"/><path class="cls-6" d="M108.78,176.44h0c.56.1,1,.23,1.12-.34l.18-1a1.05,1.05,0,0,0-.85-1.22h0a1.05,1.05,0,0,0-1.21.86l-.19,1C107.73,176.31,108.21,176.34,108.78,176.44Z"/><path class="cls-6" d="M111.36,176.9h0c.57.1,1,.23,1.12-.34l.18-1a1,1,0,0,0-.85-1.22h0a1,1,0,0,0-1.21.86l-.18,1C110.32,176.76,110.79,176.79,111.36,176.9Z"/><path class="cls-6" d="M114.46,177.45h0c.57.1,1,.23,1.12-.34l.18-1a1.05,1.05,0,0,0-.85-1.22h0a1,1,0,0,0-1.21.86l-.18,1C113.41,177.31,113.89,177.34,114.46,177.45Z"/><path class="cls-6" d="M162.49,186h0c.57.1,1,.24,1.13-.33l.18-1a1.05,1.05,0,0,0-.85-1.22h0a1.05,1.05,0,0,0-1.22.85l-.18,1C161.45,185.84,161.92,185.87,162.49,186Z"/><path class="cls-6" d="M165.59,186.52h0c.57.1,1,.24,1.12-.33l.19-1a1.06,1.06,0,0,0-.85-1.22h0a1.05,1.05,0,0,0-1.22.85l-.18,1C164.55,186.39,165,186.42,165.59,186.52Z"/><path class="cls-6" d="M168.69,187.07h0c.57.1,1,.24,1.12-.33l.19-1a1.06,1.06,0,0,0-.85-1.22h0a1.05,1.05,0,0,0-1.22.85l-.18,1C167.65,186.94,168.12,187,168.69,187.07Z"/><path class="cls-6" d="M90.09,167.1h0c.34.33.59.63.92.28l.59-.63a.87.87,0,0,0,0-1.22h0a.87.87,0,0,0-1.22,0l-.59.63C89.43,166.54,89.74,166.77,90.09,167.1Z"/><path class="cls-6" d="M157.57,177.61h0c.57.1.51.14.61-.43l.18-1c.1-.57.24-1-.33-1.13h0a1.05,1.05,0,0,0-1.22.86l-.18,1C156.53,177.47,157,177.5,157.57,177.61Z"/><path class="cls-6" d="M92.19,168.66h0c.41.24.73.47,1,.05l.42-.76a.87.87,0,0,0-.33-1.17h0a.85.85,0,0,0-1.17.33l-.43.75C91.41,168.28,91.77,168.43,92.19,168.66Z"/><polygon class="cls-7" points="162.65 138.73 167.63 142.97 173.76 140.75 174.93 134.31 169.95 130.07 163.81 132.29 162.65 138.73"/><polygon class="cls-7" points="138.89 134.52 143.87 138.75 150.01 136.54 151.17 130.09 146.19 125.86 140.06 128.07 138.89 134.52"/><polygon class="cls-7" points="113.07 129.93 118.05 134.17 124.18 131.95 125.34 125.51 120.37 121.27 114.23 123.49 113.07 129.93"/><polygon class="cls-7" points="89.83 125.81 94.8 130.04 100.94 127.83 102.1 121.38 97.12 117.15 90.99 119.36 89.83 125.81"/><polygon class="cls-7" points="102.25 115.71 107.23 119.94 113.37 117.73 114.53 111.28 109.55 107.05 103.42 109.26 102.25 115.71"/><polygon class="cls-7" points="126.62 119.5 131.6 123.73 137.73 121.52 138.9 115.07 133.92 110.84 127.78 113.05 126.62 119.5"/><polygon class="cls-7" points="152.87 124.69 157.85 128.92 163.98 126.71 165.15 120.26 160.17 116.03 154.03 118.24 152.87 124.69"/><polygon class="cls-7" points="173.96 128.97 178.93 133.2 185.07 130.99 186.23 124.54 181.25 120.31 175.12 122.52 173.96 128.97"/><polygon class="cls-7" points="117.08 107.1 122.06 111.33 128.2 109.12 129.36 102.67 124.38 98.44 118.24 100.66 117.08 107.1"/><polygon class="cls-7" points="141.36 111.41 146.34 115.64 152.47 113.43 153.63 106.98 148.66 102.75 142.52 104.96 141.36 111.41"/><polygon class="cls-7" points="165.91 114.16 170.88 118.39 177.02 116.18 178.18 109.73 173.21 105.5 167.07 107.72 165.91 114.16"/><polygon class="cls-7" points="132.88 95.99 137.86 100.22 144 98.01 145.16 91.57 140.18 87.33 134.04 89.55 132.88 95.99"/><polygon class="cls-7" points="155 100.45 159.98 104.69 166.12 102.47 167.28 96.03 162.3 91.79 156.16 94.01 155 100.45"/><polygon class="cls-7" points="108.76 93.85 113.74 98.08 119.87 95.87 121.03 89.42 118.18 86.6 109.52 90.42 108.76 93.85"/><path d="M42,24.48c-.05.58,7.22-4.11,11.25-2.16,3.53,1.71,11,6.87,11,6.29s-7.19-7-10.84-8.39S42.08,23.9,42,24.48Z"/><path d="M51.72,85.84A13.08,13.08,0,0,1,47.27,97c-3.33,2.93-7.67,4-11.89,4.22-.58,0-.58-.92,0-1,4-.19,8.11-1.19,11.26-4a12.18,12.18,0,0,0,4.19-10.46c-.07-.61.82-.6.89,0Z"/></svg>
