<svg id="Surfer" xmlns="http://www.w3.org/2000/svg" width="70" height="110" viewBox="0 0 70 110"><defs><style>.cls-1{fill:#666;}.cls-2{fill:gray;}</style></defs><title>Skrald</title><ellipse class="cls-1" cx="6.65" cy="29.2" rx="1.54" ry="4.78" transform="translate(-16.9 10.71) rotate(-39.03)"/><ellipse class="cls-1" cx="8.39" cy="27.07" rx="1.88" ry="4.78" transform="translate(-9.14 4.8) rotate(-20.99)"/><ellipse class="cls-1" cx="11.43" cy="27.36" rx="1.2" ry="4.1" transform="translate(-1.34 0.6) rotate(-2.83)"/><path class="cls-2" d="M55.08,54.87c32,9,5.42,40.94-16.59,47.33C18.48,108-3.3,109.48,1.2,75.54c2.92-22-9.26-44.5,10.54-45C34.19,30,27.81,47.23,55.08,54.87Z"/><path d="M15,31.47,5,33.87c-.41.08-.39-1.6-.44-1.86h0c0-.25.24-.52.64-.61l9.55-2.12c.4-.09.54.28.59.54h0C15.36,30.07,15.42,31.39,15,31.47Z"/><path d="M4.13,93.52a12.59,12.59,0,0,0,1.44,3.33c1,1.69,2.07,2.94,2.31,2.79S7,98.5,6,96.81,1.75,85.37,4.13,93.52Z"/><path d="M44.11,89.39c-5.65-3,2.92-5.77,3.76-6.78s.61-1.29.59-2.66c-.05-2.8-.41-4.94,1-7.47A34.84,34.84,0,0,0,52,67.66c.17-.46-.55-.65-.72-.2-1.1,2.92-3.63,5.34-4,8.52-.06.49,0,1,0,1.5a7.51,7.51,0,0,1-.66,5.11c-.6.31-1.22.58-1.84.83-2.58,1.47-4.48,4.81-1.08,6.61.43.23.81-.42.38-.64Z"/><path d="M55.78,70.32c-.8,3.57-1.44,7.44,1.21,10.4.32.36.85-.18.53-.53-2.46-2.74-1.75-6.4-1-9.67.11-.47-.61-.67-.72-.2Z"/><path d="M18.59,21.79a1.49,1.49,0,0,1-.3-1.59c-.23-.78,0-1.22.8-1.32a6.72,6.72,0,0,1,1.18-.46,6.31,6.31,0,0,0,2.38-1.62c1.74-2,1.61-4.71,1.29-7.18-.25-1.88-3.25-1.91-3,0s.68,4.51-1.27,5.79c-1.09.71-2.42.81-3.45,1.68-2,1.73-1.38,4.18-.22,6.22a1.5,1.5,0,0,0,2.59-1.52Z"/><path d="M26.52,25.91c-.61-1.3-2-3.14-1.05-4.57.59-.87,1.9-1.31,2.55-2.2,1.62-2.23.07-4.93,2.16-7.08,1.34-1.38-.78-3.5-2.13-2.12a7.47,7.47,0,0,0-2.17,4c-.23,1.29.23,2.64-.63,3.82-.43.59-1.38,1-1.9,1.48-2.66,2.7-.79,5.3.58,8.2.83,1.75,3.42.23,2.59-1.51Z"/><path d="M12.4,16.46a13.41,13.41,0,0,1-.77-2.15l-.15,1.16c.13-.29,1.31-.66,1.67-.89a4.55,4.55,0,0,0,1.65-1.8c.84-1.66-.24-4.52,1.21-5.71s-.64-3.35-2.12-2.13A4.29,4.29,0,0,0,12.4,7.67c-.27,1.45.46,3.54-1,4.47-.79.51-1.78.6-2.34,1.44-.8,1.22,0,2.49.45,3.68.71,1.77,3.61,1,2.89-.8Z"/></svg>
