<svg id="Surfer" xmlns="http://www.w3.org/2000/svg" width="120" height="110" viewBox="0 0 120 110"><defs><style>.cls-1{fill:#c1272d;}.cls-2{fill:#f2f2f2;}.cls-3{fill:#fff;stroke-width:2px;}.cls-3,.cls-4,.cls-5{stroke:#000;stroke-miterlimit:10;}.cls-4{fill:none;}.cls-4,.cls-5{stroke-width:3px;}</style></defs><title>Soda</title><path class="cls-1" d="M58,101.73,14.3,62.31A4.58,4.58,0,0,1,14,55.87L73.69,4.43C75.37,2.57,79,1,80.86,2.72l29.87,27c6.54,1.82-29.44,49.62-31.22,51.59L64.41,101.4A4.56,4.56,0,0,1,58,101.73Z"/><rect x="22.01" y="57.91" width="67.98" height="1.52" rx="0.76" transform="translate(89.72 132.44) rotate(-160.89)"/><rect x="35.71" y="45.12" width="63.74" height="1.52" rx="0.76" transform="translate(116.43 111.36) rotate(-160.89)"/><path class="cls-2" d="M73.12,59.73l1.21.41c-.17.85.07,1.39.73,1.62a1.41,1.41,0,0,0,1.07,0,1.29,1.29,0,0,0,.63-.8,1.34,1.34,0,0,0-.05-1l-1.59-3.77a2.69,2.69,0,0,1-.12-2l.21-.6a2.58,2.58,0,0,1,3.26-1.6l1.21.42a2.64,2.64,0,0,1,1.61,1.23,2.61,2.61,0,0,1,0,2l-1.23-.42c0-.09.06-.16.07-.21a.89.89,0,0,0-.11-.88,1.48,1.48,0,0,0-.74-.55,1.29,1.29,0,0,0-1,0,1.39,1.39,0,0,0-.59.81,1.37,1.37,0,0,0,0,1l1.59,3.76a2.71,2.71,0,0,1,.12,2l-.2.59a2.53,2.53,0,0,1-1.31,1.47,2.48,2.48,0,0,1-2,.13L74.72,63C73.2,62.47,72.66,61.38,73.12,59.73Z"/><path class="cls-2" d="M67.44,60.49,65,59.65a2.57,2.57,0,0,1-1.58-3.26l2.08-6a2.51,2.51,0,0,1,1.3-1.47,2.42,2.42,0,0,1,2-.13l2.43.83a2.51,2.51,0,0,1,1.47,1.3,2.46,2.46,0,0,1,.13,2l-2.08,6a2.47,2.47,0,0,1-1.31,1.47A2.44,2.44,0,0,1,67.44,60.49Zm.84-2.43L70.36,52a1.3,1.3,0,0,0-.79-1.64,1.26,1.26,0,0,0-1,.07,1.25,1.25,0,0,0-.65.74l-2.08,6a1.26,1.26,0,0,0,.05,1,1.29,1.29,0,0,0,.75.66,1.22,1.22,0,0,0,1-.07A1.24,1.24,0,0,0,68.28,58.06Z"/><path class="cls-2" d="M63.92,47.07,60.16,58,55.3,56.32a2.61,2.61,0,0,1-1.58-3.27l2.08-6a2.51,2.51,0,0,1,1.3-1.47,2.46,2.46,0,0,1,1.95-.13Zm-2.85.37L59.86,47a1.22,1.22,0,0,0-1,.06,1.25,1.25,0,0,0-.65.74l-2.08,6.05a1.26,1.26,0,0,0,0,1,1.29,1.29,0,0,0,.75.66l1.21.41Z"/><path class="cls-2" d="M54.21,43.73l-2.92,8.49A2.58,2.58,0,0,1,48,53.81L45.59,53a2.46,2.46,0,0,1-1.45-1.31,2.42,2.42,0,0,1-.13-2l2.92-8.49,2.41.83-1.66,4.85,2.43.83,1.67-4.84ZM49.69,49l-2.43-.84-.83,2.42a1.19,1.19,0,0,0,.06,1,1.24,1.24,0,0,0,.74.66,1.26,1.26,0,0,0,1-.06,1.29,1.29,0,0,0,.66-.75Z"/><path class="cls-3" d="M18.87,55.21l46.9,40.94c1.87,1.67.17,4.94-1.5,6.81l-2.79,3.11c-1.67,1.87-3.3.61-5.16-1.06L11.65,65.56c-1.87-1.67-3-3.44-1.37-5.3l2.78-3.11C14.73,55.28,17,53.54,18.87,55.21Z"/><ellipse class="cls-4" cx="38.91" cy="82.05" rx="3.8" ry="5.69" transform="translate(-48.19 56.34) rotate(-48.18)"/><ellipse class="cls-5" cx="31.21" cy="90.95" rx="12.91" ry="0.95" transform="translate(-57.38 53.56) rotate(-48.18)"/><ellipse class="cls-5" cx="23.9" cy="102.24" rx="0.76" ry="2.66" transform="translate(-68.23 51.88) rotate(-48.18)"/></svg>
