<svg id="Surfer" xmlns="http://www.w3.org/2000/svg" width="380" height="250" viewBox="0 0 380 250"><defs><style>.cls-1{opacity:0.22;}.cls-2,.cls-3{stroke:aqua;stroke-miterlimit:10;}.cls-3{fill:#fff;}.cls-4{fill:#0071bc;}</style></defs><title>Spiligenstor</title><g class="cls-1"><ellipse class="cls-2" cx="193.24" cy="115.52" rx="170.74" ry="92.33"/></g><ellipse class="cls-3" cx="183.24" cy="102.52" rx="170.74" ry="92.33"/><path class="cls-4" d="M47.2,74.35h1.54q8.85,0,12.06,8.19A21.15,21.15,0,0,1,61.88,89l-.31,4.48h-.31q0-7.58-8.65-10.35a8.29,8.29,0,0,0-3.09-.47H48.43q-4.93.7-4.94,5v.15q0,5.73,8.19,10.36,10.2,6.34,10.2,15.77v1.54q0,8.46-9.89,10.51a8.38,8.38,0,0,1-2.78.31H47.35q-8.88,0-11.74-7a18.23,18.23,0,0,1-1.4-7.58v-1.24l.16-4.63h.31q0,5.25,7.42,10.2a17,17,0,0,0,5.41,1.39q4.79-.61,4.79-4.17v-.62q0-5.76-7.73-9.58Q33.75,97,33.75,87.49v-2q0-7.35,8.19-10.36A15.66,15.66,0,0,1,47.2,74.35Z"/><path class="cls-4" d="M71.7,74.35h.92q5.26,0,8.35,6l.46,1.7h.16q0-5.34,7-7.58l1.86-.15a8.59,8.59,0,0,1,8.5,5.72,6.54,6.54,0,0,1,.46,2.31V97.53q0,5.18-6,7.58a12.33,12.33,0,0,1-3.55.46H81.59V126l-.31.31h-8.5l-.31-.31V87.49q0-2.82-3.71-4h-.62A4.25,4.25,0,0,0,64,86.56v.15h-.31q0-9.49,6.34-12A3.77,3.77,0,0,1,71.7,74.35ZM81.59,88v14.37q8.66-5.64,8.65-9.42L90.4,91V88.41q0-3.66-2.94-4.79l-1.54-.31Q82.13,83.31,81.59,88Z"/><path class="cls-4" d="M109.37,74.35h1.24q4.17,0,7,7.57a38.23,38.23,0,0,1,.77,7.88v22.72q.56,4.8,4,4.8a3.89,3.89,0,0,0,4-3.25h.31q0,8.54-6.8,11.9l-1.85.31h-1.09q-4.93,0-7.11-6.49a14.46,14.46,0,0,1-.46-4V87.49q0-3.21-4.17-3.87a3.84,3.84,0,0,0-4,3.09h-.31v-.15a13,13,0,0,1,5.56-11.28A5.08,5.08,0,0,1,109.37,74.35Z"/><path class="cls-4" d="M128.65,74.35h8.19l.31.31v38a4,4,0,0,0,3.4,4.33l.78.15q4.17-.76,4.17-3.09h.31v.15q0,7.69-6.19,11.44a7.35,7.35,0,0,1-2.62.62h-1.08q-4.92,0-7.27-6.65l-.31-2.78V74.66Z"/><path class="cls-4" d="M180.16,74.35h1.23q4.19,0,7,7.57a38.23,38.23,0,0,1,.77,7.88v22.72q.54,4.8,4,4.8a3.89,3.89,0,0,0,4-3.25h.31q0,8.54-6.8,11.9l-1.86.31h-1.08q-4.95,0-7.11-6.49a14.09,14.09,0,0,1-.46-4V87.49q0-3.21-4.17-3.87a3.84,3.84,0,0,0-4,3.09h-.31v-.15a13,13,0,0,1,5.56-11.28A5.08,5.08,0,0,1,180.16,74.35Z"/><path class="cls-4" d="M211,74.19h3.09a13.92,13.92,0,0,1,10.67,5,8.09,8.09,0,0,1,1.23,4v.46q-1.5,2.4-5.87,3.87l-3.09.61c-.46-3-2-4.48-4.48-4.48q-4.34.73-4.33,3.87v25.34q.85,3.87,3.86,3.87h.62a5.09,5.09,0,0,0,4.33-2.63V104.8c-2.39,0-3.84,1.28-4.33,3.86V109h-.31V106.5q0-7.57,5.41-10a10.28,10.28,0,0,1,4-.77h3.87l.3.31v21.48q0,5.84-8.81,8.35l-3.09.46H211a13.59,13.59,0,0,1-11-5.41,8.85,8.85,0,0,1-.93-3.4V83.16q0-6.69,10.36-8.81Z"/><path class="cls-4" d="M241.75,74.35h1.39q8,0,11,7.42l.31,2.31v.16l-8.81,4.64q-1-4.48-4.49-4.49c-2.88.49-4.32,1.94-4.32,4.33v.16l.15,13.44v.31h.16q0-2.66,4.17-5.72a9.45,9.45,0,0,1,4.33-1.23l.15.15V98.3q0,5.07-2,6-4.29.47-5.56,1.55a5.93,5.93,0,0,0-1.24,3.71v2.47c0,2.32.93,3.86,2.78,4.64l1.55.15h.15c1.94,0,4-1.9,6.18-5.72a8.92,8.92,0,0,1,6.5-3.09l.31.31v9q0,6.84-10.51,8.81l-1.24.15h-3.09a15.56,15.56,0,0,1-9.59-3.71,8.28,8.28,0,0,1-2.16-5.25V89q0-10.59,10.51-14.22A14.07,14.07,0,0,1,241.75,74.35Z"/><path class="cls-4" d="M264.28,74.35h8.5q.32.15,8.19,20.4l3.71,9.74h.15V74.66l.31-.31h8.35l.31.31V126l-.31.31H285q-1.23-1.86-11.9-25.5h-.16v15.61q0,7.11-6.8,9.43l-2.62.31q-6.19,0-8.2-6.8v-5.11h.31q0,2.3,4,3.25,4.33-.61,4.33-4.33V74.66Z"/><path class="cls-4" d="M308.64,74.35h2.16q6.88,0,10.36,4.94a7.39,7.39,0,0,1,.62,2.63v7.42q0,7.72-9,13.76-.54,0-.93,9.42c-.13,1.86-.33,2.79-.62,2.79h-4.17l-.31-.31L305.7,98.46q7.89-6,7.88-11.75v-.62q0-3.32-3.55-3.86h-.47q-3.85.58-3.86,3.86a63.49,63.49,0,0,1-8,3.25V81.77q0-5.37,9-7.27Zm.31,43.89h.61c2.48.62,3.71,1.86,3.71,3.71v.62q-.88,3.71-3.55,3.71h-.93q-2.9,0-3.71-4Q305.93,118.24,309,118.24Z"/></svg>
