<svg id="Surfer" xmlns="http://www.w3.org/2000/svg" width="280" height="160" viewBox="0 0 280 160"><defs><style>.cls-1{opacity:0.26;}.cls-2{fill:#fff;stroke:aqua;stroke-miterlimit:10;}.cls-3{fill:#0071bc;}</style></defs><title>Spiligenlille</title><ellipse class="cls-1" cx="144" cy="85" rx="133.5" ry="74.5"/><ellipse class="cls-2" cx="136.5" cy="75.5" rx="133.5" ry="74.5"/><path class="cls-3" d="M40.18,53.1h1.14a8.74,8.74,0,0,1,8.83,6,15.52,15.52,0,0,1,.8,4.76l-.23,3.29h-.23q0-5.55-6.34-7.59a6,6,0,0,0-2.27-.34h-.79c-2.42.34-3.63,1.54-3.63,3.62V63q0,4.2,6,7.59Q50.94,75.19,51,82.1v1.13q0,6.21-7.25,7.7a6,6,0,0,1-2,.23H40.3q-6.52,0-8.61-5.1a13.36,13.36,0,0,1-1-5.55v-.9l.11-3.4H31q0,3.86,5.44,7.47a12.46,12.46,0,0,0,4,1q3.51-.45,3.51-3v-.46q0-4.22-5.66-7-7.93-4.44-7.93-11.44V61.25q0-5.37,6-7.58A11.29,11.29,0,0,1,40.18,53.1Z"/><path class="cls-3" d="M52.7,64.23h1.36c2.34,0,4,1.36,4.87,4.08L59,69.67h.12c0-2,1.21-3.57,3.62-4.88a6.48,6.48,0,0,1,2.38-.56H66c2.9,0,4.94,1.58,6.11,4.76l.12,1.24V84.62c0,2.66-1.48,4.55-4.42,5.66a7.44,7.44,0,0,1-2.15.34q-4.56,0-6.35-4.53v-.34h-.11v8.16c0,3.25-1.66,5.47-5,6.68l-1.24.12H52q-3.48,0-5.55-4.08A5.09,5.09,0,0,1,46,94.7V91.64h.22q0,1.88,3.06,2.49c2.12-.41,3.17-1.39,3.17-2.94V64.46Zm6.46,10v6.45A3.14,3.14,0,0,0,61,83.71a3.71,3.71,0,0,0,1.47.34q3.18-.48,3.18-3.4V74.54a3.44,3.44,0,0,0-1.82-3.4,3.71,3.71,0,0,0-1.47-.34Q59.55,70.8,59.16,74.2Z"/><path class="cls-3" d="M79.75,64q4.69,0,6.57,5.33l.11,1.58V81.65c.42,1.88,1.36,2.83,2.83,2.83l.34.11c2-.43,3.06-1.23,3.06-2.38h.23v3q0,3.48-4.08,5.55a4.4,4.4,0,0,1-1.93.45h-1q-3.51,0-5.66-4.19a7.46,7.46,0,0,1-.45-2.61V73.6c0-1.34-.91-2.32-2.72-2.94h-.45a3.1,3.1,0,0,0-3.06,2.26V73h-.23v-3q0-3.7,4.53-5.78ZM79.29,53.1h.8q3,0,4.3,3.62l.11,1q0,3.38-3.85,4.53l-.9.12c-1.91,0-3.34-1.06-4.31-3.17l-.22-.91V57.18c0-1.55,1-2.84,3-3.85Z"/><path class="cls-3" d="M94.08,53.1H95c2.7,0,4.7,1.58,6,4.76l.22,1.58.12,21.3q0,2.27,3.06,2.94h.22c1.68,0,2.74-1.05,3.17-3.17l.34-.11a7.19,7.19,0,0,1,6.23,3.28,9.75,9.75,0,0,1-3.85,5.67,10.83,10.83,0,0,1-5.32,1.81h-1.13q-5.61,0-8.39-5.89a15.29,15.29,0,0,1-1-6.12V74.06l-.11-11.79c-.62-1.73-1.68-2.6-3.17-2.6-2,.43-3.06,1.23-3.06,2.38h-.23V59.1q0-3.48,4.08-5.55A4.93,4.93,0,0,1,94.08,53.1Z"/><path class="cls-3" d="M139.76,64q4.69,0,6.57,5.33l.11,1.58V81.65c.42,1.88,1.36,2.83,2.83,2.83l.34.11c2-.43,3.06-1.23,3.06-2.38h.23v3q0,3.48-4.08,5.55a4.37,4.37,0,0,1-1.93.45h-1c-2.35,0-4.23-1.4-5.67-4.19a7.46,7.46,0,0,1-.45-2.61V73.6c0-1.34-.91-2.32-2.72-2.94h-.45a3.1,3.1,0,0,0-3.06,2.26V73h-.23v-3q0-3.7,4.53-5.78ZM139.3,53.1h.8q3,0,4.3,3.62l.12,1q0,3.38-3.86,4.53l-.9.12c-1.91,0-3.34-1.06-4.31-3.17l-.22-.91V57.18c0-1.55,1-2.84,3.06-3.85Z"/><path class="cls-3" d="M161.73,64.29h.91q3.15,0,5.32,3.28a4.26,4.26,0,0,1,.68,1.81h.12q0-3.45,3.85-4.87l2.15-.22h.34l.23.22v26.4q0,7.34-7.25,9.85l-2.15.23h-1.48a10.27,10.27,0,0,1-7.93-3.74,6.73,6.73,0,0,1-.79-2.83V91H156q2.31,3.41,7.13,3.4t5.67-3.4V85.24h-.12q0,2.07-3,4.31a6.3,6.3,0,0,1-3.18.9h-.34q-4.27,0-6.11-4.75l-.23-1.36V70.52q0-3.8,4.08-5.78A4.92,4.92,0,0,1,161.73,64.29Zm.57,15.85a3.4,3.4,0,0,0,2.15,3.52l1,.22c2,0,3.06-1.21,3.29-3.62V74.48a3.3,3.3,0,0,0-2.95-3.62h-.34q-3.16.51-3.17,3.51Z"/><path class="cls-3" d="M186.88,64.31H189A10.24,10.24,0,0,1,197,68.05a6.62,6.62,0,0,1,.8,2.83v4.2q0,3.26-6.12,5.09a19.3,19.3,0,0,1-5,.8v-.23q2.94,0,4.3-3.74l.23-2.49c-.29-2.19-1.34-3.29-3.17-3.29a3.18,3.18,0,0,0-3.18,2.38l-.11,1.25v6l.11.12-.11.11v.11c0,1.29.83,2.27,2.49,3l.8.11a3.69,3.69,0,0,0,3.73-2.94v-.12a16.4,16.4,0,0,1,5.55,2.49l.46.57v.34q0,4.93-7.59,6.46l-1.13.11h-2.16A10.24,10.24,0,0,1,179,87.42a6.55,6.55,0,0,1-.79-2.83V70.88q0-4.92,7.59-6.45Zm-1.13,16.54h.57v.23h-.57Z"/><path class="cls-3" d="M200.82,65h.11c2.81,0,4.81,1.63,6,4.87l.12.68h.11c0-.94.6-2.15,1.81-3.62A6.25,6.25,0,0,1,213.16,65h1q3.49,0,5.55,4.08a4.78,4.78,0,0,1,.46,1.93V90.93l-.23.23h-6.12l-.22-.23V75.19a3.38,3.38,0,0,0-2.38-3.51l-.91-.12a3.32,3.32,0,0,0-3.17,3.63V90.93l-.23.23h-6.11l-.23-.23V65.22Z"/><path class="cls-3" d="M231.06,53.1h1.59a8.69,8.69,0,0,1,7.59,3.62,5.44,5.44,0,0,1,.45,1.93v5.44q0,5.66-6.57,10.08-.39,0-.68,6.91-.13,2-.45,2h-3.06l-.23-.23-.79-12.12q5.78-4.36,5.78-8.61v-.45a2.65,2.65,0,0,0-2.61-2.83h-.34c-1.89.28-2.83,1.22-2.83,2.83A47.36,47.36,0,0,1,223,64.09V58.54c0-2.63,2.19-4.4,6.57-5.33Zm.23,32.17h.45c1.81.45,2.72,1.36,2.72,2.72v.45c-.43,1.81-1.3,2.72-2.6,2.72h-.68c-1.42,0-2.33-1-2.72-2.94C228.87,86.25,229.82,85.27,231.29,85.27Z"/></svg>
