<svg id="Surfer" xmlns="http://www.w3.org/2000/svg" width="380" height="210" viewBox="0 0 380 210"><defs><style>.cls-1{opacity:0.37;}.cls-2{fill:#fff;}.cls-3{fill:aqua;}.cls-4{fill:#0071bc;}</style></defs><title>Startknap</title><g class="cls-1"><ellipse cx="196" cy="110" rx="184" ry="99.5"/></g><ellipse class="cls-2" cx="184.5" cy="100.5" rx="184" ry="99.5"/><path class="cls-3" d="M184.5,200.5C82.77,200.5,0,155.64,0,100.5S82.77.5,184.5.5,369,45.36,369,100.5,286.23,200.5,184.5,200.5Zm0-199C83.32,1.5,1,45.91,1,100.5s82.32,99,183.5,99S368,155.09,368,100.5,285.68,1.5,184.5,1.5Z"/><path class="cls-4" d="M76.06,60.52h2.75q15.76,0,21.48,14.6a37.48,37.48,0,0,1,1.93,11.56l-.55,8h-.55q0-13.5-15.42-18.45a14.81,14.81,0,0,0-5.51-.83H78.26q-8.81,1.24-8.81,8.81v.28q0,10.18,14.6,18.45,18.17,11.29,18.17,28.09v2.75q0,15.09-17.62,18.73a15.06,15.06,0,0,1-5,.55H76.33q-15.82,0-20.92-12.39a32.38,32.38,0,0,1-2.48-13.49V125l.27-8.26h.55q0,9.36,13.22,18.18,6.48,2.48,9.64,2.47,8.53-1.09,8.54-7.43v-1.1q0-10.26-13.77-17.08Q52.11,100.94,52.1,83.93V80.35q0-13.08,14.6-18.45A27.51,27.51,0,0,1,76.06,60.52Z"/><path class="cls-4" d="M145.11,60.52h1.38q11.83,0,16.25,17.63l.27,4.4h-.55q0-4.06-7.16-5.51a7.45,7.45,0,0,0-7.43,5l-.55,3.86V152.5l-.55.55H131.62l-.55-.55V88.06q0-6.54-4.13-8.81l-3-1.1-4.68.55q-11.08-2-18.18-7.71v-.28q6.33-9.64,22.58-9.64h.28a39.13,39.13,0,0,1,13.49,2.76A11,11,0,0,1,145.11,60.52Z"/><path class="cls-4" d="M199.57,60.52q1,0,2.76,11.57l16.24,80.69-.27.27h-4.41q-10.95,0-12.67-6.61L196.54,123h-1.65q-8.19,0-11.57,6.61-4.95,23.42-16.79,23.41h-2.21q-7.5,0-12.67-8.54a12.37,12.37,0,0,1-1.65-5.78v-7.16h.55c1.2,3.86,3.67,5.78,7.44,5.78q6.88,0,9.64-16l16.8-60.86ZM191,97.42l-3,13.5a20,20,0,0,1,5.5-3.31l-1.92-10.19Z"/><path class="cls-4" d="M220.3,60.52h1.37q7.86,0,13.22,11l.28,2.2h.27q0-6.13,7.44-11.57l5-1.37h3q6.82,0,11.3,8.81a14.79,14.79,0,0,1,1.1,5.51v26.71q0,7.15-6.89,12.67l6.89,38.28-.28.27H250q-1,0-3-13.49l-4.68-23.41h-6.61V152.5l-.55.55H222l-.55-.55V84.75q0-6.81-6.89-8-6.33,1.59-6.33,5.78h-.55v-.27q0-17.62,10.74-21.48Zm15.42,22.86v26.71q13.49-9.44,13.49-17.9V84.48q0-6.47-6.61-8Q235.71,78,235.72,83.38Z"/><path class="cls-4" d="M309.32,60.52h1.37q11.85,0,16.25,17.63l.28,4.4h-.55q0-4.06-7.17-5.51a7.45,7.45,0,0,0-7.43,5l-.55,3.86V152.5l-.55.55H295.82l-.55-.55V88.06q0-6.54-4.13-8.81l-3-1.1-4.68.55q-11.08-2-18.18-7.71v-.28q6.35-9.64,22.58-9.64h.28a39.13,39.13,0,0,1,13.49,2.76A11,11,0,0,1,309.32,60.52Z"/></svg>
