<svg id="Surfer" xmlns="http://www.w3.org/2000/svg" width="120" height="120" viewBox="0 0 120 120"><defs><style>.cls-1{fill:#f77f72;}.cls-2{fill:#f7a272;}.cls-3{fill:#fff;}</style></defs><title>Storsøstjerne</title><path class="cls-1" d="M71.18,9,80,24.21a8.59,8.59,0,0,0,6.74,4.23l17.34,1.32a15.12,15.12,0,0,1,10.1,25.15l-11.59,13a8.55,8.55,0,0,0-1.94,7.72l7.22,29.8a8.55,8.55,0,0,1-11.76,9.84l-28.06-12.4a8.56,8.56,0,0,0-7.94.55L38.29,116.82a11,11,0,0,1-16.71-10.46l2.58-25.58a8.55,8.55,0,0,0-3-7.37L7.06,61.4a14.54,14.54,0,0,1,6.35-25.29L31.53,32.2a8.54,8.54,0,0,0,6.11-5.11l6.7-16.27A15,15,0,0,1,71.18,9Z"/><circle class="cls-2" cx="59.14" cy="9.39" r="1.88"/><circle class="cls-2" cx="59.14" cy="18.41" r="2.63"/><ellipse class="cls-2" cx="59.89" cy="29.68" rx="4.51" ry="3.38"/><circle class="cls-2" cx="10.5" cy="49.02" r="1.69"/><circle class="cls-2" cx="19.32" cy="50.34" r="3"/><circle class="cls-2" cx="31.53" cy="52.4" r="3.57"/><circle class="cls-2" cx="31.81" cy="110.69" r="1.69"/><circle class="cls-2" cx="36.88" cy="102.24" r="3"/><circle class="cls-2" cx="41.2" cy="92.28" r="3.57"/><circle class="cls-2" cx="101.77" cy="107.99" r="1.69"/><circle class="cls-2" cx="96.7" cy="99.54" r="3"/><circle class="cls-2" cx="89.44" cy="89.98" r="3.57"/><circle class="cls-2" cx="90.94" cy="48.66" r="3.57"/><circle class="cls-2" cx="101.21" cy="45.08" r="3"/><circle class="cls-2" cx="111.16" cy="40.01" r="1.69"/><ellipse class="cls-3" cx="50.69" cy="52.21" rx="6.95" ry="6.39"/><ellipse class="cls-3" cx="70.6" cy="52.21" rx="6.95" ry="6.39"/><ellipse cx="52.57" cy="51.74" rx="2.82" ry="2.54"/><ellipse cx="68.45" cy="51.84" rx="2.92" ry="2.63"/><path d="M80.17,65.36c0,.52-12.1,8.64-20.09,8.64S43.28,67.29,43,66.86c-1.88-2.81,9.1,5.26,17.09,5.26S80.17,64.84,80.17,65.36Z"/></svg>
