<svg id="Surfer" xmlns="http://www.w3.org/2000/svg" width="310" height="690" viewBox="0 0 310 690"><defs><style>.cls-1{fill:#ffc7c9;}.cls-2{fill:#ffd6c9;}.cls-3{fill:#ffbe9f;}.cls-4{fill:#fff675;}.cls-5{fill:#ffdac9;}.cls-6{fill:#a83200;}.cls-7{fill:#84b400;}.cls-8{fill:#ffb305;}.cls-9{fill:#b46f00;}</style></defs><title>Artboard 91</title><path class="cls-1" d="M101.94,657.49l19.9-3.73A7.17,7.17,0,0,0,130,648l11.11-59.55c.67-3.55-2-7-5.9-7.77h0c-3.91-.72-7.65,1.59-8.32,5.14l-14,58.69C112.15,648.05,77.39,649,101.94,657.49Z"/><path class="cls-1" d="M290.69,654.41l6.69-5c5-15.89-22.05-9.2-23.41-12.54l-20.67-51c-1.36-3.34-5.49-4.85-9.17-3.34h0c-3.68,1.51-5.58,5.47-4.22,8.82l19.84,57.27C261.11,651.9,265.45,660.54,290.69,654.41Z"/><path class="cls-2" d="M244.55,413.29c-15.89,78.3-18,120-64.82,116.62-45.3-3.29-48.93-30-64.82-117-14.8-81,1.77-125.16,64.82-117C244.39,304.18,260.91,332.66,244.55,413.29Z"/><path class="cls-3" d="M182.11,290.43c-.46,17.35,1,27.15-9.49,26.38-10.17-.74-9.46-6.81-10.8-26.19-1.27-18.46-3.36-28.21,10.8-26.39C187.15,266.11,182.6,272,182.11,290.43Z"/><path class="cls-4" d="M212,47.84a26.86,26.86,0,0,1-2.62,34.35c11.32,10.66,15,27.27,15.8,53.06a72.64,72.64,0,0,0-5.92-97.64A26.7,26.7,0,0,1,212,47.84Z"/><path class="cls-4" d="M126,76.2a19.5,19.5,0,0,1-2.82-20A26.63,26.63,0,0,1,115,39.41a72.67,72.67,0,0,0-5,94.79C110.55,106.91,114.77,87.25,126,76.2Z"/><path class="cls-5" d="M168,162.57a73.17,73.17,0,0,1-58-28.37c-.21,12.22.31,26,1.3,41.16,5.2,80.13,17.09,105.6,56.76,108.65,41,3.16,55-36.94,56.75-108.65.38-15.38.6-28.65.25-40.11A73.16,73.16,0,0,1,168,162.57Zm20.49,53.31-1.58-.35a23.85,23.85,0,0,1-46.93-5.9,24.48,24.48,0,0,1,.44-4.56l-5.14-1.16,12.3-31.34,53.2,12Z"/><path class="cls-5" d="M168,162.57a73.16,73.16,0,0,0,57.11-27.32c-.78-25.79-4.48-42.4-15.8-53.06a26.17,26.17,0,0,1-41.55-5.42h-.18a13.36,13.36,0,0,1-9.08-3.56,19.69,19.69,0,0,1-32.52,3c-11.23,11-15.45,30.71-15.93,58A73.17,73.17,0,0,0,168,162.57Zm23.42-45.81a7.91,7.91,0,1,1-7.95,7.91A7.92,7.92,0,0,1,191.44,116.76ZM164,132.55c3,.95,3.13,4,3,13.33-.1,8.81-.84,13.73-3,13.34s-2.74-3.5-3-13.34C160.71,136.52,161.05,131.63,164,132.55Zm-21.9-15.79a7.91,7.91,0,1,1-7.94,7.91A7.93,7.93,0,0,1,142.09,116.76Z"/><path class="cls-4" d="M154.22,63.45a13.49,13.49,0,0,1,.55-3.78,26.07,26.07,0,0,1-31.59-3.5,19.5,19.5,0,0,0,2.82,20c6.73-6.62,16-10.15,28.44-10.38A13.22,13.22,0,0,1,154.22,63.45Z"/><path class="cls-4" d="M154.44,65.82C142,66.05,132.73,69.58,126,76.2a19.69,19.69,0,0,0,32.52-3A13.31,13.31,0,0,1,154.44,65.82Z"/><path class="cls-4" d="M212,47.84a26.07,26.07,0,0,1-32.64,1.36A26,26,0,0,1,174.46,52,13.3,13.3,0,0,1,181,63.45a13.15,13.15,0,0,1-1.1,5.29c13.21,2.82,22.69,7.08,29.45,13.45A26.86,26.86,0,0,0,212,47.84Z"/><path class="cls-4" d="M167.78,76.77a26.17,26.17,0,0,0,41.55,5.42c-6.76-6.37-16.24-10.63-29.45-13.45A13.39,13.39,0,0,1,167.78,76.77Z"/><path class="cls-4" d="M137.85,23.27a26.63,26.63,0,0,1,6-13,25.06,25.06,0,0,0-2.61-.13,26.49,26.49,0,0,0-26.34,26.65,25.12,25.12,0,0,0,.13,2.62A73.26,73.26,0,0,1,137.85,23.27Z"/><path class="cls-4" d="M123.18,56.17a19.66,19.66,0,0,1,18.07-11.88,21.19,21.19,0,0,1,2.12.11,26.67,26.67,0,0,1-5.88-16.77,27.19,27.19,0,0,1,.36-4.36A73.26,73.26,0,0,0,115,39.41,26.63,26.63,0,0,0,123.18,56.17Z"/><path class="cls-4" d="M158,53.62l.21.34.25-.23Z"/><path class="cls-4" d="M154.77,59.67A13.38,13.38,0,0,1,158.21,54l-.21-.34a26.22,26.22,0,0,1-14.63-9.22,21.19,21.19,0,0,0-2.12-.11,19.66,19.66,0,0,0-18.07,11.88,26.07,26.07,0,0,0,31.59,3.5Z"/><path class="cls-4" d="M168,16.8q1.33,0,2.67.06a26.63,26.63,0,0,1,8.62-10.8,26.12,26.12,0,0,0-35.45,4.21,26.07,26.07,0,0,1,15.38,7.06A72.75,72.75,0,0,1,168,16.8Z"/><path class="cls-4" d="M167.6,36.79a26.75,26.75,0,0,1-3.86,13.9,13.3,13.3,0,0,1,3.86-.57h.18a26.69,26.69,0,0,1,5.65-6.89,26.91,26.91,0,0,1-2.74-26.38q-1.33-.06-2.67-.06a72.75,72.75,0,0,0-8.78.53A26.71,26.71,0,0,1,167.6,36.79Z"/><path class="cls-4" d="M173.43,43.24a26.69,26.69,0,0,0-5.65,6.89A13.28,13.28,0,0,1,174.46,52a26,26,0,0,0,4.85-2.82A26.6,26.6,0,0,1,173.43,43.24Z"/><path class="cls-4" d="M159.24,17.33a26.07,26.07,0,0,0-15.38-7.06,26.63,26.63,0,0,0-6,13A72.53,72.53,0,0,1,159.24,17.33Z"/><path class="cls-4" d="M158,53.62l.46.11a13.47,13.47,0,0,1,5.28-3,26.88,26.88,0,0,0-4.5-33.36,72.53,72.53,0,0,0-21.39,5.94,27.19,27.19,0,0,0-.36,4.36,26.67,26.67,0,0,0,5.88,16.77A19.67,19.67,0,0,1,158,53.62Z"/><path class="cls-4" d="M158,53.62a19.67,19.67,0,0,0-14.63-9.22A26.22,26.22,0,0,0,158,53.62Z"/><path class="cls-4" d="M165.89,54.2c-.68,0-1.36.09-2,.09-.88,0-1.75,0-2.6-.13a25.91,25.91,0,0,1-1.91,2,19.38,19.38,0,0,1,1.58,7.7,18.22,18.22,0,0,1-.12,2.1c1.18.07,2.39.18,3.61.3-.09-.92-.15-1.87-.15-2.82A26.74,26.74,0,0,1,165.89,54.2Z"/><path class="cls-4" d="M160.79,66a19.29,19.29,0,0,1-2.27,7.25,13.36,13.36,0,0,0,9.08,3.56h.18a26.76,26.76,0,0,1-3.38-10.5C163.18,66.15,162,66,160.79,66Z"/><path class="cls-4" d="M159.33,56.17a25.81,25.81,0,0,1-4.56,3.5,13.49,13.49,0,0,0-.55,3.78,13.22,13.22,0,0,0,.22,2.37c2,0,4.15,0,6.35.15a18.22,18.22,0,0,0,.12-2.1A19.38,19.38,0,0,0,159.33,56.17Z"/><path class="cls-4" d="M154.44,65.82a13.31,13.31,0,0,0,4.08,7.4A19.29,19.29,0,0,0,160.79,66C158.59,65.83,156.47,65.79,154.44,65.82Z"/><path class="cls-4" d="M164.25,63.45c0,1,.06,1.9.15,2.82,1.22.13,2.46.27,3.73.44q6.31.87,11.75,2a13.15,13.15,0,0,0,1.1-5.29A13.3,13.3,0,0,0,174.46,52a26,26,0,0,1-8.57,2.18A26.74,26.74,0,0,0,164.25,63.45Z"/><path class="cls-4" d="M179.88,68.74q-5.44-1.17-11.75-2c-1.27-.17-2.51-.31-3.73-.44a26.76,26.76,0,0,0,3.38,10.5A13.39,13.39,0,0,0,179.88,68.74Z"/><path class="cls-4" d="M161.24,54.16c-.94-.1-1.87-.24-2.78-.43l-.25.23a19.91,19.91,0,0,1,1.12,2.21A25.91,25.91,0,0,0,161.24,54.16Z"/><path class="cls-4" d="M158.21,54a13.38,13.38,0,0,0-3.44,5.71,25.81,25.81,0,0,0,4.56-3.5A19.91,19.91,0,0,0,158.21,54Z"/><path class="cls-4" d="M163.84,54.29c.69,0,1.37,0,2-.09a26.44,26.44,0,0,1,1.89-4.07h-.18a13.3,13.3,0,0,0-3.86.57,26.8,26.8,0,0,1-2.5,3.47C162.09,54.24,163,54.29,163.84,54.29Z"/><path class="cls-4" d="M165.89,54.2A26,26,0,0,0,174.46,52a13.28,13.28,0,0,0-6.68-1.89A26.44,26.44,0,0,0,165.89,54.2Z"/><path class="cls-4" d="M163.74,50.69a13.47,13.47,0,0,0-5.28,3c.91.19,1.84.33,2.78.43A26.8,26.8,0,0,0,163.74,50.69Z"/><path class="cls-4" d="M189,19.86a73.21,73.21,0,0,1,30.17,17.75,26.87,26.87,0,0,0,1.92-10A26.5,26.5,0,0,0,194.78,1a26,26,0,0,0-15.47,5.08A26.7,26.7,0,0,1,189,19.86Z"/><path class="cls-4" d="M190.18,27.63a27,27,0,0,1-1.63,9.25c.68-.05,1.36-.09,2-.09A26.22,26.22,0,0,1,212,47.84a26.7,26.7,0,0,0,7.26-10.23A73.21,73.21,0,0,0,189,19.86,26.94,26.94,0,0,1,190.18,27.63Z"/><path class="cls-4" d="M179.31,49.2A26.07,26.07,0,0,0,212,47.84,26.22,26.22,0,0,0,190.6,36.79c-.69,0-1.37,0-2,.09A26.69,26.69,0,0,1,179.31,49.2Z"/><path class="cls-4" d="M170.69,16.86a73.12,73.12,0,0,1,18.35,3,26.7,26.7,0,0,0-9.73-13.8A26.63,26.63,0,0,0,170.69,16.86Z"/><path class="cls-4" d="M173.43,43.24a26.09,26.09,0,0,1,15.12-6.36,27.06,27.06,0,0,0,.49-17,73.12,73.12,0,0,0-18.35-3,26.91,26.91,0,0,0,2.74,26.38Z"/><path class="cls-4" d="M179.31,49.2a26.69,26.69,0,0,0,9.24-12.32,26.09,26.09,0,0,0-15.12,6.36A26.6,26.6,0,0,0,179.31,49.2Z"/><ellipse cx="142.09" cy="124.67" rx="7.95" ry="7.91"/><ellipse cx="191.44" cy="124.67" rx="7.95" ry="7.91"/><path class="cls-3" d="M164,159.22c2.19.39,2.93-4.53,3-13.34.1-9.36,0-12.38-3-13.33s-3.28,4-3,13.33C161.25,155.72,161.88,158.84,164,159.22Z"/><path d="M140,209.63a23.85,23.85,0,0,0,46.93,5.9l-46.49-10.46A24.48,24.48,0,0,0,140,209.63Z"/><path class="cls-5" d="M135.3,203.91l5.14,1.16a23.85,23.85,0,0,1,47.23,4.56,23.44,23.44,0,0,1-.74,5.9l1.58.35,12.29-31.35-53.2-12Z"/><path class="cls-5" d="M163.84,185.89a23.82,23.82,0,0,0-23.4,19.18l46.49,10.46a23.44,23.44,0,0,0,.74-5.9A23.79,23.79,0,0,0,163.84,185.89Z"/><ellipse class="cls-5" cx="109.89" cy="147.16" rx="7.53" ry="12.08"/><ellipse class="cls-5" cx="225.31" cy="147.16" rx="7.53" ry="12.08"/><ellipse class="cls-3" cx="108.22" cy="147.58" rx="1.67" ry="5.83"/><ellipse class="cls-3" cx="226.98" cy="146.74" rx="1.67" ry="5.83"/><ellipse class="cls-3" cx="206.49" cy="361.23" rx="4.6" ry="4.58"/><ellipse class="cls-3" cx="152.13" cy="361.23" rx="4.6" ry="4.58"/><ellipse class="cls-6" cx="157.81" cy="228.91" rx="3.57" ry="5.79" transform="translate(-100.78 331.06) rotate(-76.97)"/><path class="cls-2" d="M267,473.3c-5.18,1.16-11-23.81-18-54.64s-12.53-55.85-7.35-57,12.6,23.44,19.59,54.27S272.17,472.13,267,473.3Z"/><path d="M186,376.22c0,6.68,32,4.59,31.78,4.59s-32.62,2.09-32.62-4.59.19-12.07.42-12.07S186,369.55,186,376.22Z"/><path d="M175.13,377.47c0,4.14-34.9,1.67-35.13,1.67s33.45,1.67,34.29-2.5.19-12.49.42-12.49S175.13,373.33,175.13,377.47Z"/><ellipse class="cls-3" cx="177.64" cy="435.78" rx="1.67" ry="1.67"/><path class="cls-7" d="M228.66,491.59H134.15c-5.52,0-10,2.17-10-3.33v-15a10,10,0,0,1,10-10h94.51a10,10,0,0,1,10,10L242,484.93C242,490.42,234.18,491.59,228.66,491.59Z"/><path d="M187.08,476.48h0a.42.42,0,0,1-.56-.19l-2.46-5.15a.42.42,0,0,1,.2-.56h0a.43.43,0,0,1,.56.2l2.45,5.15A.41.41,0,0,1,187.08,476.48Z"/><path d="M180.7,476.83h0a.41.41,0,0,1-.15-.57l3.12-5.39a.41.41,0,0,1,.57-.15h0a.42.42,0,0,1,.16.57l-3.13,5.39A.41.41,0,0,1,180.7,476.83Z"/><path d="M184.33,469.52c0,.41-2.51-1.25-.84,1.25.39.57-1.67-.56-1.67-1.25a1.26,1.26,0,0,1,2.51,0Z"/><path d="M185.3,470.81c-.4-.11,1.92-2-1-1.15-.67.2,1-1.44,1.68-1.24a1.25,1.25,0,1,1-.72,2.39Z"/><ellipse class="cls-7" cx="185.58" cy="526.16" rx="5.44" ry="5.41"/><path class="cls-8" d="M117.42,396.63C119.09,532.4,97,639,71.84,639S17.05,530.5,17.05,396.63,46.66,154.24,71.84,154.24,115.75,261.45,117.42,396.63Z"/><path class="cls-9" d="M37.19,573,54,539c1.06-1.85,3.52-1.48,3.73.56l3.65,52.85c0,.25-.37.61,4.18,7.49l13.81,27.91c.89,1.88-1.11,4.14-2.86,3.24L20.16,602.21C19.13,601.69,36.54,574.1,37.19,573Z"/><ellipse class="cls-2" cx="19.98" cy="389.97" rx="16.31" ry="8.33"/><path class="cls-9" d="M72.25,397.47c0,90.62-1.12,164.09-2.51,164.09s-2.17-73.47-2.5-164.09c-.58-154.82.85-193.94,2.5-164.1C69.82,234.75,72.25,306.84,72.25,397.47Z"/><ellipse class="cls-5" cx="266.71" cy="468.68" rx="9.62" ry="6.25"/><path class="cls-7" d="M255.82,518.57c16.71,67.69,19.23,73.14-4.58,79.64s-33.46,14.16-59.09-55.64c-14.92-40.63-22.49-61.8,10-69.48C235.46,465.22,237,442.44,255.82,518.57Z"/><path class="cls-7" d="M182,543c-10.26,70.24-22.4,62.47-46.22,56.08-23-6.17-25.3,7.34-20.63-68.89,5.57-91,13.38-64.36,45.08-53.94C192.78,486.9,188.28,500.22,182,543Z"/></svg>
