<svg id="Surfer" xmlns="http://www.w3.org/2000/svg" width="290" height="130" viewBox="0 0 290 130"><defs><style>.cls-1{fill:#c6f7ff;}</style></defs><title>Tid</title><path class="cls-1" d="M160.84,125.38h-72c-48,0-85.34-3.87-85.34-51.84h0c0-48,42.25-66.48,90.22-66.48l67.1-2.44c48,0,83.63,21,83.63,68.92h0C244.47,121.51,208.81,125.38,160.84,125.38Z"/><path d="M49.57,41.36H52q7.7,0,11.41,5.71l.45,2.25V83.84q0,5.7-9.61,7.81l-2.1.15h-2.4Q40.48,91.2,38,85.34l-.3-2V49.47q0-5.89,9.76-8Zm-3,12.31V79.34q0,3.22,4.2,3.75,4.35,0,4.35-5.55V55.47q0-5.55-4.35-5.55Q46.57,50.45,46.57,53.67Z"/><path d="M79.44,41.36h2.4q7.69,0,11.41,5.71l.45,2.25V83.84q0,5.7-9.61,7.81L82,91.8h-2.4q-9.24-.6-11.71-6.46l-.3-2V49.47q0-5.89,9.76-8Zm-3,12.31V79.34q0,3.22,4.2,3.75,4.35,0,4.35-5.55V55.47q0-5.55-4.35-5.55Q76.44,50.45,76.44,53.67Z"/><path d="M122.25,47.52h.91q3.45.82,3.45,3.45v.9q-.87,3.45-3.45,3.45h-.91q-3.45-.85-3.45-3.45V51Q119.67,47.52,122.25,47.52Zm0,27.46h.91q3.45.84,3.45,3.46v.9q-.87,3.45-3.45,3.45h-.91c-2.3-.57-3.45-1.73-3.45-3.45v-.9C119.38,76.14,120.53,75,122.25,75Z"/><path d="M163.57,41.36H166q7.35,0,11.26,5.41a9.87,9.87,0,0,1,.6,3v6.75q0,6.54-3,9.91v.3q3,3.38,3,9.91v6.75q0,5.37-7.21,7.66a18,18,0,0,1-4.65.75h-2.4q-7.69,0-11.41-5.71l-.45-2.25V75.59h.15q8.71,3.15,8.71,3.75c0,2.32,1.4,3.63,4.2,3.9q4.2-.52,4.2-3.75v-1q0-5.77-7.35-11.86Q169,60.51,169,54.72v-1q0-3.22-4.2-3.75a4.12,4.12,0,0,0-4.2,3.15,1.46,1.46,0,0,1-1.65,1.65q-6.42,2.85-7.06,2.85h-.15V49.32q0-5.62,9.61-7.81Z"/><path d="M193.44,41.36h2.4q7.69,0,11.41,5.71l.45,2.25V83.84q0,5.7-9.61,7.81l-2.1.15h-2.4q-9.22-.6-11.71-6.46l-.3-2V49.47q0-5.89,9.76-8Zm-3,12.31V79.34q0,3.22,4.2,3.75,4.35,0,4.35-5.55V55.47q0-5.55-4.35-5.55Q190.44,50.45,190.44,53.67Z"/></svg>
