<svg id="Surfer" xmlns="http://www.w3.org/2000/svg" width="90" height="150" viewBox="0 0 90 150"><defs><style>.cls-1{fill:#bdccd4;}.cls-2{fill:blue;}</style></defs><title>Vandflaske</title><ellipse class="cls-1" cx="55.93" cy="109.08" rx="27.6" ry="34.05" transform="translate(-38.77 31.24) rotate(-23.44)"/><path class="cls-1" d="M58.67,97.65l-13,5.61c-5,2.18-6.27.16-14.75-9L14.11,46.57c14.36-2.39-5.66-23.14-5.78-19.25L28.8,18.44c-3.39-3.64-2.52,28,9.16,15.23L63.61,84C66.69,91.1,63.7,95.47,58.67,97.65Z"/><ellipse class="cls-1" cx="18.1" cy="21.8" rx="13.5" ry="4.7" transform="translate(-7.18 9) rotate(-23.44)"/><ellipse class="cls-1" cx="30.08" cy="67.16" rx="14.68" ry="31.12" transform="translate(-22.39 15.56) rotate(-21.35)"/><ellipse class="cls-1" cx="43.01" cy="61.56" rx="14.68" ry="31.12" transform="translate(-20.94 22.18) rotate(-23.44)"/><path class="cls-1" d="M81.25,136.49,59.7,145.84a11.78,11.78,0,0,1-15.44-6.11h0c-13.19-18.6.18-12.87,6.1-15.44L71.91,115c11.78-23,12.88.17,15.45,6.1h0A11.77,11.77,0,0,1,81.25,136.49Z"/><path d="M15.59,68.06a42.63,42.63,0,0,0,20.25-4c7-3.35,11.86-8.67,16.79-14.56.31-.37-.22-.9-.53-.53-4.5,5.37-9,10.52-15.31,13.78a42,42,0,0,1-21.2,4.61c-.48,0-.48.73,0,.75Z"/><path d="M22.23,83.13c13.64-2.8,28.68-8.37,36.06-20.83.25-.41-.4-.79-.65-.37C50.42,74.11,35.37,79.66,22,82.41c-.48.1-.28.82.2.72Z"/><path class="cls-2" d="M26.77,78.36l-4.53-6.28.77-.33,2.84,4.17c.3.43.58.87.86,1.32l-.3-1.4-.95-5.15.91-.4,2.34,3.16a26.93,26.93,0,0,1,1.51,2.26c-.13-.48-.25-1-.38-1.63l-1-4.85.76-.32L31,76.53l-.73.31-3.49-4.77-.53-.73c.07.32.13.62.18.88L27.53,78Z"/><path class="cls-2" d="M32.34,76l-.81-7.9.81-.35,5.34,5.93-.87.38-1.57-1.82-2.39,1,.29,2.37Zm.4-3.56,1.94-.84-1.42-1.67c-.44-.51-.78-.93-1-1.26a9.9,9.9,0,0,1,.26,1.46Z"/><path class="cls-2" d="M39.15,73l-2.66-6.13-1.87.82-.36-.82,4.52-2,.35.82-1.88.82,2.65,6.12Z"/><path class="cls-2" d="M42.56,71.52l-3-7,4.12-1.78.35.82-3.36,1.46.92,2.12,3.15-1.37.35.82L41.94,68l1,2.36,3.5-1.51.35.82Z"/><path class="cls-2" d="M47.85,69.23l-3-6.94,2.52-1.1a2.91,2.91,0,0,1,1.25-.31,1.62,1.62,0,0,1,.9.38,2.44,2.44,0,0,1,.7.94,1.93,1.93,0,0,1-.78,2.59,2.11,2.11,0,0,1,.65.17,5.36,5.36,0,0,1,1,.63l1.82,1.46-.95.41-1.39-1.11a10.64,10.64,0,0,0-1.16-.86,1.41,1.41,0,0,0-.6-.2,1.49,1.49,0,0,0-.64.15l-.87.38L48.6,68.9ZM46.92,65l1.62-.7a2.11,2.11,0,0,0,.75-.48,1.1,1.1,0,0,0,.26-.59,1.31,1.31,0,0,0-.12-.71,1.18,1.18,0,0,0-.66-.69,1.37,1.37,0,0,0-1.05.1l-1.8.77Z"/><ellipse class="cls-1" cx="15.99" cy="16.96" rx="12.92" ry="3.52" transform="translate(-5.42 7.76) rotate(-23.44)"/></svg>
